<?xml version="1.0" encoding="UTF-8"?>
<svg width="2445px" height="1118px" viewBox="0 0 2445 1118" version="1.1" xmlns="http://www.w3.org/2000/svg" xmlns:xlink="http://www.w3.org/1999/xlink">
    <!-- Generator: Sketch 48.2 (47327) - http://www.bohemiancoding.com/sketch -->
    <title>Group 2</title>
    <desc>Created with Sketch.</desc>
    <defs>
        <polygon id="path-1" points="0.0470359375 0.126728814 31.1377547 0.126728814 31.1377547 36.3727169 0.0470359375 36.3727169"></polygon>
        <polygon id="path-3" points="0.0470359375 0.126728814 31.1377547 0.126728814 31.1377547 36.3727169 0.0470359375 36.3727169"></polygon>
        <polygon id="path-5" points="0.0470359375 0.126728814 31.1377547 0.126728814 31.1377547 36.3727169 0.0470359375 36.3727169"></polygon>
        <polygon id="path-7" points="0 0.796362245 2444.7603 0.796362245 2444.7603 743.248987 0 743.248987"></polygon>
    </defs>
    <g id="Page-1" stroke="none" stroke-width="1" fill="none" fill-rule="evenodd">
        <g id="Group" transform="translate(-65.000000, -1191.000000)">
            <g id="Group-2" transform="translate(65.000000, 1191.000000)">
                <g id="Page-1" transform="translate(861.000000, 481.000000)">
                    <polygon id="Fill-1" fill="#FDD61D" points="37 449.533374 69 470 68.0024585 447.726759 45.2194906 439"></polygon>
                    <polygon id="Fill-2" fill="#00B1CE" points="908 52.9138273 919.313372 64 944 46.5252389 939.47721 29"></polygon>
                    <polygon id="Fill-3" fill="#9C283E" points="0 216.867787 22.0840336 243 36 235.827193 17.2855355 201"></polygon>
                    <polygon id="Fill-4" fill="#00B1CE" points="341 11.8073128 316.782051 7 305 24.5980847 334.455128 29"></polygon>
                    <g id="Group-12" transform="translate(344.000000, 0.000000)">
                        <path d="M381.459612,100.040829 C381.542081,100.135914 381.62455,100.230998 381.703847,100.326083 C387.559128,107.273608 389.852394,109.501761 398.825628,106.157947 C399.358503,105.958269 399.910409,105.758592 400.478175,105.796625 C402.114863,105.917066 402.936378,108.065981 402.352753,109.600015 C401.290175,112.395507 398.061206,113.533354 397.119159,116.642625 C396.205659,119.640964 405.315284,134.249151 399.463175,132.318931 L389.969753,129.190642 C388.980128,128.864185 387.889003,129.212829 387.273659,130.052744 C385.811425,132.043185 381.741909,139.887676 378.703253,138.898795 C375.632878,137.897236 377.044362,129.149439 377.05705,126.677236 C377.066566,121.621897 362.406159,123.21932 364.5218,118.319286 C366.047472,114.785303 372.800394,115.339964 375.325206,112.290914 C378.367034,108.620642 375.94055,105.105676 377.063394,101.295947 C377.504284,99.7936085 379.296394,98.5987102 380.663472,99.3593881 C380.971144,99.5305407 381.224894,99.777761 381.459612,100.040829" id="Fill-5" fill="#FDD61D"></path>
                        <g id="Group-9" transform="translate(215.687500, 0.000000)">
                            <mask id="mask-2" fill="white">
                                <use xlink:href="#path-1"></use>
                            </mask>
                            <g id="Clip-8"></g>
                            <polygon id="Fill-7" fill="#006C3F" mask="url(#mask-2)" points="31.1377547 27.3111407 18.1838172 36.3727169 0.0470359375 1.4227339 18.1838172 0.126411864"></polygon>
                        </g>
                        <path d="M8.96888594,366.672719 C8.98157344,366.545939 8.99743281,366.422329 9.01329219,366.298719 C10.2186047,357.297363 10.3201047,354.099346 1.80996406,349.719108 C1.30246406,349.45921 0.782276562,349.186634 0.433370312,348.739736 C-0.581629688,347.452922 0.455573437,345.399092 1.98441719,344.796888 C4.76932344,343.700244 7.78260469,345.323024 10.7197609,343.928447 C13.5522453,342.584583 18.2371047,326.02082 20.7460578,331.643498 L24.8187453,340.765295 C25.2437766,341.716142 26.2334016,342.28982 27.2706047,342.178888 C29.7288078,341.91899 38.2738391,339.649634 39.5869953,342.559227 C40.9128391,345.503685 33.4843078,350.346668 31.6477922,352.001142 C27.8986359,355.395668 38.9494484,365.154532 33.8966516,366.891414 C30.2553391,368.143363 26.1223859,362.777414 22.1607141,362.961244 C17.3997297,363.183108 16.4323078,367.341481 12.8544328,369.075193 C11.4461203,369.759803 9.35585469,369.243176 8.99743281,367.718651 C8.91813594,367.376346 8.93082344,367.024532 8.96888594,366.672719" id="Fill-10" fill="#9C283E"></path>
                    </g>
                </g>
                <g id="Page-1-Copy" transform="translate(748.636581, 437.391762) rotate(-190.000000) translate(-748.636581, -437.391762) translate(276.636581, 202.391762)">
                    <polygon id="Fill-1" fill="#FDD61D" points="37 449.533374 69 470 68.0024585 447.726759 45.2194906 439"></polygon>
                    <polygon id="Fill-2" fill="#00B1CE" points="908 52.9138273 919.313372 64 944 46.5252389 939.47721 29"></polygon>
                    <polygon id="Fill-3" fill="#9C283E" points="0 216.867787 22.0840336 243 36 235.827193 17.2855355 201"></polygon>
                    <polygon id="Fill-4" fill="#00B1CE" points="341 11.8073128 316.782051 7 305 24.5980847 334.455128 29"></polygon>
                    <g id="Group-12" transform="translate(344.000000, 0.000000)">
                        <path d="M381.459612,100.040829 C381.542081,100.135914 381.62455,100.230998 381.703847,100.326083 C387.559128,107.273608 389.852394,109.501761 398.825628,106.157947 C399.358503,105.958269 399.910409,105.758592 400.478175,105.796625 C402.114863,105.917066 402.936378,108.065981 402.352753,109.600015 C401.290175,112.395507 398.061206,113.533354 397.119159,116.642625 C396.205659,119.640964 405.315284,134.249151 399.463175,132.318931 L389.969753,129.190642 C388.980128,128.864185 387.889003,129.212829 387.273659,130.052744 C385.811425,132.043185 381.741909,139.887676 378.703253,138.898795 C375.632878,137.897236 377.044362,129.149439 377.05705,126.677236 C377.066566,121.621897 362.406159,123.21932 364.5218,118.319286 C366.047472,114.785303 372.800394,115.339964 375.325206,112.290914 C378.367034,108.620642 375.94055,105.105676 377.063394,101.295947 C377.504284,99.7936085 379.296394,98.5987102 380.663472,99.3593881 C380.971144,99.5305407 381.224894,99.777761 381.459612,100.040829" id="Fill-5" fill="#FDD61D"></path>
                        <g id="Group-9" transform="translate(215.687500, 0.000000)">
                            <mask id="mask-4" fill="white">
                                <use xlink:href="#path-3"></use>
                            </mask>
                            <g id="Clip-8"></g>
                            <polygon id="Fill-7" fill="#006C3F" mask="url(#mask-4)" points="31.1377547 27.3111407 18.1838172 36.3727169 0.0470359375 1.4227339 18.1838172 0.126411864"></polygon>
                        </g>
                        <path d="M8.96888594,366.672719 C8.98157344,366.545939 8.99743281,366.422329 9.01329219,366.298719 C10.2186047,357.297363 10.3201047,354.099346 1.80996406,349.719108 C1.30246406,349.45921 0.782276562,349.186634 0.433370312,348.739736 C-0.581629688,347.452922 0.455573437,345.399092 1.98441719,344.796888 C4.76932344,343.700244 7.78260469,345.323024 10.7197609,343.928447 C13.5522453,342.584583 18.2371047,326.02082 20.7460578,331.643498 L24.8187453,340.765295 C25.2437766,341.716142 26.2334016,342.28982 27.2706047,342.178888 C29.7288078,341.91899 38.2738391,339.649634 39.5869953,342.559227 C40.9128391,345.503685 33.4843078,350.346668 31.6477922,352.001142 C27.8986359,355.395668 38.9494484,365.154532 33.8966516,366.891414 C30.2553391,368.143363 26.1223859,362.777414 22.1607141,362.961244 C17.3997297,363.183108 16.4323078,367.341481 12.8544328,369.075193 C11.4461203,369.759803 9.35585469,369.243176 8.99743281,367.718651 C8.91813594,367.376346 8.93082344,367.024532 8.96888594,366.672719" id="Fill-10" fill="#9C283E"></path>
                    </g>
                </g>
                <g id="Page-1-Copy-2" transform="translate(1587.985556, 822.553633) rotate(-144.000000) translate(-1587.985556, -822.553633) translate(1115.985556, 587.553633)">
                    <polygon id="Fill-1" fill="#FDD61D" points="37 449.533374 69 470 68.0024585 447.726759 45.2194906 439"></polygon>
                    <polygon id="Fill-2" fill="#00B1CE" points="908 52.9138273 919.313372 64 944 46.5252389 939.47721 29"></polygon>
                    <polygon id="Fill-3" fill="#9C283E" points="0 216.867787 22.0840336 243 36 235.827193 17.2855355 201"></polygon>
                    <polygon id="Fill-4" fill="#00B1CE" points="341 11.8073128 316.782051 7 305 24.5980847 334.455128 29"></polygon>
                    <g id="Group-12" transform="translate(344.000000, 0.000000)">
                        <path d="M381.459612,100.040829 C381.542081,100.135914 381.62455,100.230998 381.703847,100.326083 C387.559128,107.273608 389.852394,109.501761 398.825628,106.157947 C399.358503,105.958269 399.910409,105.758592 400.478175,105.796625 C402.114863,105.917066 402.936378,108.065981 402.352753,109.600015 C401.290175,112.395507 398.061206,113.533354 397.119159,116.642625 C396.205659,119.640964 405.315284,134.249151 399.463175,132.318931 L389.969753,129.190642 C388.980128,128.864185 387.889003,129.212829 387.273659,130.052744 C385.811425,132.043185 381.741909,139.887676 378.703253,138.898795 C375.632878,137.897236 377.044362,129.149439 377.05705,126.677236 C377.066566,121.621897 362.406159,123.21932 364.5218,118.319286 C366.047472,114.785303 372.800394,115.339964 375.325206,112.290914 C378.367034,108.620642 375.94055,105.105676 377.063394,101.295947 C377.504284,99.7936085 379.296394,98.5987102 380.663472,99.3593881 C380.971144,99.5305407 381.224894,99.777761 381.459612,100.040829" id="Fill-5" fill="#FDD61D"></path>
                        <g id="Group-9" transform="translate(215.687500, 0.000000)">
                            <mask id="mask-6" fill="white">
                                <use xlink:href="#path-5"></use>
                            </mask>
                            <g id="Clip-8"></g>
                            <polygon id="Fill-7" fill="#006C3F" mask="url(#mask-6)" points="31.1377547 27.3111407 18.1838172 36.3727169 0.0470359375 1.4227339 18.1838172 0.126411864"></polygon>
                        </g>
                        <path d="M8.96888594,366.672719 C8.98157344,366.545939 8.99743281,366.422329 9.01329219,366.298719 C10.2186047,357.297363 10.3201047,354.099346 1.80996406,349.719108 C1.30246406,349.45921 0.782276562,349.186634 0.433370312,348.739736 C-0.581629688,347.452922 0.455573437,345.399092 1.98441719,344.796888 C4.76932344,343.700244 7.78260469,345.323024 10.7197609,343.928447 C13.5522453,342.584583 18.2371047,326.02082 20.7460578,331.643498 L24.8187453,340.765295 C25.2437766,341.716142 26.2334016,342.28982 27.2706047,342.178888 C29.7288078,341.91899 38.2738391,339.649634 39.5869953,342.559227 C40.9128391,345.503685 33.4843078,350.346668 31.6477922,352.001142 C27.8986359,355.395668 38.9494484,365.154532 33.8966516,366.891414 C30.2553391,368.143363 26.1223859,362.777414 22.1607141,362.961244 C17.3997297,363.183108 16.4323078,367.341481 12.8544328,369.075193 C11.4461203,369.759803 9.35585469,369.243176 8.99743281,367.718651 C8.91813594,367.376346 8.93082344,367.024532 8.96888594,366.672719" id="Fill-10" fill="#9C283E"></path>
                    </g>
                </g>
                <g id="Page-1">
                    <path d="M19.9035657,10 C16.0474021,59.1824222 1.67304957,119.670321 9.09720736,168 C26.2736296,163.164 136.240649,81.5053371 138,82.5854782 C137.984833,82.5741083 19.9035657,10 19.9035657,10" id="Fill-1" fill="#9C283E"></path>
                    <path d="M1782.47661,873 C1792.86094,863.743236 1833.50316,787.787669 1851.90518,754.810209 C1857.11631,745.473743 1860.54867,739.579624 1861,739.625168 C1860.98483,739.625168 1723,726 1723,726 C1741.07206,771.972607 1754.63085,832.735542 1782.47661,873 Z" id="Fill-3" fill="#FDD61D"></path>
                    <path d="M2017.30944,804.632342 C2030.65727,829.974279 2048.05496,853.180916 2068.69101,873 C2087.24905,829.098844 2115.76866,777.657529 2123,730.528683 C2081.72031,723.05323 2029.5045,734.31589 1987,736.546346 C1992.43014,736.260878 2013.93835,798.234055 2017.30944,804.632342 Z" id="Fill-5" fill="#9C283E"></path>
                    <path d="M233.996114,226.195653 C231.665321,254.934457 233.30721,272.988567 240.169462,301 C279.681947,273.819301 332.383122,256.71843 364,220.663806 C332.895973,191.92883 282.364847,173.158835 244.976482,152 C249.752885,154.702757 234.58551,218.941086 233.996114,226.195653 Z" id="Fill-7" fill="#00B1CE"></path>
                    <path d="M1474.13117,748.193189 C1480.2632,775.984914 1487.06811,792.548118 1501.7234,817 C1531.3571,779.940588 1576.45202,748.582333 1596,705.425063 C1558.11296,687.290169 1504.66206,684.169456 1463,675 C1468.32228,676.171212 1472.58011,741.173473 1474.13117,748.193189 Z" id="Fill-9" fill="#4F7DA8"></path>
                    <path d="M1206.96857,673.330182 C1209.33613,700.833812 1213.6958,726.416809 1226.20399,751.43087 C1228.18844,755.409598 1231.10766,759.831256 1235.5631,759.995446 C1239.09528,760.12527 1242.03365,757.456238 1244.53528,754.966669 C1264.70929,734.905018 1338,680.420872 1338,648.594861 C1291.06651,636.295931 1241.63139,632.67231 1200,622 C1207.49342,624.042821 1206.4284,667.071894 1206.96857,673.330182 Z" id="Fill-11" fill="#FDD61D"></path>
                    <path d="M465.87188,361.239052 C463.574718,389.607328 465.819072,418.349717 472.578539,446 C548.317014,399.882184 562.84308,391.3683 594,355.774748 C563.344759,327.41403 513.542723,308.886035 476.693818,288 C481.401304,290.66791 466.452772,354.074239 465.87188,361.239052 Z" id="Fill-13" fill="#4F7DA8"></path>
                    <path d="M713.364188,413 C708.007631,425.697244 681.294016,561.742388 706.981662,559.983086 C720.357683,559.067492 832,466.040127 832,466.040127 C793.447396,448.492505 753.400028,425.035141 713.364188,413" id="Fill-15" fill="#FDD61D"></path>
                    <path d="M2241,711.784761 C2241,711.784761 2330.28046,833.115649 2339.32944,823.451926 C2348.38223,813.79198 2365,671 2365,671 L2241,711.784761 Z" id="Fill-17" fill="#00B1CE"></path>
                    <path d="M947.722652,522 C947.722652,522 943.2825,671.905699 956.414334,670.995875 C969.54994,670.086052 1065,576.272296 1065,576.272296 L947.722652,522 Z" id="Fill-19" fill="#4F7DA8"></path>
                    <g id="Group-23">
                        <mask id="mask-8" fill="white">
                            <use xlink:href="#path-7"></use>
                        </mask>
                        <g id="Clip-22"></g>
                        <path d="M1738.28244,728.946439 C1738.24444,728.935036 1738.20264,728.923633 1738.15704,728.91223 C1738.21784,728.927434 1738.26724,728.942638 1738.31284,728.954041 C1738.30144,728.95024 1738.29384,728.946439 1738.28244,728.946439 M1138.95228,607.074321 C1122.04972,601.923939 1105.30676,596.264219 1088.77281,589.954526 C1028.58025,566.984959 969.793706,535.634143 910.589157,509.179041 L601.482886,360.483122 L601.296684,360.372893 C601.296684,360.372893 12.6560175,16.4185561 0.00950008823,9.02937245 C-0.23370217,8.88873469 3.75633488,1.7200102 4.23893937,0.796362245 C40.058072,12.1652143 73.3615813,40.5892449 105.232477,60.3127398 C144.456442,84.5860561 183.889408,108.517281 223.527576,132.110214 C302.803912,179.292281 382.893456,225.10598 463.750607,269.520903 C548.03159,315.817332 633.14478,360.597153 719.036978,403.829959 C799.913129,444.538888 881.477086,483.871847 963.68705,521.809832 C1024.38881,549.823352 1085.56938,577.126082 1149.02237,598.172332 C1220.33003,621.822281 1294.01272,637.406464 1367.5168,652.933633 C1402.23772,660.269602 1437.00045,667.605571 1471.82017,674.652663 C1477.67222,675.838582 1483.52808,677.016898 1489.38393,678.183811 C1493.83377,679.069449 1498.28741,679.951286 1502.73726,680.829321 C1603.09239,700.564219 1703.98332,717.220291 1805.95347,723.906286 C1924.29417,731.67177 2043.50508,725.772587 2160.54236,706.630648 C2221.01233,696.744194 2280.90468,683.31899 2339.80143,666.415852 C2364.90446,659.212918 2393.19573,653.70524 2415.12193,639.36399 C2426.00903,632.244679 2438.02094,608.860801 2444.7622,632.271286 C2381.57902,656.343148 2314.953,700.294347 2248.26998,712.043301 C2241.53632,713.229219 2109.29889,733.192179 1993.43581,739.330827 C1890.50426,744.785291 1782.25645,747.704474 1680.86011,726.042459 C1602.84919,709.374985 1611.09906,711.44274 1533.10334,694.57001 C1509.43672,689.446235 1399.6233,663.572689 1375.93388,658.939245 C1296.85894,643.472893 1216.2564,630.621643 1138.95228,607.074321" id="Fill-21" fill="#4F7DA8" mask="url(#mask-8)"></path>
                    </g>
                </g>
            </g>
        </g>
    </g>
</svg>