<?xml version="1.0" encoding="UTF-8" standalone="no"?>
<svg width="442px" height="442px" viewBox="0 0 442 442" version="1.1" xmlns="http://www.w3.org/2000/svg" xmlns:xlink="http://www.w3.org/1999/xlink">
    <!-- Generator: Sketch 47.1 (45422) - http://www.bohemiancoding.com/sketch -->
    <title>Artboard</title>
    <desc>Created with Sketch.</desc>
    <defs></defs>
    <g id="Page-1" stroke="none" stroke-width="1" fill="none" fill-rule="evenodd">
        <animateTransform attributeType="xml"
                    attributeName="transform"
                    type="rotate"
                    from="0 221 221"
                    to="360 221 221"
                    dur="4s"
                    repeatCount="indefinite"/>
        <g id="Artboard" fill-rule="nonzero" fill="#406A91">
            <path d="M197.774819,440.390021 C196.854831,439.375329 195.010346,431.275829 192.985471,418.93717 C191.145495,408.073197 189.210815,398.219406 188.750821,397.209224 C188.196123,395.734537 186.816141,395.089644 183.596184,394.539455 C181.20151,394.169656 175.307275,392.69948 170.427732,391.224793 L161.588634,388.555025 L157.904173,392.789675 C155.879298,395.184349 149.434874,402.73366 143.630834,409.638078 C136.726416,417.832282 132.306867,422.251831 130.926885,422.436731 C129.546903,422.62163 122.73268,419.212264 111.589103,412.862545 C92.2513213,401.813672 91.146434,400.983879 91.146434,398.223916 C91.146434,397.209224 94.3709009,387.450138 98.420651,376.586165 L105.694868,356.788389 L95.4757882,346.474605 L85.3469034,336.16082 L82.0322416,337.450607 C68.8637894,342.605244 45.2958678,350.799449 43.7309866,350.799449 C40.9665136,350.799449 40.1412305,349.784757 29.0923579,330.35678 C22.7381288,319.217712 19.3332721,312.403489 19.5181716,311.018998 C19.7030711,309.639016 24.1226201,305.219467 32.3168248,298.315049 C39.2212427,292.515519 46.770554,286.071095 49.165228,284.04171 L53.3998776,280.357249 L50.7301092,271.518151 C49.2554229,266.638608 47.7852464,260.744373 47.4154474,258.349699 C46.8607489,255.125232 46.2203653,253.74525 44.745679,253.195062 C43.7309866,252.735068 34.1568003,250.895092 23.4777268,249.050607 C12.7986532,247.210632 3.21995715,245.091052 2.02487501,244.355964 C0,243.075196 0,242.800102 0,221.067646 C0,201.364575 0.1848995,199.060096 1.65507601,197.774819 C2.57506377,196.854831 10.7692684,195.010346 22.557739,192.985471 C33.2368126,191.145495 42.8155086,189.395715 43.9203959,189.210815 C45.3950821,188.841016 46.2203653,187.645934 46.9599633,184.791266 C47.4199571,182.671687 48.9848383,176.781961 50.4595245,171.717519 C51.8395062,166.653076 52.9443934,162.143332 52.9443934,161.773533 C52.9443934,161.313539 45.485277,154.684216 36.3710846,147.0402 C25.322212,137.646403 19.7075809,132.306867 19.5226814,130.926885 C19.3377819,129.546903 22.7471483,122.73268 29.0968677,111.589103 C40.2359351,92.0709315 40.9755331,91.146434 43.7354964,91.146434 C44.8403836,91.146434 54.5994694,94.4610958 65.4634425,98.420651 L85.1665136,105.694868 L95.4802979,95.4757882 L105.794082,85.3469034 L104.504295,82.0322416 C99.3496582,68.8637894 91.1554535,45.2958678 91.1554535,43.7309866 C91.1554535,40.9665136 92.1701459,40.2314254 111.598123,29.0923579 C122.73719,22.7381288 129.551413,19.3332721 130.935904,19.5181716 C132.315886,19.7030711 137.475033,25.0426079 146.404326,35.6314866 C153.768738,44.3803898 160.217672,51.8349964 160.677666,52.3896949 C161.322559,52.9398837 164.637221,52.3896949 170.436751,50.6399143 C175.316294,49.2599327 181.21053,47.7852464 183.605204,47.4154474 C186.82967,46.8652586 188.209652,46.2203653 188.759841,44.745679 C189.219835,43.7309866 191.154515,33.8817059 192.99449,23.0177329 C195.019365,10.8639731 196.954046,2.57506377 197.783838,1.65507601 C199.073625,0.180389756 201.373595,0 221.076666,0 C242.804612,0 243.084216,0 244.374003,2.11957963 C245.109091,3.22446689 247.228671,12.7986532 249.068646,23.4822365 C250.908622,34.1613101 252.753107,43.7400061 253.213101,44.7501888 C253.763289,46.224875 255.147781,46.8697684 258.367738,47.4199571 C260.762412,47.7897561 266.656647,49.2599327 271.53619,50.7346189 L280.375288,53.4043873 L284.059749,49.1697378 C286.084624,46.7750638 292.529048,39.2257525 298.333088,32.3213346 C305.237506,24.2173248 309.657055,19.7075809 311.037037,19.5226814 C312.326824,19.3377819 319.325946,22.7471483 330.374819,29.0968677 C349.892991,40.3306397 350.817488,40.9755331 350.817488,43.7354964 C350.817488,44.8403836 347.502826,54.5994694 343.543271,65.4634425 L336.269054,85.1665136 L346.397939,95.4802979 L356.617019,105.794082 L359.93168,104.504295 C373.100133,99.3496582 396.668054,91.1554535 398.232935,91.1554535 C400.997408,91.1554535 401.732497,92.1701459 412.871564,111.598123 C419.225793,122.646995 422.63065,129.551413 422.44575,130.935904 C422.260851,132.315886 416.551515,137.750128 405.597347,147.049219 C396.483155,154.693235 389.114233,161.597653 389.208938,162.242547 C389.208938,162.88744 390.773819,169.05677 392.5236,175.870993 C394.918274,185.07989 396.20806,188.394552 397.497847,188.94474 C398.417835,189.314539 407.901826,191.06432 418.490705,192.904295 C429.169779,194.744271 438.748475,196.863851 439.943557,197.598939 C441.954903,198.879706 441.954903,199.154801 441.954903,220.977451 C441.954903,242.800102 441.954903,243.075196 439.930028,244.364983 C438.734945,245.100071 429.156249,247.219651 418.477176,249.059627 C407.888297,250.899602 398.404306,252.649383 397.484318,253.019182 C396.194531,253.57388 394.904744,256.793837 392.51007,266.092929 C390.76029,272.907152 389.285604,279.076482 389.195409,279.721375 C389.100704,280.366269 396.469626,287.180492 405.583818,294.914703 C416.632691,304.308499 422.247322,309.648036 422.432221,311.028018 C422.617121,312.407999 419.207754,319.222222 412.858035,330.365799 C401.714458,349.793776 400.979369,350.808469 398.219406,350.808469 C396.654525,350.808469 373.082094,342.614264 359.918151,337.459627 L356.603489,336.16984 L346.474605,346.483624 L336.255525,356.797408 L343.529742,376.595184 C347.489297,387.459157 350.803959,397.218243 350.803959,398.32313 C350.803959,400.992899 349.789266,401.727987 330.36129,412.871564 C319.222222,419.225793 312.407999,422.63065 311.023508,422.44575 C309.643526,422.260851 305.223977,417.841302 298.319559,409.647097 C292.520029,402.742679 286.075605,395.193368 284.04622,392.798694 L280.361759,388.564044 L271.522661,391.233813 C266.643118,392.708499 260.748883,394.178676 258.354209,394.548475 C255.129742,395.103173 253.74976,395.743557 253.104867,397.218243 C252.735068,398.232935 250.804897,407.897317 249.055117,418.486195 C247.215141,429.165269 245.095562,438.743965 244.360473,439.939047 C243.070687,441.963922 242.795592,441.963922 221.063136,441.963922 C201.364575,441.954903 199.064606,441.770003 197.774819,440.390021 Z M237.180961,323.641771 C259.553801,320.052015 278.06179,310.473319 294.265299,294.269809 C315.443057,273.092052 326.31154,245.194776 324.746659,216.097908 C324.101765,203.39396 321.982185,193.905459 317.287542,182.216202 C312.0382,169.23265 304.488889,157.908683 294.269809,147.689603 C267.292521,120.61761 228.436568,110.578921 191.975288,121.077604 C175.861973,125.772248 161.498439,134.246057 148.609591,146.580206 C112.608305,181.20151 106.71407,236.260973 134.521151,278.986287 C139.585593,286.720498 155.238914,302.373819 162.973125,307.438261 C185.43616,322.07238 211.678359,327.781716 237.180961,323.641771 Z" id="Shape"></path>
        </g>
    </g>
</svg>
