<?xml version="1.0" encoding="UTF-8" standalone="no"?>
<svg width="587px" height="434px" viewBox="0 0 587 434" version="1.1" xmlns="http://www.w3.org/2000/svg" xmlns:xlink="http://www.w3.org/1999/xlink">
    <!-- Generator: Sketch 47.1 (45422) - http://www.bohemiancoding.com/sketch -->
    <title>Artboard</title>
    <desc>Created with Sketch.</desc>
    <defs>
        <polygon id="path-1" points="0.473658402 22.3980653 0.473658402 0.0431594747 0.943237741 0.0431594747 0.943237741 22.3980653 0.473658402 22.3980653"></polygon>
        <path d="M0.588037682,0.541107692 C2.03561888,2.32342583 3.59130905,3.32615815 5.04019539,3.8648 L10.7845317,3.8648 L11.0899491,0.541107692 L0.588037682,0.541107692 L0.588037682,0.541107692 Z" id="path-3"></path>
        <path d="M2.10321647,0.256984615 L0.287636364,1.88 C0.620909386,2.48164411 0.965927772,3.02741723 1.31935638,3.52221538 L12.4280292,3.52221538 L12.7280745,0.256984615 L2.10321647,0.256984615 Z" id="path-5"></path>
        <polygon id="path-7" points="4.09278833 0.510646154 0.440838503 3.77526154 10.2551601 3.77526154 10.5551489 0.510646154 4.09278833 0.510646154"></polygon>
        <polygon id="path-9" points="3.84731297 0.440307692 0.16782723 3.72953846 6.14410603 3.72953846 6.44635672 0.440307692 3.84731297 0.440307692"></polygon>
        <path d="M0.0444169029,0.101857778 C1.23238917,1.47219815 2.44853132,2.35210836 3.60955182,2.89874667 L10.3358075,2.89874667 L10.3075283,0.101857778 L0.0444169029,0.101857778 L0.0444169029,0.101857778 Z" id="path-11"></path>
        <path d="M1.98927877,0.188595556 L0.114776316,2.28293333 C0.237326221,2.46442521 0.360503056,2.63985079 0.484208522,2.80939556 L11.5515425,2.80939556 L11.5250438,0.188595556 L1.98927877,0.188595556 L1.98927877,0.188595556 Z" id="path-13"></path>
        <polygon id="path-15" points="2.46899459 0.504435556 0.117164803 3.13208 8.37480151 3.13208 8.34823357 0.504435556 2.46899459 0.504435556"></polygon>
        <polygon id="path-17" points="2.66696977 0.512835556 0.288965229 3.16972444 5.20146973 3.16972444 5.17460611 0.512835556 2.66696977 0.512835556"></polygon>
        <polygon id="path-19" points="0.472552817 344 344.822033 344 344.822033 0.0430758377 0.472552817 0.0430758377"></polygon>
        <path d="M0.122641788,0.177955556 C1.4502652,1.80569048 2.87704817,2.72163651 4.20596699,3.21377778 L9.47695297,3.21377778 L9.75665784,0.177955556 L0.122641788,0.177955556 L0.122641788,0.177955556 Z" id="path-21"></path>
        <path d="M2.28346621,0.280124444 L0.618369231,1.76213333 C0.924022668,2.31154601 1.24044649,2.8099497 1.56458329,3.26181333 L11.7549587,3.26181333 L12.029676,0.280124444 L2.28346621,0.280124444 L2.28346621,0.280124444 Z" id="path-23"></path>
        <polygon id="path-25" points="3.85928628 0.310488889 0.509238106 3.29217778 9.51151558 3.29217778 9.78623288 0.310488889 3.85928628 0.310488889"></polygon>
        <polygon id="path-27" points="3.84365725 0.607102222 0.468441767 3.61119111 5.94917018 3.61119111 6.2259513 0.607102222 3.84365725 0.607102222"></polygon>
        <path d="M0.06636,8.12820707 C8.10610238,8.82549861 9.95012308,3.19095467 9.95012308,3.19095467 L6.79686737,0.4607232 L0.06636,0.4607232 L0.06636,8.12820707 L0.06636,8.12820707 Z" id="path-29"></path>
        <path d="M0.473445727,0.212232533 L1.32138462,9.75445333 C5.89695044,10.4907286 8.69829869,9.30390738 10.3567477,7.92999947 L10.3567477,3.09715171 L7.02483683,0.212232533 L0.473445727,0.212232533 L0.473445727,0.212232533 Z" id="path-31"></path>
        <polygon id="path-33" points="0.163569332 0.309060267 1.11211096 10.9834069 8.33816308 10.9834069 8.33816308 4.93336982 2.99735931 0.309060267 0.163569332 0.309060267"></polygon>
        <path d="M0.841524465,9.13304747 L0.131169231,1.13911467 C-0.0775384615,0.55552 0.425815385,0.0525653333 0.9828,0.0525653333 C1.16953846,0.0525653333 1.36209231,0.109312 1.53590769,0.238336 L6.33282462,4.39172371 L6.33282462,9.13304747 L0.841524465,9.13304747 L0.841524465,9.13304747 Z" id="path-35"></path>
        <polygon id="path-37" points="98 0 98 176 0 176 1.86018277e-13 0 98 0"></polygon>
    </defs>
    <g id="Page-1" stroke="none" stroke-width="1" fill="none" fill-rule="evenodd">
        <g id="Artboard">
            <g id="House-3" transform="translate(372.000000, 0.000000)">
                <polyline id="Fill-86" fill="#6A2C3F" points="15.229 19.83 4.518 69.19 3.677 91.785 154.466 91.785 150.741 47.133 144.92 21.692 15.229 19.83"></polyline>
                <polyline id="Fill-87" fill="#CA755B" points="3.677 91.785 0.328 152.019 0.881 180.239 151.67 180.239 154.466 91.785 3.677 91.785"></polyline>
                <polyline id="Fill-88" fill="#E8D2BB" points="64.824 180.239 63.66 158.308 65.988 137.84 94.627 136.713 94.627 180.239 64.824 180.239"></polyline>
                <path d="M18.247,133.826 L18.247,162.323 L44.738,162.323 C44.738,162.323 44.635,142.458 45.1,142.32 C45.567,142.183 45.1,133.826 45.1,133.826 L18.247,133.826" id="Fill-89" fill="#E8D2BB"></path>
                <polyline id="Fill-90" fill="#E8D2BB" points="19.101 108.621 19.101 126.568 44.922 126.568 46.266 98.765 29.348 96.84 19.722 97.388 19.101 108.621"></polyline>
                <path d="M109.761,100.099 L108.844,120.325 L108.844,129.599 L134.923,130.789 C134.923,130.789 135.698,117.486 135.698,117.073 C135.698,116.661 137.08,102.353 137.08,102.353 L109.761,100.099" id="Fill-91" fill="#E8D2BB"></path>
                <polyline id="Fill-92" fill="#E8D2BB" points="108.987 136.713 106.966 153.599 106.966 165.574 135.141 166.317 135.994 148.511 135.373 136.713 108.987 136.713"></polyline>
                <polyline id="Fill-93" fill="#E579A5" points="67.851 180.239 67.851 163.489 69.015 143.932 89.736 142.535 91.599 159.531 90.669 180.239 67.851 180.239"></polyline>
                <polyline id="Fill-94" fill="#E7CBAB" points="103.938 0.853 102.774 22.506 102.774 38.806 126.758 38.806 128.156 0.853 103.938 0.853"></polyline>
            </g>
            <g id="House-2" transform="translate(221.000000, 0.000000)">
                <polyline id="Fill-77" fill="#6A2C3F" points="15.44 19.83 4.73 69.19 0.539 85.964 154.677 91.785 150.952 47.133 145.132 21.692 15.44 19.83"></polyline>
                <polyline id="Fill-78" fill="#CA755B" points="0.539 85.964 0.539 152.019 2.609 180.239 151.881 180.239 154.677 91.785 0.539 85.964"></polyline>
                <polyline id="Fill-79" fill="#E8D2BB" points="65.035 180.239 63.871 158.308 66.199 137.84 94.838 136.713 94.838 180.239 65.035 180.239"></polyline>
                <path d="M18.459,133.826 L18.459,162.323 L44.949,162.323 C44.949,162.323 44.846,142.458 45.311,142.32 C45.779,142.183 45.311,133.826 45.311,133.826 L18.459,133.826" id="Fill-80" fill="#E8D2BB"></path>
                <polyline id="Fill-81" fill="#E8D2BB" points="19.314 108.621 19.314 126.568 45.132 126.568 46.478 98.765 29.559 96.84 19.935 97.388 19.314 108.621"></polyline>
                <path d="M109.972,100.099 L109.055,120.325 L109.055,129.599 L135.135,130.789 C135.135,130.789 135.909,117.486 135.909,117.073 C135.909,116.661 137.291,102.353 137.291,102.353 L109.972,100.099" id="Fill-82" fill="#E8D2BB"></path>
                <polyline id="Fill-83" fill="#E8D2BB" points="109.198 136.713 107.177 153.599 107.177 165.574 135.352 166.317 136.205 148.511 135.584 136.713 109.198 136.713"></polyline>
                <polyline id="Fill-84" fill="#4F7DA5" points="68.062 180.239 68.062 163.489 69.227 143.932 89.947 142.535 91.81 159.531 90.88 180.239 68.062 180.239"></polyline>
                <polyline id="Fill-85" fill="#E7CBAB" points="104.15 0.853 102.985 22.506 102.985 38.806 126.969 38.806 128.367 0.853 104.15 0.853"></polyline>
            </g>
            <g id="House-1" transform="translate(69.000000, 0.000000)">
                <polyline id="Fill-95" fill="#6A2C3F" points="15.796 19.83 5.086 69.19 0.896 85.964 152.538 85.964 151.308 47.133 145.488 21.692 15.796 19.83"></polyline>
                <polyline id="Fill-96" fill="#CA755B" points="0.896 85.964 0.896 152.019 2.965 180.239 154.609 180.239 152.538 85.964 0.896 85.964"></polyline>
                <polyline id="Fill-97" fill="#E8D2BB" points="65.391 180.239 64.226 158.308 66.555 137.84 95.194 136.713 95.194 180.239 65.391 180.239"></polyline>
                <path d="M18.815,133.826 L18.815,162.323 L45.306,162.323 C45.306,162.323 45.203,142.458 45.667,142.32 C46.134,142.183 45.667,133.826 45.667,133.826 L18.815,133.826" id="Fill-98" fill="#E8D2BB"></path>
                <polyline id="Fill-99" fill="#E8D2BB" points="19.671 108.621 19.671 126.568 45.489 126.568 46.834 98.765 29.916 96.84 20.291 97.388 19.671 108.621"></polyline>
                <path d="M110.329,100.099 L109.413,120.325 L109.413,129.599 L135.49,130.789 C135.49,130.789 136.265,117.486 136.265,117.073 C136.265,116.661 137.648,102.353 137.648,102.353 L110.329,100.099" id="Fill-100" fill="#E8D2BB"></path>
                <polyline id="Fill-101" fill="#E8D2BB" points="109.553 136.713 107.533 153.599 107.533 165.574 135.708 166.317 136.561 148.511 135.94 136.713 109.553 136.713"></polyline>
                <polyline id="Fill-102" fill="#D6BD40" points="68.418 180.239 68.418 163.489 69.582 143.932 90.305 142.535 92.167 159.531 91.236 180.239 68.418 180.239"></polyline>
                <polyline id="Fill-103" fill="#E7CBAB" points="104.506 0.853 103.342 22.506 103.342 38.806 127.325 38.806 128.722 0.853 104.506 0.853"></polyline>
            </g>
            <g id="Tree" transform="translate(0.000000, 68.000000)">
                <path d="M62.670402,187.089038 L51.9008329,180.342087 C51.9008329,180.342087 41.0865734,177.098588 37.6057731,171.968745 C34.125816,166.84059 32.0515019,161.016978 31.7479438,159.767011 C31.4426992,158.5162 30.1930514,151.802166 31.8128715,147.907098 C33.4301619,144.017093 35.5795224,143.5588 35.8940424,142.62449 C36.2102488,141.691024 34.9808382,131.658375 36.6099337,126.087119 C38.2356563,120.518395 41.648156,117.065583 42.5866566,116.445242 C43.5260005,115.826589 47.2800031,113.313151 51.0289464,112.043773 C54.7778898,110.778614 56.6456157,111.533152 56.6456157,111.533152 C56.6456157,111.533152 59.7157692,105.771995 63.2421032,102.517524 C66.7659076,99.2588331 72.0014427,96.9454242 72.0014427,96.9454242 L81.474987,95 C81.474987,95 86.0410077,95.3443527 90.0758016,98.6064197 C94.112282,101.864267 94.3888572,108.305689 94.3888572,108.305689 C94.3888572,108.305689 99.5139309,105.25209 105.638217,104.311028 C111.759973,103.367434 114.669915,105.918851 114.669915,105.918851 C114.669915,105.918851 120.239364,113.75372 120.544609,114.691406 C120.850697,115.628248 124.247175,121.773425 123.596212,126.879636 C122.942719,131.985847 119.464448,141.305315 119.464448,141.305315 C119.464448,141.305315 124.307887,139.437539 128.506265,141.355112 C132.7038,143.273528 133.751919,150.963228 133.751919,150.963228 C133.751919,150.963228 134.338798,157.834247 133.707228,158.766869 C133.082404,159.702023 127.110741,168.404526 127.110741,168.404526 L115.204515,178.951172 L97.696798,187.28147 L81.6512194,190 L70.2458646,189.937544 L62.670402,187.089038" id="Fill-107" fill="#629D83"></path>
                <path d="M31.7657225,179.189553 C25.0585203,177.957134 21.2273958,172.711174 12.5053272,162.04877 C3.78210717,151.38981 0.968202378,135.610601 0.968202378,135.610601 C0.968202378,135.610601 -2.7903869,123.277801 4.50342933,95.0406556 C11.7926401,66.8058061 13.4949144,61.531719 12.7045111,54.6291398 C11.9118051,47.7300048 12.2911757,28.7787656 21.440396,13.3623357 C30.591919,-2.0529461 35.8852607,-1.13279355 47.4615315,1.57255828 C59.0424077,4.27733608 51.0439639,24.5126559 51.0439639,24.5126559 C51.0439639,24.5126559 58.6492209,40.7258242 64.5827145,52.586206 C70.5167838,64.4488839 62.4544399,89.8027316 62.4544399,89.8027316 C62.4544399,89.8027316 70.998049,98.0387571 75.1947278,110.715968 C79.3931336,123.396049 74.9529438,133.690507 74.9529438,133.690507 C74.9529438,133.690507 72.2230877,146.935997 71.30546,151.923074 C70.3895593,156.906134 59.0481644,167.039292 59.0481644,167.039292 C59.0481644,167.039292 55.6263457,175.024471 50.295585,177.749914 C44.9619459,180.474208 38.4746519,180.421398 31.7657225,179.189553" id="Fill-105" fill="#195755"></path>
            </g>
            <g id="Bushes" transform="translate(450.000000, 297.000000)">
                <path d="M64.421,90.165 L54.073,83.082 C54.073,83.082 43.537,79.451 40.312,74.256 C37.087,69.063 35.276,63.24 35.029,61.997 C34.778,60.754 33.813,54.088 35.569,50.315 C37.322,46.547 39.458,46.183 39.807,45.274 C40.156,44.367 39.35,34.434 41.178,29.009 C43.007,23.589 46.513,20.325 47.463,19.751 C48.412,19.178 52.216,16.854 55.967,15.755 C59.713,14.659 61.526,15.477 61.526,15.477 C61.526,15.477 64.784,9.925 68.394,6.861 C72,3.794 77.257,1.725 77.257,1.725 L86.677,0.19 C86.677,0.19 91.166,0.712 95.015,4.091 C98.865,7.462 98.877,13.821 98.877,13.821 C98.877,13.821 104.052,11.019 110.132,10.338 C116.206,9.656 118.972,12.288 118.972,12.288 C118.972,12.288 124.15,20.232 124.415,21.167 C124.678,22.103 127.78,28.294 126.933,33.299 C126.082,38.306 122.278,47.347 122.278,47.347 C122.278,47.347 127.13,45.701 131.192,47.759 C135.256,49.818 135.978,57.438 135.978,57.438 C135.978,57.438 136.281,64.231 135.617,65.124 C134.968,66.021 128.726,74.355 128.726,74.355 L116.557,84.266 L98.955,91.768 L83.023,93.799 L71.778,93.277 L64.421,90.165" id="Fill-121" fill="#195755"></path>
                <path d="M26.231,119.754 L8.692,89.571 C8.692,89.571 -2.356,65.257 0.875,58.4 C4.103,51.545 7.702,48.815 16.343,47.921 C24.981,47.027 30.358,59.219 30.358,59.219 L34.389,48.406 C34.389,48.406 39.959,37.099 47.579,35.521 C55.194,33.942 58.344,34.189 64.117,38.782 C69.891,43.372 63.249,58.648 63.249,58.648 C63.249,58.648 70.675,45.236 79.057,45.899 C87.438,46.562 87.877,51.137 91.446,59.206 C95.012,67.277 92.967,72.035 85.432,82.685 C77.896,93.336 61.402,119.754 61.402,119.754 L26.231,119.754" id="Fill-122" fill="#272931"></path>
            </g>
            <g id="Dog" transform="translate(479.000000, 181.000000)">
                <path d="M95,7.34552072 L81.4707171,4.56135851 L71.5899264,1 L64.0046548,3.67881797 L60.2986848,9.12642604 L55.9757266,18.3442726 L40.5281226,18.3564799 L23.7634689,17.9152096 C23.7634689,17.9152096 16.343446,18.0865635 13.0312886,16.2048352 L13.0420657,17.5611987 L10.9046105,17.9658472 L11.3038117,20.2680482 L9.32891088,20.8779597 C11.0307922,22.643945 13.045658,23.8077049 14.8687816,24.5717897 L12.2746474,35.2540567 L7.68271117,41.5091532 L0.000445827238,41.5299508 C0.000445827238,41.5299508 -0.185458887,46.3088716 7.03518798,46.1262147 L17.7601836,40.4023606 C24.8541997,45.3187263 28.1281883,48.7435442 28.1281883,48.7435442 L27.9198313,56.4761727 C27.9198313,56.4761727 32.6586054,56.8053169 32.6927328,49.5329477 L29.5525597,40.2834527 L35.1768509,41.8798926 C35.1768509,41.8798926 47.4039027,46.291691 54.8400913,41.8798926 C55.6474746,42.4106828 56.4220775,42.9184149 57.1674926,43.4062537 C55.5154553,45.6650511 54.6528394,46.8645286 54.6528394,46.8645286 L46.9871888,46.3545359 C46.9871888,46.3545359 46.4761753,51.1090422 53.6918827,51.4259791 L63.2376856,47.358697 C67.1874872,49.9158944 69.3191048,51.2636676 69.3191048,51.2636676 L69.3191048,58.999461 C69.3191048,58.999461 74.0650636,59.1988464 73.9029583,51.9282857 L69.1296077,42.3794865 C69.1296077,42.3794865 72.2657394,35.1487125 72.568845,32.2971842 C72.8723995,29.4452039 71.546369,20.2938191 71.546369,20.2938191 L72.6366508,18.8877222 C72.6366508,18.8877222 79.6386126,18.0915369 82.7971966,17.4337005 C87.1973905,16.5172509 93.3497589,12.20085 93.3497589,12.20085 L91.2841509,8.87278606 L95,7.34552072" id="Fill-108" fill="#CB6937"></path>
                <path d="M95.8622628,7 C95.8622628,7 96.6258474,9.55470714 94.5572614,11.6522023 C94.4429104,11.7676692 94.3047558,11.8849986 94.1469981,12 L92,8.57277214 L95.8622628,7" id="Fill-109" fill="#272931"></path>
                <path d="M12.8598786,15.4634548 C12.9026935,15.4893483 12.9455084,15.5152419 12.9896206,15.5394092 L13,16.8340853 L10.9414269,17.2203303 L11.3258957,19.4178273 L9.42387803,20 C9.09952303,19.6689945 8.78943965,19.3138216 8.49233047,18.9357762 C4.35442564,13.6500451 5.04292318,9 5.04292318,9 C5.04292318,9 9.46150321,13.4420338 12.8598786,15.4634548" id="Fill-110" fill="#272931"></path>
                <path d="M81,7.00018021 C81,7.55235178 80.3290683,8 79.4997297,8 C78.672013,8 78,7.55235178 78,7.00018021 C78,6.44764822 78.672013,6 79.4997297,6 C80.3290683,6 81,6.44764822 81,7.00018021" id="Fill-111" fill="#272931"></path>
                <polyline id="Fill-112" fill="#CDBC4B" points="57.6769631 14 62.7415756 16.5474835 73 18.541011 72.6754689 22 68.3645919 21.8093963 63.860135 21.0389465 59.7494075 19.5641111 56 17.5862069 57.6769631 14"></polyline>
                <path d="M74,6.71403119 C74,6.71403119 63.0517674,10.5138726 58.8745366,10.9329139 C54.6982184,11.3519551 52.6004764,9.67089676 52.6004764,9.67089676 C52.6004764,9.67089676 50.2225488,7.94446449 50.0267839,5.10726145 C49.831019,2.27005841 50.703519,1.53339986 52.8049116,0.448874767 C54.9053915,-0.636984848 59.2286475,0.588555193 59.2286475,0.588555193 L69.5968866,1.66596281 L74,6.71403119" id="Fill-113" fill="#272931"></path>
            </g>
            <g id="Bunting" transform="translate(77.000000, 86.000000)">
                <g id="Group">
                    <path d="M60,12 C62.0956935,17.0038211 63.6676835,23.6174739 66.8960893,28 C68.1000357,26.992461 72.8120483,18.7251885 74.9451178,15.135805 C75.5492896,14.119591 75.9476736,13.4780543 76,13.4830115 C75.9982411,13.4830115 60,12 60,12" id="Fill-1" fill="#FFD900"></path>
                    <path d="M90,13.9430451 C90.6392862,13.9115452 93.1692179,20.7499647 93.5658163,21.4559826 C95.1365956,24.2523342 97.1833821,26.8130665 99.6107068,29 C101.794005,24.1557345 105.149254,18.4794515 106,13.2790271 C101.143566,12.4541495 95.0005298,13.6969258 90,13.9430451" id="Fill-3" fill="#B1223B"></path>
                    <path d="M30,6 C30.6002573,6.13196754 31.0808918,13.456166 31.2558239,14.2471199 C31.9469773,17.3785819 32.714449,19.2448583 34.367729,22 C37.7094469,17.8242916 42.7957696,14.2909671 45,9.42817613 C40.7274546,7.38480777 34.698728,7.03317813 30,6" id="Fill-7" fill="#5286BD"></path>
                    <path d="M0,0 C0.868802399,0.236848852 0.745322303,5.22572682 0.807950697,5.95132545 C1.08244961,9.14015214 1.58791849,12.1062966 3.03814336,15.0064776 C3.26822497,15.4677795 3.6066848,15.9804355 4.12325801,15.999472 C4.53278552,16.014524 4.87346622,15.7050711 5.16351119,15.4164254 C7.50252623,13.0904368 16,6.77343445 16,3.08346215 C10.5584365,1.65749925 4.82682805,1.23736924 0,0" id="Fill-9" fill="#FFD900"></path>
                    <path d="M119,10.7982072 C119,10.7982072 129.080052,25.0724293 130.101711,23.9355207 C131.1238,22.7990565 133,6 133,6 L119,10.7982072 Z" id="Fill-15" fill="#00B1DD"></path>
                </g>
            </g>
            <g id="Bunting" transform="translate(232.000000, 90.000000)">
                <g id="Group">
                    <path d="M60,12 C62.0956935,17.0038211 63.6676835,23.6174739 66.8960893,28 C68.1000357,26.992461 72.8120483,18.7251885 74.9451178,15.135805 C75.5492896,14.119591 75.9476736,13.4780543 76,13.4830115 C75.9982411,13.4830115 60,12 60,12" id="Fill-1" fill="#FFD900"></path>
                    <path d="M90,13.9430451 C90.6392862,13.9115452 93.1692179,20.7499647 93.5658163,21.4559826 C95.1365956,24.2523342 97.1833821,26.8130665 99.6107068,29 C101.794005,24.1557345 105.149254,18.4794515 106,13.2790271 C101.143566,12.4541495 95.0005298,13.6969258 90,13.9430451" id="Fill-3" fill="#B1223B"></path>
                    <path d="M30,6 C30.6002573,6.13196754 31.0808918,13.456166 31.2558239,14.2471199 C31.9469773,17.3785819 32.714449,19.2448583 34.367729,22 C37.7094469,17.8242916 42.7957696,14.2909671 45,9.42817613 C40.7274546,7.38480777 34.698728,7.03317813 30,6" id="Fill-7" fill="#5286BD"></path>
                    <path d="M0,0 C0.868802399,0.236848852 0.745322303,5.22572682 0.807950697,5.95132545 C1.08244961,9.14015214 1.58791849,12.1062966 3.03814336,15.0064776 C3.26822497,15.4677795 3.6066848,15.9804355 4.12325801,15.999472 C4.53278552,16.014524 4.87346622,15.7050711 5.16351119,15.4164254 C7.50252623,13.0904368 16,6.77343445 16,3.08346215 C10.5584365,1.65749925 4.82682805,1.23736924 0,0" id="Fill-9" fill="#FFD900"></path>
                    <path d="M119,10.7982072 C119,10.7982072 129.080052,25.0724293 130.101711,23.9355207 C131.1238,22.7990565 133,6 133,6 L119,10.7982072 Z" id="Fill-15" fill="#00B1DD"></path>
                </g>
            </g>
            <g id="Bunting" transform="translate(389.000000, 95.000000)">
                <g id="Group">
                    <path d="M60,12 C62.0956935,17.0038211 63.6676835,23.6174739 66.8960893,28 C68.1000357,26.992461 72.8120483,18.7251885 74.9451178,15.135805 C75.5492896,14.119591 75.9476736,13.4780543 76,13.4830115 C75.9982411,13.4830115 60,12 60,12" id="Fill-1" fill="#FFD900"></path>
                    <path d="M90,13.9430451 C90.6392862,13.9115452 93.1692179,20.7499647 93.5658163,21.4559826 C95.1365956,24.2523342 97.1833821,26.8130665 99.6107068,29 C101.794005,24.1557345 105.149254,18.4794515 106,13.2790271 C101.143566,12.4541495 95.0005298,13.6969258 90,13.9430451" id="Fill-3" fill="#B1223B"></path>
                    <path d="M30,6 C30.6002573,6.13196754 31.0808918,13.456166 31.2558239,14.2471199 C31.9469773,17.3785819 32.714449,19.2448583 34.367729,22 C37.7094469,17.8242916 42.7957696,14.2909671 45,9.42817613 C40.7274546,7.38480777 34.698728,7.03317813 30,6" id="Fill-7" fill="#5286BD"></path>
                    <path d="M0,0 C0.868802399,0.236848852 0.745322303,5.22572682 0.807950697,5.95132545 C1.08244961,9.14015214 1.58791849,12.1062966 3.03814336,15.0064776 C3.26822497,15.4677795 3.6066848,15.9804355 4.12325801,15.999472 C4.53278552,16.014524 4.87346622,15.7050711 5.16351119,15.4164254 C7.50252623,13.0904368 16,6.77343445 16,3.08346215 C10.5584365,1.65749925 4.82682805,1.23736924 0,0" id="Fill-9" fill="#FFD900"></path>
                    <path d="M119,10.7982072 C119,10.7982072 129.080052,25.0724293 130.101711,23.9355207 C131.1238,22.7990565 133,6 133,6 L119,10.7982072 Z" id="Fill-15" fill="#00B1DD"></path>
                </g>
            </g>
            <g id="Page-1" transform="translate(126.000000, 13.000000)">
                <g id="Group-178">
                    <path d="M105.279895,184.31047 C105.092988,185.295843 104.792842,186.259333 104.380066,187.171761 C102.857418,190.541239 100.063564,193.057862 97.2952804,195.407318 C96.2469003,196.297254 91.2515697,201.215611 89.7764099,199.99438 C85.524443,196.475363 82.337903,189.830627 81.9391289,184.385239 C81.6846441,180.91546 82.5862997,177.288241 84.8212612,174.619648 C89.5602804,168.958462 99.6185201,169.197359 103.664707,175.437854 C105.34382,178.028031 105.854617,181.272894 105.279895,184.31047" id="Fill-1" fill="#B1223B"></path>
                    <path d="M90.9620171,198.034089 C91.2079785,199.427957 91.2061521,200.927597 91.3066066,202.351252 C91.3224358,202.571912 91.3236534,202.82783 91.1537939,202.968858 C90.9711493,203.120828 90.6990088,203.053961 90.4743559,202.979192 C89.8484937,202.771297 86.4342567,202.11661 86.7758022,201.179259 C86.8634716,200.937323 87.083254,200.773803 87.2914689,200.623657 C88.4902264,199.761075 89.6816782,198.748955 90.9620171,198.034089" id="Fill-3" fill="#B1223B"></path>
                    <path d="M88.659051,199.268875 C89.4876488,199.046391 90.4057424,199.178301 91.1387562,199.624485 C90.1086405,199.354586 88.9683292,199.535126 88.0727617,200.111397 C88.9665028,200.18495 89.9205165,200.282211 90.6157837,200.848147 C91.0681336,201.215914 91.360365,201.748417 91.5466625,202.300372 C92.3289904,204.616395 91.3688884,207.170706 90.0240152,209.212575 C88.6797507,211.254444 86.9373209,213.047689 85.8871143,215.254901 C84.7528912,217.64083 84.5075386,220.337993 84.321241,222.971937 C84.0119628,227.340162 83.8165331,231.715682 83.7361694,236.094241" id="Stroke-5" stroke="#4F87BB"></path>
                    <path d="M88.7363096,169.747186 C88.6778634,172.457723 87.8407421,175.182849 86.54153,177.584582 C85.8359129,178.889701 78.6184061,189.267427 76.9021554,188.382961 C73.1335879,186.440785 70.0633317,182.293828 67.6560755,178.924958 C67.2871333,178.408868 66.9261058,177.883659 66.6399625,177.318331 C65.5593152,175.182849 65.5654033,172.584162 65.4497284,170.24808 C65.1769791,164.763787 67.5385741,161.489138 72.6300975,159.678871 C75.2522656,158.746383 78.1088275,157.834564 80.7644804,158.667967 C85.2179653,160.066699 88.8355466,165.155262 88.7363096,169.747186" id="Fill-7" fill="#FFD900"></path>
                    <path d="M76.6964975,186.753904 C75.8855554,187.914955 75.2560402,189.275998 74.5644259,190.525799 C74.4572744,190.719105 74.3482964,190.951315 74.4426628,191.150699 C74.544335,191.365281 74.8195196,191.418774 75.0551311,191.445521 C75.7102165,191.519683 79.083054,192.36038 79.168897,191.365889 C79.1908143,191.110579 79.0605278,190.869859 78.9351118,190.645551 C78.2106215,189.359277 77.5567537,187.941093 76.6964975,186.753904" id="Fill-9" fill="#FFD900"></path>
                    <path d="M75.9315818,188.103215 C76.4941273,187.848513 77.4371824,187.689857 77.8621355,188.227223 C77.4475322,188.535418 76.4667306,188.197436 75.9315818,188.103215 C78.0709592,188.480101 81.2623697,191.904896 81.1333008,194.092048 C81.0973807,194.706007 80.8629868,195.292003 80.5902375,195.843958 C79.4012209,198.255418 77.4816259,200.212183 75.7294551,202.252228 C73.5845983,204.750615 71.7825047,207.569962 71.5091466,210.931538 C71.415389,212.084686 71.5316727,213.253031 71.7228408,214.384904 C72.8028793,220.776761 76.2524275,225.675057 80.4952623,228.697436" id="Stroke-11" stroke="#4F87BB"></path>
                    <g id="Group-15">
                        <mask id="mask-2" fill="white">
                            <use xlink:href="#path-1"></use>
                        </mask>
                        <g id="Clip-14"></g>
                        <path d="M-18.0189275,-2.9438409 C-18.6380928,4.94461689 -20.9461121,14.6463805 -19.7540515,22.3980653 C-16.9961176,21.6224105 0.660747383,8.52502964 0.943237741,8.69827542 C0.940802479,8.69645178 -18.0189275,-2.9438409 -18.0189275,-2.9438409" id="Fill-13" fill="#B1223B" mask="url(#mask-2)"></path>
                    </g>
                    <path d="M141.438721,258.166726 C141.438721,258.166726 145.583537,290.630553 145.293132,292.688835 C145.002727,294.747724 149.656512,294.127078 151.131063,294.127078 C152.606223,294.127078 154.611661,251.775476 154.611661,251.775476 L141.438721,258.166726 Z" id="Fill-16" fill="#9C595A"></path>
                    <path d="M166.19681,257.605713 C166.19681,257.605713 162.746653,291.238494 163.037058,293.296775 C163.326854,295.355665 158.624363,295.98786 157.149204,295.98786 C155.674044,295.98786 153.02387,251.214464 153.02387,251.214464 L166.19681,257.605713 Z" id="Fill-18" fill="#9C595A"></path>
                    <path d="M146.425772,201.031362 C146.425772,201.031362 138.801577,200.25206 138.801577,192.545966 C138.801577,184.84048 141.648398,180.60842 143.437097,178.638281 C144.524442,177.440758 153.711466,174.657884 158.254447,177.342281 C162.797428,180.026679 164.33286,185.766281 164.839395,187.524878 C165.345929,189.283475 166.027194,198.162169 160.681185,200.013771 C158.933885,200.618612 150.155984,201.578454 146.425772,201.031362" id="Fill-20" fill="#32313E"></path>
                    <path d="M162.103622,190.264654 C162.103622,195.648646 157.731718,200.013832 152.33944,200.013832 C146.946553,200.013832 142.575258,195.648646 142.575258,190.264654 C142.575258,184.880661 146.946553,180.516083 152.33944,180.516083 C157.731718,180.516083 162.103622,184.880661 162.103622,190.264654" id="Fill-22" fill="#9C595A"></path>
                    <polygon id="Fill-24" fill="#9C595A" points="147.728394 194.930011 157.046923 194.230341 159.035314 207.761748 145.836804 207.761748"></polygon>
                    <path d="M148.687704,191.571231 C148.687704,192.109812 148.250575,192.54627 147.711164,192.54627 C147.172363,192.54627 146.734624,192.109812 146.734624,191.571231 C146.734624,191.032649 147.172363,190.596191 147.711164,190.596191 C148.250575,190.596191 148.687704,191.032649 148.687704,191.571231" id="Fill-26" fill="#32313E"></path>
                    <path d="M157.767943,191.571231 C157.767943,192.109812 157.330813,192.54627 156.791403,192.54627 C156.252601,192.54627 155.814863,192.109812 155.814863,191.571231 C155.814863,191.032649 156.252601,190.596191 156.791403,190.596191 C157.330813,190.596191 157.767943,191.032649 157.767943,191.571231" id="Fill-28" fill="#32313E"></path>
                    <path d="M151.131307,196.322056 L154.261836,196.322056 C154.261836,196.322056 152.435389,198.282468 151.131307,196.322056" id="Fill-30" fill="#EACDB0"></path>
                    <path d="M144.454245,191.119454 C144.697771,192.306036 144.188193,193.412985 143.314543,193.591702 C142.441501,193.770419 141.536802,192.953428 141.293275,191.766239 C141.04914,190.579049 141.559937,189.472708 142.432369,189.293991 C143.30541,189.115274 144.210719,189.932873 144.454245,191.119454" id="Fill-32" fill="#9C595A"></path>
                    <path d="M160.048017,191.247717 C159.804491,192.434299 160.314679,193.541248 161.18772,193.719965 C162.060761,193.898681 162.96607,193.081691 163.209596,191.894501 C163.453122,190.707312 162.942935,189.60097 162.069893,189.422254 C161.196852,189.243537 160.291544,190.061135 160.048017,191.247717" id="Fill-34" fill="#9C595A"></path>
                    <path d="M143.344496,181.970983 C143.344496,181.970983 139.027995,190.168244 142.432491,189.294113 C145.836987,188.419373 148.064034,185.139253 148.064034,185.139253 C148.064034,185.139253 159.201703,189.42967 163.170571,189.42967 C167.139439,189.42967 159.427574,178.360784 154.630717,179.286585 C149.83386,180.211779 143.344496,181.970983 143.344496,181.970983" id="Fill-36" fill="#32313E"></path>
                    <path d="M137.540842,237.092197 L168.494844,238.90368 C168.494844,238.90368 172.410745,264.807267 171.895079,266.547627 C171.380021,268.287987 137.800197,268.29285 136.265982,268.29285 C134.731767,268.29285 137.540842,237.092197 137.540842,237.092197" id="Fill-38" fill="#C39C6D"></path>
                    <path d="M145.293132,292.688835 C145.293132,292.688835 138.801333,299.176129 138.62295,302.257472 C138.445176,305.321795 143.982352,306.812317 146.555815,304.825157 C149.129278,302.83739 151.131063,294.127078 151.131063,294.127078 L145.293132,292.688835 Z" id="Fill-40" fill="#32313E"></path>
                    <path d="M156.439081,293.296714 C156.439081,293.296714 151.240406,299.282508 150.574362,301.668437 C149.648354,304.986245 155.933156,306.223889 158.507227,304.236122 C161.081299,302.248962 163.036814,293.296714 163.036814,293.296714 L156.439081,293.296714 Z" id="Fill-42" fill="#32313E"></path>
                    <path d="M174.107514,220.888368 C173.714219,222.146071 173.169938,223.34785 172.486238,224.442034 C171.748354,225.62436 170.524026,226.454724 169.797101,227.570792 C168.788293,229.118454 168.981897,229.891677 169.110357,231.866679 C169.176718,232.871505 170.01323,238.824473 168.494236,239.2354 C163.836189,240.486417 139.231522,239.786747 137.540842,237.091407 C137.391682,236.856158 137.682696,232.619235 138.001106,228.593246 C136.906456,227.836435 135.802674,226.973854 134.676974,225.910064 C134.223406,225.482116 133.762533,225.045051 133.456299,224.521666 C131.673687,221.441538 131.655423,215.96454 133.088574,212.837606 C135.585326,207.392218 139.375811,204.030034 145.091371,202.615497 C147.955847,201.906709 149.56312,205.865831 152.444643,205.514477 C154.308836,205.287129 155.391919,203.353463 157.377875,203.154687 C163.750346,202.515805 171.211379,202.118251 173.03539,209.102184 C173.880426,212.337929 175.319665,217.007662 174.107514,220.888368" id="Fill-44" fill="#0F6162"></path>
                    <path d="M145.816348,219.35262 C145.791995,215.816582 148.642469,218.537453 149.391312,220.192102 C150.623555,222.915404 150.767844,220.776883 150.767844,220.776883 C150.767844,220.776883 151.234196,219.387269 151.944075,220.441941 C152.58394,221.391449 153.614665,225.113498 153.614665,225.113498 L148.264395,228.558353 C148.264395,228.558353 145.830351,221.382939 145.816348,219.35262" id="Fill-46" fill="#9C595A"></path>
                    <path d="M162.874747,221.224343 C162.578863,217.699855 159.985918,220.666917 159.389888,222.382354 C158.409086,225.206564 158.071802,223.088711 158.071802,223.088711 C158.071802,223.088711 157.482469,221.746512 156.87061,222.861364 C156.319023,223.866189 155.629235,227.664831 155.629235,227.664831 L161.269301,230.612441 C161.269301,230.612441 163.044607,223.246759 162.874747,221.224343" id="Fill-48" fill="#9C595A"></path>
                    <path d="M192.177582,299.066224 C192.177582,299.066224 185.685783,305.552911 185.5074,308.634862 C185.329626,311.699185 190.866802,313.189099 193.439656,311.202547 C196.014337,309.21478 198.016122,300.50386 198.016122,300.50386 L192.177582,299.066224 Z" id="Fill-50" fill="#C39C6D"></path>
                    <path d="M205.915198,300.059986 C205.915198,300.059986 200.511352,306.281638 199.81852,308.762395 C198.855983,312.210898 205.390399,313.497172 208.064925,311.431596 C210.741277,309.36602 212.578074,301.560234 212.578074,301.560234 L205.915198,300.059986 Z" id="Fill-52" fill="#C39C6D"></path>
                    <path d="M210.283874,199.557983 C210.283874,205.450163 205.50102,210.226883 199.598555,210.226883 C193.698525,210.226883 188.913235,205.450163 188.913235,199.557983 C188.913235,193.666411 193.698525,188.88969 199.598555,188.88969 C205.50102,188.88969 210.283874,193.666411 210.283874,199.557983" id="Fill-54" fill="#E99077"></path>
                    <polygon id="Fill-56" fill="#E99077" points="194.552814 204.663202 204.749864 203.897273 206.92577 218.017716 193.170194 218.017716"></polygon>
                    <path d="M195.602777,200.98802 C195.602777,201.577056 195.124857,202.05485 194.534306,202.05485 C193.943755,202.05485 193.465835,201.577056 193.465835,200.98802 C193.465835,200.398377 193.943755,199.920583 194.534306,199.920583 C195.124857,199.920583 195.602777,200.398377 195.602777,200.98802" id="Fill-58" fill="#32313E"></path>
                    <path d="M205.539437,200.98802 C205.539437,201.577056 205.061517,202.05485 204.470966,202.05485 C203.880415,202.05485 203.401886,201.577056 203.401886,200.98802 C203.401886,200.398377 203.880415,199.920583 204.470966,199.920583 C205.061517,199.920583 205.539437,200.398377 205.539437,200.98802" id="Fill-60" fill="#32313E"></path>
                    <path d="M198.276451,206.187035 L201.702256,206.187035 C201.702256,206.187035 199.704732,208.331635 198.276451,206.187035" id="Fill-62" fill="#AF2243"></path>
                    <path d="M190.970057,200.49351 C191.23611,201.792549 190.678435,203.004054 189.722594,203.199183 C188.767972,203.394313 187.777429,202.500122 187.510159,201.201082 C187.244716,199.902651 187.802999,198.691146 188.757622,198.496017 C189.713462,198.300279 190.704005,199.194471 190.970057,200.49351" id="Fill-64" fill="#E99077"></path>
                    <path d="M208.034728,200.633626 C207.768675,201.932666 208.32635,203.14417 209.28219,203.3393 C210.236813,203.535037 211.227356,202.640846 211.495234,201.341806 C211.760678,200.042767 211.202394,198.831262 210.247772,198.636133 C209.291323,198.441003 208.30078,199.334587 208.034728,200.633626" id="Fill-66" fill="#E99077"></path>
                    <path d="M190.911185,196.529829 C190.911185,196.529829 192.349816,191.428501 193.465774,190.821229 C194.581733,190.213349 196.389306,192.781641 197.505265,193.187097 C198.621832,193.591945 207.464876,195.182767 208.462725,195.314069 C209.461182,195.445371 208.462725,202.05485 209.28219,203.3393 C210.101656,204.624358 211.303458,197.095765 211.303458,196.458099 C211.303458,195.820433 210.779876,189.13497 209.172604,187.818302 C208.031075,186.882167 201.831507,184.017836 200.345998,184.143668 C198.862923,184.268891 192.483146,184.576478 190.302369,187.007998 C189.154752,188.286369 187.664372,195.193709 187.766044,195.962677 C187.867717,196.732253 189.022639,203.897334 189.83419,203.897334 C190.64635,203.897334 190.911185,196.529829 190.911185,196.529829" id="Fill-68" fill="#994C24"></path>
                    <path d="M184.841478,246.596218 C184.841478,246.596218 189.659643,297.607069 189.298007,300.659235 C188.936979,303.7114 196.427844,304.09254 197.726447,302.791069 C199.330067,301.185051 202.069128,239.998289 202.069128,239.998289 L184.841478,246.596218 Z" id="Fill-70" fill="#1A3C68"></path>
                    <path d="M215.956451,250.741594 C215.956451,250.741594 212.216498,298.508191 212.578134,301.560356 C212.940988,304.612521 205.929261,304.316483 203.60176,302.921399 C202.024319,301.975538 200.088286,239.166344 200.088286,239.166344 L215.956451,250.741594 Z" id="Fill-72" fill="#1A3C68"></path>
                    <path d="M219.079613,237.839525 C218.078112,239.024283 217.080264,239.921514 216.103724,240.591397 C216.606605,246.635547 216.906142,252.817078 215.796272,253.152628 C211.136399,254.562302 186.532341,253.775097 184.842269,250.741776 C184.701633,250.490722 184.718071,246.244073 184.758861,241.977971 C183.748837,241.298362 182.70898,240.379247 181.67095,239.14829 C178.527636,235.426242 180.419225,225.922647 180.965333,221.455945 C181.164415,219.830474 181.435947,218.127803 182.351605,216.862805 C183.678823,215.028223 185.529622,212.912193 187.773107,212.30796 C188.332608,212.157206 194.166277,211.222895 194.500517,211.65145 C194.500517,211.65145 197.707757,215.768621 200.686691,215.768621 C203.666233,215.768621 205.727074,211.422279 205.727074,211.422279 C208.735839,211.506167 213.100437,210.763337 215.637371,212.612508 C218.212052,214.489641 219.410809,217.079818 219.785231,220.147788 C220.331338,224.612666 222.223536,234.117476 219.079613,237.839525" id="Fill-74" fill="#AF2243"></path>
                    <path d="M195.023063,232.373955 C195.078466,228.838525 197.86684,231.622615 198.578545,233.293677 C199.749906,236.043726 199.941074,233.908852 199.941074,233.908852 C199.941074,233.908852 200.439085,232.529572 201.124612,233.600657 C201.743168,234.564754 202.690485,238.308079 202.690485,238.308079 L197.264722,241.631966 C197.264722,241.631966 194.990796,234.404274 195.023063,232.373955" id="Fill-76" fill="#E99077"></path>
                    <path d="M212.172176,234.093708 C212.239755,230.557671 209.356405,233.243892 208.586862,234.888815 C207.321135,237.597528 207.204242,235.456575 207.204242,235.456575 C207.204242,235.456575 206.755545,234.060883 206.031055,235.107652 C205.38084,236.050474 204.303237,239.757933 204.303237,239.757933 L209.61089,243.26844 C209.61089,243.26844 212.13443,236.123419 212.172176,234.093708" id="Fill-78" fill="#E99077"></path>
                    <path d="M31.2889121,304.364992 C31.2889121,304.364992 31.7966642,305.715701 37.1658074,307.068842 C42.6147055,308.442651 49.1345099,307.487063 47.1272455,304.449487 C46.0417275,302.806996 39.2077744,301.7736 39.2077744,301.7736 L31.2889121,304.364992 Z" id="Fill-80" fill="#63A48D"></path>
                    <path d="M43.7627488,249.562003 C43.7627488,249.562003 49.6244237,250.982011 50.2381096,253.308975 C50.8517956,255.635939 44.1548259,254.178243 41.4918672,254.477928 C38.8289085,254.777005 41.673903,249.030716 41.673903,249.030716 L43.7627488,249.562003 Z" id="Fill-82" fill="#DB775D"></path>
                    <polygon id="Fill-84" fill="#32313E" points="43.9866102 279.943538 41.0545551 283.065001 27.2545358 281.803042 15.1068416 281.772041 14.9369821 274.258645 28.0806983 278.605594"></polygon>
                    <polygon id="Fill-86" fill="#32313E" points="15.107146 281.771919 15.107146 289.485307 15.3019669 302.694538 15.5759339 309.347176 18.3253444 309.261465 18.3253444 296.352527 17.9277879 285.639859 17.7366198 280.300242"></polygon>
                    <polygon id="Fill-88" fill="#32313E" points="41.054616 283.06488 39.580065 290.912609 38.5834342 302.800309 39.8193295 310.175716 36.0075361 310.175716 36.0075361 300.187641 37.4364259 286.45381 38.531076 281.771919"></polygon>
                    <path d="M36.1576091,267.048034 C36.1576091,267.048034 45.7708047,270.883148 47.3786862,271.239974 C48.985959,271.596191 52.7374796,278.531493 53.2732372,282.555051 C53.8089948,286.579216 54.3453612,297.682143 54.702127,300.691756 C55.0595017,303.701977 54.702127,300.691756 54.702127,300.691756 L51.1947413,302.095959 L46.3230003,300.358638 L46.3230003,286.936041 L50.565835,306.176049 L46.4057992,308.160777 L40.0327193,308.060477 L39.6497744,287.906218 L38.5307716,280.300424 C38.5307716,280.300424 26.9736284,280.620777 24.6716972,280.300424 C22.3691573,279.979463 16.0246917,278.582555 15.1072069,275.876882 C13.4767992,271.069159 16.0319975,263.960612 16.0319975,263.960612 L32.5515953,267.048034 L36.1576091,267.048034 Z" id="Fill-90" fill="#1A3C68"></path>
                    <polygon id="Fill-92" fill="#EACDB0" points="26.7700405 269.404176 42.9578339 259.186323 55.0373408 262.099283 40.4896961 274.562038"></polygon>
                    <path d="M57.777132,251.017024 C57.777132,251.017024 60.1642972,254.210218 60.3207628,254.75731 C60.4778372,255.305617 59.3551815,257.126218 58.779851,257.70188 C58.2051292,258.27815 54.2874019,254.672814 54.0523992,254.480116 C53.8173964,254.288026 53.2688537,256.087959 52.9559226,256.323208 C52.6417738,256.556634 51.3102945,256.087959 51.3882229,255.618068 C51.4667601,255.148784 51.8588372,253.114818 51.8588372,253.114818 L56.4815727,249.985452 L57.777132,251.017024 Z" id="Fill-94" fill="#F19F90"></path>
                    <polygon id="Fill-96" fill="#AF2243" points="18.523392 210.826314 18.9647832 216.734299 24.7832322 220.453308 29.4157088 221.326832 27.6604939 215.752573"></polygon>
                    <path d="M13.2340036,205.320928 C11.5621964,207.931164 12.8534939,210.539577 14.8205766,211.795457 C16.7876592,213.052552 18.6853369,212.480537 20.3577529,209.870909 C22.0295601,207.26128 21.7902956,204.127051 19.8232129,202.871171 C17.8561303,201.614076 14.9064196,202.711299 13.2340036,205.320928" id="Fill-98" fill="#AF2243"></path>
                    <path d="M18.2071124,211.094024 L19.6311317,204.850489 L25.0398479,199.065296 L28.6129857,198.61972 L36.1714292,201.290137 L39.9953989,202.105911 L41.6732942,206.5562 L42.0069251,208.235165 L37.7780931,209.078294 L35.0554705,209.078294 L35.1534898,211.747495 L31.1115642,214.185093 C31.1115642,214.185093 27.1633961,210.747532 27.7831702,217.312028 L18.2071124,211.094024 Z" id="Fill-100" fill="#AF2243"></path>
                    <path d="M39.303054,208.486766 C39.303054,208.486766 39.303054,210.934091 41.8180705,216.521115 C41.8180705,216.521115 42.8250512,218.124095 40.1931421,218.643832 C40.1931421,218.643832 40.3362138,219.290616 40.0567675,220.279637 C40.0019741,220.475982 38.6248336,219.804275 38.0482854,219.747742 C37.620897,219.705798 38.6230072,220.942834 39.1453708,221.334308 C39.5794562,221.658916 37.4339906,223.393806 35.2842634,223.046098 L38.8549658,228.523096 C38.8549658,228.523096 35.9710072,229.608162 30.5415912,229.413033 C30.5415912,229.413033 26.4734865,228.062931 25.5541752,225.290391 C25.5541752,225.290391 29.793357,223.437573 28.213481,218.540492 C26.2275251,212.383884 30.1190733,212.630076 31.1114424,214.185033 C31.1114424,214.185033 34.734503,212.011254 34.8757482,209.711036 C35.0157758,207.410211 39.303054,208.486766 39.303054,208.486766" id="Fill-102" fill="#F19F90"></path>
                    <path d="M36.7248424,214.613649 C36.7248424,215.124268 37.1394457,215.538234 37.6508507,215.538234 C38.1616468,215.538234 38.576859,215.124268 38.576859,214.613649 C38.576859,214.10303 38.1616468,213.689063 37.6508507,213.689063 C37.1394457,213.689063 36.7248424,214.10303 36.7248424,214.613649" id="Fill-104" fill="#32313E"></path>
                    <polygon id="Fill-106" fill="#83C499" points="44.9263168 251.779245 43.6849421 267.150097 15.2106446 266.330067 18.5232094 242.567433 22.3636171 229.436011 42.0868017 233.055328"></polygon>
                    <path d="M34.275578,266.519117 C35.697162,266.860138 36.8758287,268.19565 37.4030628,268.279538 C39.9046854,268.677091 40.3028507,266.235238 39.6203686,265.610945 C39.058432,265.096678 38.5640738,264.444423 38.3126331,264.277256 C37.8864623,263.993376 37.3178287,263.595215 36.8344292,263.368476 C36.1610793,263.052378 34.6737433,262.885819 34.6737433,262.885819 L31.7739554,265.951358 C31.7739554,265.951358 32.8546028,266.178705 34.275578,266.519117" id="Fill-108" fill="#F19F90"></path>
                    <path d="M25.5544796,225.290148 C25.5544796,225.290148 18.5232702,226.797082 16.2615209,234.807116 C15.3836091,237.915814 15.4274438,252.319529 18.207295,254.434951 C20.9865375,256.550981 29.824711,263.866816 29.824711,263.866816 L35.6912565,259.790981 C35.6912565,259.790981 25.8333171,251.150576 25.5544796,250.238756 C25.2756421,249.326328 22.6632152,237.819161 23.9691242,236.548692 C25.2756421,235.277615 35.016689,235.277615 36.7250251,235.459979 C38.4321435,235.642343 39.8945182,249.233322 39.8945182,249.233322 L48.4824686,254.982651 L55.609262,251.779123 L48.4824686,241.845758 C48.4824686,241.845758 43.2381325,228.975116 41.1657248,227.798868 C36.7469424,225.290148 25.5544796,225.290148 25.5544796,225.290148" id="Fill-110" fill="#83C499"></path>
                    <polygon id="Fill-112" fill="#32313E" points="39.6541579 241.409665 55.9758906 241.409665 68.5442763 241.409665 70.4212543 262.021657 67.173224 318.347203 55.0377061 317.20986 41.1938521 313.797222 40.8139512 271.951376"></polygon>
                    <polygon id="Fill-114" fill="#32313E" points="40.6303934 269.2795 26.7701014 269.2795 27.5286854 280.167845 28.529578 300.080168 28.2884871 316.136708 56.7560876 316.136708"></polygon>
                    <polygon id="Fill-116" fill="#32313E" points="39.6541579 241.409665 68.713527 226.587728 88.7813011 227.232081 69.5780449 243.671586"></polygon>
                    <polygon id="Fill-118" fill="#32313E" points="67.1733457 318.347446 90.4240069 301.782718 88.7558526 227.259071 62.8294477 244.527724"></polygon>
                    <path d="M115.061367,251.450929 C115.061367,251.450929 123.831353,249.914817 129.315563,261.231717 C134.110593,271.126179 131.052513,277.294944 131.052513,277.294944 C131.052513,277.294944 129.864105,278.572708 127.304645,278.755072 C124.745185,278.938044 121.271893,271.63619 121.271893,271.63619 L115.061367,251.450929 Z" id="Fill-120" fill="#1A3C68"></path>
                    <path d="M126.116359,286.877746 C126.116359,289.977933 119.67083,292.490909 111.719701,292.490909 C103.768571,292.490909 97.3230424,289.977933 97.3230424,286.877746 C97.3230424,283.778166 103.768571,281.26519 111.719701,281.26519 C119.67083,281.26519 126.116359,283.778166 126.116359,286.877746" id="Fill-122" fill="#32313E"></path>
                    <polygon id="Fill-124" fill="#32313E" points="98.1967534 287.658385 98.1967534 295.372381 98.3915744 308.581004 98.6661501 315.233642 101.414952 315.148539 101.414952 302.238993 101.017395 291.526933 100.826227 286.186708"></polygon>
                    <polygon id="Fill-126" fill="#32313E" points="122.876974 287.932053 122.876974 295.646049 123.071795 308.854672 123.345762 315.507917 126.095172 315.422206 126.095172 302.513268 125.697616 291.8006 125.506448 286.460983"></polygon>
                    <path d="M103.629153,247.239111 C102.43831,246.17289 99.0587752,240.667929 99.0587752,239.573138 C99.0587752,238.477738 100.429828,232.727802 100.841387,232.18071 C101.252946,231.632402 106.051629,226.840485 107.148715,226.840485 C108.2458,226.840485 118.120177,228.255629 118.848929,228.894511 C120.356965,230.217866 122.001985,239.11662 121.179475,242.26483 C120.72956,243.986954 118.254117,247.786811 115.786588,248.334511 C113.31845,248.882211 106.737155,250.022594 103.629153,247.239111" id="Fill-128" fill="#FED800"></path>
                    <path d="M123.270269,280.666611 L112.047974,280.714026 L112.08085,280.203406 C108.775591,280.209485 102.336759,280.421027 99.0363708,280.551114 L98.5109631,286.96911 L102.121847,312.478791 C102.121847,312.478791 105.165316,316.073793 108.017616,311.931091 C109.525652,309.740292 111.490908,289.332547 111.490908,289.332547 L113.022079,287.405568 L117.02017,294.196194 L117.493219,312.369373 L123.948489,310.748765 C123.948489,310.748765 128.052514,298.774138 128.400756,293.101403 C128.439112,292.478934 123.270269,280.666611 123.270269,280.666611" id="Fill-130" fill="#B2B2B1"></path>
                    <path d="M105.821801,247.039058 L106.106727,253.130015 C106.106727,253.130015 111.243912,256.944462 111.038741,257.109197 C110.83357,257.27454 114.79635,254.055816 114.79635,254.055816 L114.794523,246.22146 L110.536468,247.848146 L105.821801,247.039058 Z" id="Fill-132" fill="#F1B49D"></path>
                    <path d="M105.917264,251.366069 L103.398594,251.612868 C102.36239,251.714384 101.547187,252.542317 101.462561,253.578752 L100.660142,263.440996 L98.9743325,281.038512 L123.512638,280.983195 L121.448145,261.110384 L120.653032,253.910047 C120.521528,252.721641 119.562035,251.795232 118.368757,251.70405 L115.061671,251.451172 C112.599622,253.85169 108.686765,253.910654 106.154093,251.58369 L105.917264,251.366069 Z" id="Fill-134" fill="#1A3C68"></path>
                    <path d="M117.478182,312.341653 C117.478182,312.341653 116.586267,315.709916 118.183799,319.091552 C118.734777,320.258681 124.445465,325.512588 126.253647,322.335199 C128.771099,317.910441 123.922493,310.699162 123.922493,310.699162 L117.478182,312.341653 Z" id="Fill-136" fill="#8E4647"></path>
                    <path d="M102.383273,311.680949 C102.383273,311.680949 99.694135,315.102705 100.01011,318.641174 C100.119088,319.862405 101.132766,326.208063 104.956127,323.191763 C110.280218,318.989489 108.017251,311.794622 108.017251,311.794622 L102.383273,311.680949 Z" id="Fill-138" fill="#8E4647"></path>
                    <path d="M120.00026,240.346483 C119.709247,246.080006 115.311164,250.355833 110.203811,250.097484 C105.096459,249.839135 101.214043,245.145695 101.505056,239.411563 C101.795461,233.67804 106.171627,229.239908 111.278371,229.49765 C116.385723,229.755998 120.290665,234.612959 120.00026,240.346483" id="Fill-140" fill="#F1B49D"></path>
                    <path d="M107.15182,241.661388 C107.12564,242.181125 106.672682,242.58111 106.141186,242.553755 C105.609081,242.527009 105.19874,242.083864 105.224919,241.564127 C105.251707,241.044389 105.704665,240.645012 106.236161,240.671759 C106.768266,240.698506 107.177999,241.142258 107.15182,241.661388" id="Fill-142" fill="#32313E"></path>
                    <path d="M108.686948,246.728006 L112.18581,246.904899 C112.18581,246.904899 111.443664,248.083578 110.374584,248.029477 C109.01449,247.960179 108.686948,246.728006 108.686948,246.728006" id="Fill-144" fill="#AF2243"></path>
                    <path d="M103.477192,241.568747 C103.808388,242.884199 103.46319,244.104822 102.706432,244.29448 C101.949674,244.484747 101.067501,243.572319 100.736305,242.256867 C100.40511,240.940807 100.750308,239.720184 101.507066,239.530525 C102.263823,239.340867 103.145997,240.253295 103.477192,241.568747" id="Fill-146" fill="#F1B49D"></path>
                    <path d="M117.732058,242.433699 C117.269358,243.709639 117.489749,244.958224 118.223372,245.22326 C118.956994,245.488296 119.926837,244.669481 120.388928,243.394149 C120.851628,242.118209 120.631845,240.869624 119.898223,240.60398 C119.163991,240.339553 118.194148,241.157759 117.732058,242.433699" id="Fill-148" fill="#F1B49D"></path>
                    <path d="M116.014407,242.05195 C115.988228,242.57108 115.535269,242.971673 115.003164,242.944926 C114.471668,242.917571 114.061327,242.474427 114.087506,241.95469 C114.114294,241.434952 114.567252,241.035575 115.098748,241.062322 C115.630853,241.089677 116.040586,241.532821 116.014407,242.05195" id="Fill-150" fill="#32313E"></path>
                    <path d="M117.157701,234.781159 C117.157701,234.781159 106.188674,238.06675 103.720536,238.477677 C101.252398,238.888604 101.115415,241.626495 101.115415,241.626495 C101.115415,241.626495 100.567481,229.031223 108.108269,228.757677 C115.649056,228.484131 117.950988,231.578848 118.940313,233.001287 C121.636147,236.880169 119.442585,242.356559 119.442585,242.356559 L117.157701,234.781159 Z" id="Fill-152" fill="#FED800"></path>
                    <path d="M110.541339,288.337508 C115.221303,285.693231 115.979887,279.339062 118.041945,278.453989 C120.435198,277.426672 122.686598,278.765223 126.405242,277.029726 C134.121978,273.429253 128.042956,264.523812 128.042956,264.523812 L128.04052,264.525028 C127.81952,264.190086 121.702752,255.01961 115.638341,258.459602 C112.531556,260.221238 113.195165,262.498356 110.904801,263.736 C108.929804,264.802829 103.043168,262.851535 98.0636664,264.877598 C91.8640989,267.399692 90.5131375,272.468803 93.6132256,279.872173 L93.5699997,279.891625 C93.7252477,280.222311 93.8853661,280.543272 94.047311,280.858762 C94.2214322,281.238687 94.4028592,281.622259 94.5988978,282.013734 L94.6585617,281.982732 C98.7485837,289.093711 104.710104,291.632826 110.541339,288.337508" id="Fill-154" fill="#C39C6D"></path>
                    <polygon id="Fill-156" fill="#8E4647" points="101.004793 272.680467 105.458278 280.790801 101.085765 282.774921 97.2130904 274.25366"></polygon>
                    <path d="M117.353922,267.143653 C117.353922,267.143653 140.060302,256.252269 141.333336,255.697882 C142.60576,255.144104 143.705889,253.132629 144.813325,252.347856 C147.626052,250.355833 149.465892,250.499293 150.743187,251.278595 C152.02109,252.058505 153.884066,256.417004 151.777564,258.174385 C149.671063,259.931766 145.213925,260.403481 144.364019,260.33479 C142.683079,260.198017 119.740479,271.455346 119.740479,271.455346 L117.353922,267.143653 Z" id="Fill-158" fill="#8E4647"></path>
                    <path d="M117.623567,274.925003 C115.404434,275.998519 112.73417,275.071502 111.659611,272.855779 C110.584443,270.640057 111.512886,267.973288 113.732018,266.900988 C115.951151,265.827472 118.621415,266.754489 119.695974,268.970211 C120.770534,271.186541 119.842699,273.852095 117.623567,274.925003" id="Fill-160" fill="#32313E"></path>
                    <polygon id="Fill-162" fill="#EACDB0" points="100.361823 277.045409 100.707021 276.477042 140.737853 256.942212 140.859616 257.193267"></polygon>
                    <polygon id="Fill-164" fill="#EACDB0" points="100.950669 278.96941 101.311697 278.409553 141.940385 259.616945 142.139468 259.984104"></polygon>
                    <polygon id="Fill-166" fill="#EACDB0" points="141.226428 258.324653 141.317141 258.665066 100.978248 278.092908 100.779775 277.815107"></polygon>
                    <path d="M113.296472,269.765683 C113.296472,269.765683 114.873304,269.491529 115.147271,269.560219 C115.421847,269.628302 115.490034,270.518238 115.490034,270.518238 L114.598728,271.134628 C114.598728,271.134628 117.752392,271.613638 118.163951,272.571656 C118.574902,273.529675 118.163951,275.720474 117.958172,275.925938 C117.752392,276.131401 115.627626,277.70581 113.227676,277.15811 C112.480659,276.987904 108.840552,274.48891 108.840552,274.48891 L111.993607,269.423446 L113.296472,269.765683 Z" id="Fill-168" fill="#F1B49D"></path>
                    <path d="M105.917264,251.366069 C105.917264,251.366069 96.8428697,251.488861 93.9637815,261.208861 C89.9455997,274.773701 103.538622,274.556688 103.538622,274.556688 C103.538622,274.556688 107.926355,275.469724 108.840187,275.834452 C109.754018,276.199788 113.487275,269.193971 113.487275,269.193971 C113.487275,269.193971 103.172724,264.335187 102.624181,263.239788 C102.076247,262.144388 105.917264,251.366069 105.917264,251.366069" id="Fill-170" fill="#1A3C68"></path>
                    <path d="M130.429208,269.041454 C130.429208,269.041454 130.907128,267.516284 130.874861,267.235443 C130.842593,266.955211 129.968334,266.771631 129.968334,266.771631 L129.239582,267.573424 C129.239582,267.573424 129.175657,264.388741 128.278263,263.856847 C127.38026,263.324344 125.151387,263.445312 124.920646,263.622205 C124.689905,263.799098 122.849456,265.696899 123.079588,268.143616 C123.151428,268.905289 125.157475,272.835841 125.157475,272.835841 L130.599067,270.375143 L130.429208,269.041454 Z" id="Fill-172" fill="#F1B49D"></path>
                    <path d="M123.099922,270.586685 L123.510873,271.818858 C123.510873,271.818858 124.375999,278.628329 126.939112,278.755376 C132.012371,279.00643 133.247049,274.427878 130.915286,267.712021 C127.48522,269.516817 127.144892,269.012276 123.099922,270.586685" id="Fill-174" fill="#1A3C68"></path>
                    <path d="M108.035333,229.811863 L118.973919,219.716801 C119.47741,218.95999 120.65912,219.325326 120.646335,220.234107 L119.280762,235.592193 C119.280762,235.592193 112.538131,238.204253 108.035333,229.811863" id="Fill-176" fill="#05743C"></path>
                </g>
                <g id="Group-191" transform="translate(108.000000, 221.000000)">
                    <g id="Group-181" transform="translate(1.272727, 11.692308)">
                        <mask id="mask-4" fill="white">
                            <use xlink:href="#path-3"></use>
                        </mask>
                        <g id="Clip-180"></g>
                        <polygon id="Fill-179" fill="#68A48C" mask="url(#mask-4)" points="12.8083455 3.8648 5.96361818 2.5528 -2.04247273 2.6488 -1.86301818 0.599569231 6.5968 0.541107692 12.9878 1.81556923"></polygon>
                    </g>
                    <g id="Group-184" transform="translate(0.000000, 8.000000)">
                        <mask id="mask-6" fill="white">
                            <use xlink:href="#path-5"></use>
                        </mask>
                        <g id="Clip-183"></g>
                        <polygon id="Fill-182" fill="#68A48C" mask="url(#mask-6)" points="13.8176182 3.52221538 5.51370909 2.26006154 -1.0332 2.30621538 -0.853745455 0.256984615 6.57834545 0.283446154 13.9970727 1.47298462"></polygon>
                    </g>
                    <g id="Group-187" transform="translate(2.545455, 3.692308)">
                        <mask id="mask-8" fill="white">
                            <use xlink:href="#path-7"></use>
                        </mask>
                        <g id="Clip-186"></g>
                        <polygon id="Fill-185" fill="#68A48C" mask="url(#mask-8)" points="13.1206727 3.77526154 6.98103636 2.71064615 -1.73014545 2.55926154 -1.55069091 0.510646154 7.75485455 0.709415385 13.3001273 1.72664615"></polygon>
                    </g>
                    <g id="Group-190" transform="translate(7.000000, 0.000000)">
                        <mask id="mask-10" fill="white">
                            <use xlink:href="#path-9"></use>
                        </mask>
                        <g id="Clip-189"></g>
                        <polygon id="Fill-188" fill="#68A48C" mask="url(#mask-10)" points="10.1202818 3.72953846 3.73946364 2.14923077 -4.73053636 2.51353846 -4.55171818 0.464307692 2.74100909 0.440307692 10.2997364 1.68030769"></polygon>
                    </g>
                </g>
                <path d="M198,186.975465 L208.092459,176.458428 C208.527869,175.699279 209.763279,175.933517 209.843279,176.789759 L210,191.369549 C210,191.369549 203.416393,194.454692 198,186.975465" id="Fill-192" fill="#5286BD"></path>
                <g id="Group-206" transform="translate(198.000000, 177.000000)">
                    <g id="Group-196" transform="translate(1.254386, 11.822222)">
                        <mask id="mask-12" fill="white">
                            <use xlink:href="#path-11"></use>
                        </mask>
                        <g id="Clip-195"></g>
                        <polygon id="Fill-194" fill="#00B1DD" mask="url(#mask-12)" points="12.2149596 2.70399111 5.7304114 2.07741333 -1.69931667 2.89874667 -1.72691316 0.929413333 6.12742456 0.101857778 12.1873632 0.734657778"></polygon>
                    </g>
                    <g id="Group-199" transform="translate(0.000000, 8.088889)">
                        <mask id="mask-14" fill="white">
                            <use xlink:href="#path-13"></use>
                        </mask>
                        <g id="Clip-198"></g>
                        <polygon id="Fill-197" fill="#00B1DD" mask="url(#mask-14)" points="12.8415254 2.61526222 5.0066307 2.16912889 -1.07337807 2.80939556 -1.10034737 0.840684444 5.80755614 0.188595556 12.8133018 0.645928889"></polygon>
                    </g>
                    <g id="Group-202" transform="translate(3.135965, 3.733333)">
                        <mask id="mask-16" fill="white">
                            <use xlink:href="#path-15"></use>
                        </mask>
                        <g id="Clip-201"></g>
                        <polygon id="Fill-200" fill="#00B1DD" mask="url(#mask-16)" points="11.0377184 2.93794667 5.23179298 2.48185778 -2.87655789 3.13208 -2.90415439 1.16274667 5.76051667 0.504435556 11.0094947 0.968613333"></polygon>
                    </g>
                    <g id="Group-205" transform="translate(6.271930, 0.000000)">
                        <mask id="mask-18" fill="white">
                            <use xlink:href="#path-17"></use>
                        </mask>
                        <g id="Clip-204"></g>
                        <polygon id="Fill-203" fill="#00B1DD" mask="url(#mask-18)" points="8.89767325 2.97559111 2.81954605 2.05096889 -5.01660307 3.16972444 -5.04419956 1.20039111 1.72823026 0.512835556 8.86944956 1.00563556"></polygon>
                    </g>
                </g>
                <g id="Group-279">
                    <path d="M240.146179,204.329994 C240.233036,204.012689 240.353908,203.355024 240.502719,203.060773 C240.842253,202.396435 242.304251,201.366255 242.969955,201.033782 C243.723124,200.659447 245.709911,200.647313 245.709911,200.647313 C245.709911,200.647313 247.522983,201.247948 248.065386,201.722995 C248.660026,202.241119 249.611812,204.225641 249.611812,204.225641 L250.747033,207.598904 C250.747033,207.598904 250.255043,209.701733 249.766698,210.307221 C249.330589,210.846579 248.130985,211.654706 247.473784,211.876152 C246.680527,212.141281 244.925765,212.309338 244.128256,212.057556 C243.415783,211.83429 242.272666,210.775595 241.775818,210.218643 C241.068203,209.425077 240.474779,208.252322 240.318679,207.200301 C240.233643,206.621507 239.992508,204.894833 240.146179,204.329994 Z" id="Fill-207" fill="#E2C423"></path>
                    <path d="M260.898415,201.640727 C260.439832,202.005354 259.609524,203.539704 259.336804,204.056007 C258.836918,204.995788 258.620078,206.291704 258.720298,207.349792 C258.790756,208.092395 259.085342,209.621891 259.525703,210.223739 C260.021945,210.898392 261.532534,211.799951 262.330043,212.054765 C262.990888,212.267111 264.437094,212.324748 265.107658,212.146984 C265.859612,211.947986 267.503221,210.544684 267.503221,210.544684 L268.588027,207.155647 C268.588027,207.155647 268.997411,204.992755 268.826126,204.223457 C268.669418,203.519683 267.56639,201.964099 267.56639,201.964099 C267.56639,201.964099 265.956187,200.798018 265.128309,200.656049 C264.392754,200.529249 262.605193,200.49406 261.938274,200.829566 C261.644902,200.976995 261.157165,201.435661 260.898415,201.640727" id="Fill-209" fill="#E2C423"></path>
                    <path d="M263.964481,195.502602 L261.977694,192.235512 L259.885827,190.820076 L257.390044,190.146637 L254.657377,190.146637 C254.657377,190.146637 251.147245,190.231575 248.026452,192.649283 C244.899586,195.06881 244.435537,200.053473 244.435537,200.053473 C244.435537,200.053473 244.389982,203.391547 244.997377,204.941671 C245.604164,206.491187 247.740977,208.455081 247.740977,208.455081 L250.143222,210.422009 L248.894419,213.70548 L245.731109,216.235427 L248.370238,217.889903 L254.101004,218.625833 L262.650079,215.757346 L259.414489,212.790574 L258.558063,210.503307 C258.558063,210.503307 260.544243,209.001113 262.230977,207.204062 C263.918926,205.406404 264.204401,203.288408 264.204401,203.288408 L264.879824,199.781064 L263.964481,195.502602 Z" id="Fill-211" fill="#EF856C"></path>
                    <path d="M251.178343,202.179842 C251.158299,202.730727 250.693035,203.162699 250.141521,203.141465 C249.5894,203.120837 249.159972,202.65671 249.178801,202.105824 C249.20006,201.554332 249.664717,201.125394 250.216231,201.144808 C250.767745,201.166043 251.198387,201.628957 251.178343,202.179842" id="Fill-213" fill="#33313F"></path>
                    <path d="M259.528194,201.897847 C259.507542,202.448732 259.042278,202.880704 258.490764,202.859469 C257.93925,202.838235 257.509215,202.374715 257.528651,201.824436 C257.550518,201.272337 258.01396,200.842792 258.564866,200.862813 C259.116988,200.884048 259.548845,201.347568 259.528194,201.897847" id="Fill-215" fill="#33313F"></path>
                    <path d="M253.072867,206.470013 L256.451195,206.40813 C256.451195,206.40813 256.3777,208.167565 254.654522,208.153611 C253.521124,208.143904 253.072867,206.470013 253.072867,206.470013" id="Fill-217" fill="#E13F2A"></path>
                    <path d="M251.180105,194.920775 C251.180105,194.920775 252.189594,196.406588 255.066821,197.893007 C257.946478,199.379427 261.630325,199.874496 261.630325,199.874496 L264.973423,199.450411 C264.973423,199.450411 265.314779,198.105353 264.180166,194.566461 C263.047376,191.028175 259.528133,190.146637 259.528133,190.146637 C259.528133,190.146637 256.543397,188.692372 253.072138,189.117064 C249.599057,189.542362 249.17874,190.146637 249.17874,190.146637 C249.17874,190.146637 246.821443,191.523244 245.617587,193.646094 C244.411909,195.769551 244.598987,195.259314 243.921742,198.301925 C243.24389,201.345748 244.727147,203.95032 244.727147,203.95032 C244.727147,203.95032 245.546522,203.555357 247.954841,200.512746 C250.363159,197.468923 251.180105,194.920775 251.180105,194.920775" id="Fill-219" fill="#E2C423"></path>
                    <path d="M261.107237,314.401925 L261.107237,319.95082 C261.107237,319.95082 262.156814,322.808387 263.165696,322.808387 L267.834737,322.808387 L277.90898,322.808387 C277.90898,322.808387 279.032052,321.49063 277.345925,320.161953 C275.662228,318.833275 270.173812,318.169544 269.468628,317.59439 C268.762228,317.017417 268.753724,314.401925 268.753724,314.401925 L261.107237,314.401925 Z" id="Fill-221" fill="#B93E23"></path>
                    <path d="M234.401443,312.113809 C234.401443,312.113809 231.624436,320.510564 231.801795,322.887015 C231.977939,325.26468 235.809383,325.560144 237.388608,324.548772 C238.969048,323.536793 242.310325,313.523177 242.310325,313.523177 L234.401443,312.113809 Z" id="Fill-223" fill="#B93E23"></path>
                    <path d="M234.900296,312.20263 L234.86446,316.991328 C234.86446,316.991328 235.012664,319.220351 236.308843,319.486693 C237.606238,319.751216 238.711088,318.765325 238.711088,318.765325 L240.249618,316.271173 L241.822769,313.437875 L234.900296,312.20263 Z" id="Fill-225" fill="#EF856C"></path>
                    <path d="M261.107237,314.401925 C261.107237,314.401925 262.633011,316.466531 263.435379,317.089614 C264.317316,317.774581 265.020679,318.241741 266.534913,318.816895 C268.047932,319.394475 269.327105,319.374454 269.327105,319.374454 C269.327105,319.374454 272.678707,319.429663 273.542422,319.374454 C274.407351,319.321671 274.797298,318.96129 274.797298,318.96129 C274.797298,318.96129 270.154983,317.971759 269.578566,317.574369 C269.002149,317.180013 268.816286,315.520683 268.816286,315.520683 L268.785309,314.132549 L261.107237,314.401925 Z" id="Fill-227" fill="#EF856C"></path>
                    <path d="M256.673379,269.042097 L259.001522,288.235113 L261.107966,314.402167 L268.753846,314.402167 L272.58043,287.9081 L272.533661,269.474675 C272.533661,269.474675 272.553705,269.162224 272.58043,268.608305 L268.490237,269.04331 L256.673379,269.042097 Z" id="Fill-229" fill="#EF856C"></path>
                    <polygon id="Fill-231" fill="#EF856C" points="241.608298 269.042097 237.051626 290.654033 234.402172 312.113687 242.309839 313.523056 251.035666 289.862894 257.456432 269.042097 249.865217 270.059536"></polygon>
                    <path d="M239.560711,243.214006 L243.164382,231.695163 C243.164382,231.695163 244.289276,226.707467 243.797287,223.710966 C243.302868,220.712645 242.716732,217.150698 242.716732,217.150698 L239.027419,218.947749 C239.027419,218.947749 236.079127,223.43613 234.124532,228.173259 C233.39991,229.932087 232.815597,231.723678 232.567173,233.332652 C231.651829,239.281971 231.451389,237.563184 231.298933,244.363707 C231.144655,251.163622 232.641882,256.6294 232.641882,256.6294 L232.639452,256.6294 L233.556011,262.1425 C233.556011,262.1425 234.143968,264.285371 235.164998,264.71431 C236.184813,265.143248 238.33013,264.475876 238.653264,264.021456 C238.972146,263.562789 238.653264,260.537774 238.653264,260.537774 C238.653264,260.537774 239.323827,261.768772 239.750826,261.956849 L240.15535,259.597992 C239.603229,258.089125 238.808757,256.105209 238.808757,256.102176 L239.560711,243.214006 Z" id="Fill-233" fill="#EF856C"></path>
                    <path d="M283.526224,258.327073 L282.244014,255.615722 L282.247051,255.615722 C282.247051,255.615722 281.845563,243.917295 280.689085,238.230678 C279.527746,232.54042 276.801761,226.312625 276.801761,226.312625 C276.801761,226.312625 273.195053,220.1455 270.254657,218.140957 C269.418275,217.571263 268.220493,217.04768 266.938891,216.586586 C266.938891,216.586586 266.473627,220.206777 266.425035,223.806946 C266.377658,227.405295 267.594877,231.55089 267.594877,231.55089 L272.24691,239.353683 L276.675423,256.560357 L276.858248,257.986107 L276.931743,260.776329 C276.931743,260.776329 277.940625,262.825768 278.427148,263.096357 C278.914278,263.367553 279.363143,262.80878 279.363143,262.80878 L279.185176,260.233937 L280.083512,260.017951 L280.877984,261.784061 C280.877984,261.784061 279.996048,264.447482 279.977826,265.129415 C279.957174,265.814382 281.222377,265.90114 281.525467,265.526198 C281.827949,265.151256 283.110766,263.653916 283.526224,262.321599 C283.941681,260.991708 283.526224,258.327073 283.526224,258.327073" id="Fill-235" fill="#EF856C"></path>
                    <path d="M232.268456,231.694981 L241.899301,235.73501 L243.222813,231.935235 L245.045604,239.306664 L255.446018,239.806586 L263.64159,239.337606 L267.647356,238.538579 L267.593905,231.551193 L269.436739,235.426805 L279.146546,230.630219 L275.910349,223.956498 L270.533086,217.803934 L266.043227,215.769662 L261.504169,214.70672 L255.969592,215.592505 L250.950692,215.352251 L247.507981,214.81532 C247.507981,214.81532 241.296766,216.963651 239.028148,218.947567 C236.758923,220.932089 234.984116,225.259694 234.984116,225.259694 L232.268456,231.694981 Z" id="Fill-237" fill="#F0DAC6"></path>
                    <path d="M242.598898,216.586647 L243.222692,231.934993 L245.267789,241.892792 L240.359435,254.720291 L234.865553,277.345419 C234.865553,277.345419 241.504373,280.129575 251.180773,280.772679 C260.854743,281.415176 267.952754,279.860806 267.952754,279.860806 L281.448449,275.630273 C281.448449,275.630273 277.612754,256.024093 274.187657,250.549215 C270.759523,245.07191 267.921776,240.536813 267.921776,240.536813 L267.593783,231.55095 L267.266398,216.323945 L263.689452,215.217927 L262.62469,224.476806 L258.94388,225.181187 L253.994831,225.884961 L247.747173,225.024657 L245.575738,215.537659 L242.598898,216.586647 Z" id="Fill-239" fill="#4F87BB"></path>
                    <path d="M320.251048,186.38369 L318.163434,182.952183 L315.966489,181.465764 L313.346189,180.758349 L310.475643,180.758349 C310.475643,180.758349 306.792404,180.847534 303.51126,183.387795 C300.229508,185.92745 299.739948,191.162681 299.739948,191.162681 C299.739948,191.162681 299.693179,194.668205 300.33155,196.295986 C300.969922,197.923767 303.212422,199.986554 303.212422,199.986554 L305.736753,202.051767 L304.423566,205.500261 L301.103548,208.157009 L303.874482,209.894603 L309.890723,210.666328 L318.871656,207.65466 L315.47207,204.539245 L314.571911,202.136099 C314.571911,202.136099 316.659526,200.55928 318.430687,198.672437 C320.203064,196.784988 320.50251,194.559605 320.50251,194.559605 L321.210732,190.875104 L320.251048,186.38369 Z" id="Fill-241" fill="#EF856C"></path>
                    <path d="M306.824292,193.395708 C306.800604,193.975108 306.312866,194.427708 305.734627,194.40526 C305.153958,194.383419 304.702664,193.896844 304.72453,193.317443 C304.745181,192.73865 305.232919,192.288477 305.811158,192.309105 C306.391827,192.330339 306.844336,192.817521 306.824292,193.395708" id="Fill-243" fill="#33313F"></path>
                    <path d="M315.592394,193.099455 C315.570528,193.678856 315.081576,194.132062 314.503336,194.109614 C313.92206,194.087773 313.471373,193.600591 313.491417,193.021798 C313.514498,192.443004 314.001021,191.991618 314.580475,192.012246 C315.160537,192.034693 315.613653,192.521268 315.592394,193.099455" id="Fill-245" fill="#33313F"></path>
                    <path d="M308.457879,198.08697 L312.006885,198.02266 C312.006885,198.02266 311.932175,199.870067 310.120318,199.854899 C308.929825,199.843979 308.457879,198.08697 308.457879,198.08697" id="Fill-247" fill="#E13F2A"></path>
                    <path d="M334.455391,255.345072 L333.089968,252.199323 L334.08488,241.450991 L333.022548,231.926984 L332.585831,229.252035 L331.232556,229.876938 L326.698357,231.50472 L324.200752,229.927901 L324.573692,233.014194 L324.714,238.582504 L326.293225,252.795104 L326.68135,254.945862 L326.7676,258.198998 C326.7676,258.198998 327.942908,260.591224 328.51143,260.905496 C329.077521,261.219767 329.604132,260.569383 329.604132,260.569383 L329.391544,257.569848 L330.443551,257.31928 L331.365576,259.37418 C331.365576,259.37418 330.337864,262.480494 330.315391,263.278914 C330.294739,264.073693 331.771923,264.176832 332.124211,263.740614 C332.474678,263.303788 333.971298,261.556487 334.455391,260.005757 C334.938877,258.451386 334.455391,255.345072 334.455391,255.345072" id="Fill-249" fill="#EF856C"></path>
                    <path d="M285.699541,255.984354 L286.657402,252.691176 L284.312253,242.15337 L285.003467,235.468728 L285.92367,233.416255 L285.677675,230.312975 L290.381945,231.355896 L294.082191,231.242442 L294.030562,232.102139 L292.443441,236.105765 L293.474189,252.424227 L293.360607,254.606534 L293.687385,257.845109 C293.687385,257.845109 292.82367,260.367776 292.300096,260.749998 C291.777737,261.132827 291.173379,260.554033 291.173379,260.554033 L291.003916,257.552679 L289.928828,257.435585 L289.274057,259.589377 C289.274057,259.589377 290.686249,262.542195 290.80955,263.330301 C290.928599,264.116587 289.477534,264.405377 289.075439,264.017088 C288.670915,263.628192 286.965351,262.084135 286.289321,260.60621 C285.613899,259.125857 285.699541,255.984354 285.699541,255.984354" id="Fill-251" fill="#EF856C"></path>
                    <path d="M325.953692,249.741998 L329.950347,249.741998 L333.965224,249.741998 L334.670408,243.254534 L334.098243,229.253067 L331.647407,219.33167 L329.950347,215.014379 L327.44606,212.041539 L322.111923,209.00621 L317.38518,206.521158 C317.38518,206.521158 313.029555,209.961158 310.462706,210.175931 C307.896465,210.388277 304.680312,209.218555 304.680312,209.218555 L302.151121,207.299557 L297.049009,209.532827 L289.49363,215.651416 L285.427732,226.033299 L283.468278,238.582322 L285.782451,251.889116 L293.789731,250.12058 L293.198736,242.26379 L293.198736,236.224072 L294.805294,229.334365 L295.44731,231.599183 L295.664757,235.526365 L296.074141,245.320961 L298.007477,245.946471 L312.315259,247.124686 L322.906394,245.073426 L323.012688,228.623917 L325.953692,249.741998 Z" id="Fill-253" fill="#193A6A"></path>
                    <path d="M300.385001,272.272299 L294.087536,271.36164 C294.374226,275.742634 294.704649,281.951622 294.812765,282.180349 C294.985872,282.55529 295.989288,300.042867 295.989288,300.042867 L306.6278,301.163446 L307.63729,291.099474 C308.364341,286.450317 307.825582,280.057498 307.825582,280.057498 L308.471242,272.626613 L303.598724,272.626613 L300.385001,272.272299 Z" id="Fill-255" fill="#EF856C"></path>
                    <polygon id="Fill-257" fill="#0F6162" points="303.003782 244.361644 296.074019 243.668183 294.685516 249.614469 293.360789 254.607019 292.026951 262.597284 291.608456 272.110977 292.026951 281.61375 293.198614 295.95861 295.328746 308.829792 306.342021 308.829792 307.904847 292.699407 308.984794 276.967626 310.190472 262.802956 310.980692 262.796889 313.337382 302.734864 313.920481 308.415414 320.734838 308.415414 324.351264 308.415414 327.020762 293.317637 327.826167 275.701439 327.826167 266.327287 327.425894 258.335203 326.483826 253.849249 324.84629 248.822116 322.907488 243.420649 312.841141 244.560035"></polygon>
                    <path d="M296.127288,308.415536 L296.147332,313.065299 C296.147332,313.065299 293.909084,318.652418 293.566513,320.795896 C293.225158,322.941194 296.296143,324.809836 296.296143,324.809836 C296.296143,324.809836 299.036099,325.578527 300.757455,323.770555 C302.48124,321.960763 305.480554,313.809723 305.480554,313.809723 L305.480554,308.415536 L296.127288,308.415536 Z" id="Fill-259" fill="#E2C423"></path>
                    <path d="M314.316502,307.853244 L314.316502,311.977604 L314.316502,317.57989 L321.118104,320.127431 L328.765199,322.283043 C328.765199,322.283043 332.070032,321.452468 331.365454,318.927375 C330.661484,316.404102 323.259776,312.47146 323.259776,312.47146 L323.378826,310.562775 L323.592021,308.415657 L314.316502,307.853244 Z" id="Fill-261" fill="#E2C423"></path>
                    <path d="M304.722768,185.758605 C306.423473,185.363035 306.917892,188.732051 309.348684,188.880693 C311.780691,189.029941 312.853957,190.049807 315.104353,190.368326 C317.355357,190.684418 319.320277,190.962287 319.320277,190.962287 L321.211096,190.875529 C321.211096,190.875529 322.184142,188.385017 321.390277,186.502421 C320.597628,184.619218 320.06555,182.786372 317.807258,182.06743 C315.55018,181.349095 314.309881,180.407493 312.599459,179.911818 C310.886607,179.416143 309.209591,180.091402 307.31695,180.758167 C305.421879,181.423719 304.785937,181.398238 303.596052,182.06743 C302.404952,182.736622 301.139749,185.393977 301.139749,185.393977 C301.139749,185.393977 300.003314,186.948347 299.74092,188.980192 C299.477311,191.012037 299.74092,192.011881 299.74092,192.011881 L301.710092,190.31797 C301.710092,190.31797 302.602962,189.921793 303.296607,188.533659 C303.99268,187.146739 303.022672,186.155994 304.722768,185.758605" id="Fill-263" fill="#843147"></path>
                    <path d="M305.773804,196.250908 C304.292369,196.250908 303.088513,195.050245 303.088513,193.568679 C303.088513,192.088326 304.292369,190.887663 305.773804,190.887663 C307.255846,190.887663 308.458487,192.088326 308.458487,193.568679 C308.458487,195.050245 307.255846,196.250908 305.773804,196.250908 M305.773804,190.277927 C303.954658,190.277927 302.479297,191.751606 302.479297,193.568679 C302.479297,195.386964 303.954658,196.860037 305.773804,196.860037 C307.593557,196.860037 309.068918,195.386964 309.068918,193.568679 C309.068918,191.751606 307.593557,190.277927 305.773804,190.277927" id="Fill-265" fill="#F0DAC6"></path>
                    <path d="M314.704445,196.250908 C313.221187,196.250908 312.019154,195.050245 312.019154,193.568679 C312.019154,192.088326 313.221187,190.887663 314.704445,190.887663 C316.185272,190.887663 317.38852,192.088326 317.38852,193.568679 C317.38852,195.050245 316.185272,196.250908 314.704445,196.250908 M314.704445,190.277927 C312.883476,190.277927 311.408723,191.751606 311.408723,193.568679 C311.408723,195.386964 312.883476,196.860037 314.704445,196.860037 C316.522983,196.860037 317.998344,195.386964 317.998344,193.568679 C317.998344,191.751606 316.522983,190.277927 314.704445,190.277927" id="Fill-267" fill="#F0DAC6"></path>
                    <mask id="mask-20" fill="white">
                        <use xlink:href="#path-19"></use>
                    </mask>
                    <g id="Clip-270"></g>
                    <polygon id="Fill-269" fill="#F0DAC6" mask="url(#mask-20)" points="308.617685 193.142956 311.743336 193.142956 311.743336 192.399139 308.617685 192.399139"></polygon>
                    <polygon id="Fill-271" fill="#EF856C" mask="url(#mask-20)" points="299.758595 191.921058 299.017574 192.293573 298.758217 193.649552 299.387477 195.114131 300.184986 195.84642"></polygon>
                    <polygon id="Fill-272" fill="#EF856C" mask="url(#mask-20)" points="320.896405 192.146751 321.528095 192.146751 321.89982 192.764374 321.89982 194.248974 321.211643 195.196035 320.153562 195.84642"></polygon>
                    <polygon id="Fill-273" fill="#F0DAC6" mask="url(#mask-20)" points="302.722011 193.344745 299.387416 191.949331 299.672892 191.263757 303.009309 192.659778"></polygon>
                    <polygon id="Fill-274" fill="#F0DAC6" mask="url(#mask-20)" points="321.284955 192.07152 317.886584 193.321326 317.629048 192.623619 321.028635 191.37442"></polygon>
                    <path d="M310.1205,199.85496 C310.378035,199.652928 313.995069,201.74241 314.443933,201.943228 C316.441653,202.8369 318.476424,203.651094 320.537921,204.383383 C320.823396,203.649274 321.105835,202.913345 321.389488,202.178022 L316.940931,201.010121 L311.295808,198.93156 L310.1205,199.85496 Z" id="Fill-275" fill="#FFD900" mask="url(#mask-20)"></path>
                    <polygon id="Fill-276" fill="#FEFEFE" mask="url(#mask-20)" points="310.1205 199.85496 312.835553 201.067151 313.776407 199.828265 311.295808 198.93156"></polygon>
                    <path d="M323.779159,202.01039 C323.744538,203.338461 322.555867,204.566425 321.148534,204.480274 C319.89305,204.403223 318.805207,203.231074 318.824036,201.973381 C318.861087,199.42402 321.902311,199.614524 321.902311,199.614524 C321.902311,199.614524 323.78827,201.696119 323.779159,202.01039" id="Fill-277" fill="#FFD900" mask="url(#mask-20)"></path>
                    <path d="M253.257333,191.009185 L263.114736,181.907443 C263.570282,181.22551 264.633829,181.554342 264.622896,182.373996 L263.392923,196.220148 C263.392923,196.220148 257.315942,198.575365 253.257333,191.009185" id="Fill-278" fill="#05743C" mask="url(#mask-20)"></path>
                </g>
                <g id="Group-292" transform="translate(252.000000, 183.000000)">
                    <g id="Group-282" transform="translate(1.938462, 11.200000)">
                        <mask id="mask-22" fill="white">
                            <use xlink:href="#path-21"></use>
                        </mask>
                        <g id="Clip-281"></g>
                        <polygon id="Fill-280" fill="#68A48C" mask="url(#mask-22)" points="11.3316646 3.21377778 5.05298769 2.01537778 -2.28990462 2.10373333 -2.12448923 0.232088889 5.63517231 0.177955556 11.4964338 1.34213333"></polygon>
                    </g>
                    <g id="Group-285" transform="translate(0.000000, 7.466667)">
                        <mask id="mask-24" fill="white">
                            <use xlink:href="#path-23"></use>
                        </mask>
                        <g id="Clip-284"></g>
                        <polygon id="Fill-283" fill="#68A48C" mask="url(#mask-24)" points="13.0284646 3.26181333 5.41289538 2.10883556 -0.593104615 2.15176889 -0.427689231 0.280124444 6.38923385 0.303768889 13.19388 1.39016889"></polygon>
                    </g>
                    <g id="Group-288" transform="translate(2.584615, 3.733333)">
                        <mask id="mask-26" fill="white">
                            <use xlink:href="#path-25"></use>
                        </mask>
                        <g id="Clip-287"></g>
                        <polygon id="Fill-286" fill="#68A48C" mask="url(#mask-26)" points="12.1393569 3.29217778 6.50748 2.31902222 -1.48221231 2.18213333 -1.31679692 0.310488889 7.21824923 0.491555556 12.3041262 1.42053333"></polygon>
                    </g>
                    <g id="Group-291" transform="translate(6.461538, 0.000000)">
                        <mask id="mask-28" fill="white">
                            <use xlink:href="#path-27"></use>
                        </mask>
                        <g id="Clip-290"></g>
                        <polygon id="Fill-289" fill="#68A48C" mask="url(#mask-28)" points="9.59641846 3.61119111 3.74291077 2.16825778 -4.02515077 2.50114667 -3.85973538 0.629502222 2.82731077 0.607102222 9.76118769 1.73954667"></polygon>
                    </g>
                </g>
                <path d="M301.193399,188.769939 L300.046358,175.108338 C299.777968,174.313244 300.733836,173.664983 301.400141,174.189563 L312,183.90433 C312,183.90433 310.028483,190.274829 301.193399,188.769939" id="Fill-293" fill="#5286BD"></path>
                <g id="Group-307" transform="translate(300.000000, 174.000000)">
                    <g id="Group-297" transform="translate(2.584615, 6.570667)">
                        <mask id="mask-30" fill="white">
                            <use xlink:href="#path-29"></use>
                        </mask>
                        <g id="Clip-296"></g>
                        <polygon id="Fill-295" fill="#00B1DD" mask="url(#mask-30)" points="10.9915292 1.71034453 6.05426769 5.64079787 1.52149846 11.1356672 0.06636 9.8866432 4.89054462 4.1038592 9.53703692 0.4607232"></polygon>
                    </g>
                    <g id="Group-300" transform="translate(0.000000, 4.778667)">
                        <mask id="mask-32" fill="white">
                            <use xlink:href="#path-31"></use>
                        </mask>
                        <g id="Clip-299"></g>
                        <polygon id="Fill-298" fill="#00B1DD" mask="url(#mask-32)" points="10.3567477 1.46185387 4.61825538 6.41135787 0.886716923 10.8865792 -0.568421538 9.63815253 3.72850154 4.6002432 8.90225538 0.212232533"></polygon>
                    </g>
                    <g id="Group-303" transform="translate(0.000000, 1.194667)">
                        <mask id="mask-34" fill="white">
                            <use xlink:href="#path-33"></use>
                        </mask>
                        <g id="Clip-302"></g>
                        <polygon id="Fill-301" fill="#00B1DD" mask="url(#mask-34)" points="8.33816308 1.5586816 3.99407077 5.14566827 -1.13251385 10.9834069 -2.58700615 9.73498027 2.91887077 3.51853227 6.88367077 0.309060267"></polygon>
                    </g>
                    <g id="Group-306">
                        <mask id="mask-36" fill="white">
                            <use xlink:href="#path-35"></use>
                        </mask>
                        <g id="Clip-305"></g>
                        <polygon id="Fill-304" fill="#00B1DD" mask="url(#mask-36)" points="6.33282462 -0.291677867 1.45888615 3.17584213 -3.13785231 9.13304747 -4.59234462 7.8846208 -0.414313846 2.91421013 4.87768615 -1.5412992"></polygon>
                    </g>
                </g>
                <g id="Group-314" transform="translate(255.000000, 140.000000)">
                    <path d="M21.5494473,7.49873 C22.3858473,9.84967 22.5471927,12.46474 22.2028655,14.95049 C22.0149382,16.30042 19.1237018,27.55675 17.3396291,27.34874 C13.4228291,26.89185 9.39413818,24.31216 6.19566545,22.18936 C5.70544727,21.86423 5.21955636,21.52873 4.78559273,21.13406 C3.14555636,19.64505 2.30173818,17.40635 1.43752,15.43361 C-0.593825455,10.80188 0.390938182,7.2224 4.23170182,4.02417 C6.21112,2.37717 8.40010182,0.67222 10.9841018,0.53375 C15.3200291,0.30195 20.1350473,3.51543 21.5494473,7.49873" id="Fill-308" fill="#FFD900"></path>
                    <path d="M16.6281018,26.01345 C16.3029382,27.27371 16.1997018,28.64804 16.0049745,29.94612 C15.9753018,30.14681 15.9561382,30.38166 16.1038836,30.52318 C16.2621382,30.67446 16.5193018,30.63176 16.7331927,30.57869 C17.3285018,30.43168 20.5393382,30.06812 20.2895927,29.18545 C20.2246836,28.95853 20.0336655,28.79261 19.8500655,28.64072 C18.7997745,27.7672 17.7661745,26.75765 16.6281018,26.01345" id="Fill-310" fill="#FFD900"></path>
                    <path d="M16.4035782,27.420781 C16.8103418,27.020621 17.5787418,26.580201 18.1245964,26.905331 C17.8643418,27.304271 16.9012145,27.329281 16.4035782,27.420781 C18.3897964,27.055391 22.2892873,28.973841 22.8913964,30.897781 C23.0620145,31.438241 23.0484145,32.017741 22.9915418,32.580771 C22.7461236,35.039071 21.7143782,37.341821 20.8551055,39.661651 C19.8041964,42.502421 19.1575782,45.509721 20.0193236,48.490181 C20.3141964,49.513151 20.7976145,50.481221 21.3354327,51.393781 C24.36576,56.545841 28.9712145,59.648911 33.6539418,60.881721" id="Stroke-312" stroke="#4F87BB"></path>
                </g>
            </g>
            <g id="Cordon" transform="translate(20.000000, 258.000000)">
                <mask id="mask-38" fill="white">
                    <use xlink:href="#path-37"></use>
                </mask>
                <g id="Clip-3"></g>
                <polyline id="Fill-1" fill="#6A2C3F" mask="url(#mask-38)" points="7.43601896 128 1.81344248 128 -1 72.5577358 1.81344248 4 7.43601896 4 9 51.0960551 7.43601896 128"></polyline>
                <path d="M2.09835585,58 L2,62.0734262 C2,62.0734262 18.5852545,82.7437225 37.5064603,94.568818 C63.1199617,110.574967 93.1184946,118.92393 92.999648,117.918719 C92.7906418,116.171204 91.6841386,106.923837 91.6841386,106.923837 L35.6213066,83.1717691 L2.09835585,58" id="Fill-2" fill="#D6BD40" mask="url(#mask-38)"></path>
                <polyline id="Fill-4" fill="#6A2C3F" mask="url(#mask-38)" points="95.8122308 177 90.1877692 177 88 131.096413 90.1877692 53 95.8122308 53 98 92.3458734 95.8122308 177"></polyline>
                <path d="M11.94389,4.81269205 C11.8451275,5.48467059 11.6105667,6.23170846 11.2114017,7.05775615 C9.60651174,10.4014518 4.0634686,11.0564432 1.6602487,8.1868065 C-5.55352608,-0.426844293 13.149615,-3.32966515 11.94389,4.81269205" id="Fill-5" fill="#6A2C3F" mask="url(#mask-38)"></path>
                <path d="M97.9850719,53.4138493 C98.1262762,55.2684323 97.2750158,57.166999 95.0359184,58.3283328 C87.7860843,62.0907635 83.1303756,48.856482 91.3807433,48.0320884 C95.0439872,47.6664983 97.7551105,50.4850932 97.9850719,53.4138493" id="Fill-6" fill="#6A2C3F" mask="url(#mask-38)"></path>
                <polyline id="Fill-1" fill="#6A2C3F" mask="url(#mask-38)" points="7.43601896 128 1.81344248 128 -1 72.5577358 1.81344248 4 7.43601896 4 9 51.0960551 7.43601896 128"></polyline>
                <polyline id="Fill-4" fill="#6A2C3F" mask="url(#mask-38)" points="95.8122308 177 90.1877692 177 88 131.096413 90.1877692 53 95.8122308 53 98 92.3458734 95.8122308 177"></polyline>
                <path d="M11.94389,4.81269205 C11.8451275,5.48467059 11.6105667,6.23170846 11.2114017,7.05775615 C9.60651174,10.4014518 4.0634686,11.0564432 1.6602487,8.1868065 C-5.55352608,-0.426844293 13.149615,-3.32966515 11.94389,4.81269205" id="Fill-5" fill="#6A2C3F" mask="url(#mask-38)"></path>
                <path d="M97.9850719,53.4138493 C98.1262762,55.2684323 97.2750158,57.166999 95.0359184,58.3283328 C87.7860843,62.0907635 83.1303756,48.856482 91.3807433,48.0320884 C95.0439872,47.6664983 97.7551105,50.4850932 97.9850719,53.4138493" id="Fill-6" fill="#6A2C3F" mask="url(#mask-38)"></path>
            </g>
        </g>
    </g>
</svg>