<?xml version="1.0" encoding="UTF-8" standalone="no"?>
<svg width="190px" height="142px" viewBox="0 0 190 142" version="1.1" xmlns="http://www.w3.org/2000/svg" xmlns:xlink="http://www.w3.org/1999/xlink">
    <!-- Generator: Sketch 47.1 (45422) - http://www.bohemiancoding.com/sketch -->
    <title>work</title>
    <desc>Created with Sketch.</desc>
    <defs>
        <polygon id="path-1" points="0.314680463 0.924 26.3988837 0.924 26.3988837 36.2329573 0.314680463 36.2329573"></polygon>
    </defs>
    <g id="Page-1" stroke="none" stroke-width="1" fill="none" fill-rule="evenodd">
        <g id="work">
            <g id="Page-1" transform="translate(0.000000, -1.000000)">
                <path d="M46.1631,102.5936 L44.6651,103.3766 C43.4861,103.9916 42.7201,105.1816 42.6451,106.5096 L42.4541,109.8966 C42.4151,110.5796 42.5641,111.2596 42.8801,111.8656 L43.3391,112.7396 C43.5851,113.2046 43.9241,113.6146 44.3351,113.9406 L49.7361,118.2236 C50.1431,118.5476 50.6141,118.7826 51.1181,118.9156 L62.2931,121.8616 L66.9221,123.2496 L54.9491,119.5166 C54.7521,119.4536 54.5501,119.4096 54.3451,119.3816 L43.6351,117.8996 C43.5481,117.8876 43.4631,117.8716 43.3781,117.8546 L40.6571,117.2846 C39.9191,117.1306 39.1531,117.1996 38.4561,117.4866 L37.3061,117.9566 C36.1481,118.4296 35.2981,119.4466 35.0411,120.6726 L34.8951,121.3666 C34.7751,121.9356 34.7881,122.5236 34.9341,123.0866 L35.5071,125.3056 C35.9161,126.8916 37.3021,128.0336 38.9361,128.1306 C42.2671,128.3246 47.4851,128.6426 47.8551,128.7096 C48.4021,128.8126 65.0801,135.4586 65.8081,135.5936 C66.3481,135.6946 69.9231,135.3656 71.7251,135.1896 C72.4031,135.1226 73.0461,134.8776 73.5941,134.4746 L78.6421,130.7646 C79.6301,130.0406 80.2031,128.8846 80.1841,127.6636 L80.0631,120.1846 C80.0491,119.2536 79.6891,118.3606 79.0571,117.6786 L74.8951,113.1896 C74.5381,112.8056 74.1061,112.4976 73.6231,112.2896 L67.7681,108.6396 C67.4971,108.5226 65.6881,108.8286 65.4511,108.6526 L57.4621,102.6626 C56.7731,102.1456 55.9271,101.8796 55.0671,101.9096 L47.7791,102.1656 C47.2151,102.1856 46.6631,102.3326 46.1631,102.5936" id="Fill-1" fill="#AF2243"></path>
                <path d="M27.4941,122.4168 L21.6111,119.9648 C21.0981,119.7508 20.5411,119.6658 19.9871,119.7158 L17.7681,119.9188 C17.1181,119.9778 16.5111,120.2708 16.0641,120.7488 L14.4411,122.4728 C14.0191,122.9178 13.7401,123.4788 13.6341,124.0818 L13.0281,127.5588 C13.0281,127.5588 11.1271,136.8908 16.6801,137.6318 C18.6991,137.8998 21.9411,138.1498 22.4961,136.8538 C23.0511,135.5588 22.1261,132.0418 22.1261,132.0418 L25.4571,133.1518 L27.4941,122.4168 Z" id="Fill-3" fill="#32313E"></path>
                <path d="M107.6328,113.0955 L109.0238,132.2105" id="Stroke-5" stroke="#007743" stroke-width="1.21"></path>
                <polygon id="Fill-7" fill="#AF2243" points="113.1787 104.1951 113.1427 109.6331 109.6847 113.2551 107.1707 114.2531 104.6007 113.1351 102.7977 109.4391 102.1747 103.5921 105.5867 106.1611 107.8547 102.2581 110.5347 106.5001"></polygon>
                <polyline id="Fill-9" fill="#007743" points="108.3149 126.8533 107.4139 124.8343 106.0839 123.0763 104.1439 122.1613 102.0769 122.0793 100.0819 122.3313 100.9189 124.2073 102.0269 125.9933 103.6749 127.2173 106.2079 127.4233 108.7459 127.1333"></polyline>
                <polyline id="Fill-11" fill="#007743" points="113.5371 118.4696 112.1861 118.1886 110.8121 118.2166 109.6391 118.8646 108.8411 119.8806 108.2411 120.9816 109.4961 121.2426 110.8021 121.3356 112.0261 120.9496 113.0551 119.7426 113.8371 118.3546"></polyline>
                <path d="M98.5625,125.8289 L101.3725,139.4339" id="Stroke-13" stroke="#007743" stroke-width="2.42"></path>
                <polygon id="Fill-15" fill="#EB7DAE" points="101.7026 118.9071 102.1936 122.8191 100.0516 125.7501 98.3386 126.7051 96.3856 126.1451 94.7386 123.6591 93.7396 119.5171 96.4336 121.0401 97.6936 118.0211 100.0226 120.8141"></polygon>
                <polyline id="Fill-17" fill="#007743" points="100.356 135.6522 99.516 134.2872 98.395 133.1482 96.914 132.6732 95.421 132.8102 94.01 133.1822 94.79 134.4512 95.755 135.6292 97.056 136.3542 98.895 136.2592 100.692 135.8122"></polyline>
                <polyline id="Fill-19" fill="#007743" points="103.3145 129.1317 102.3165 129.0567 101.3325 129.2087 100.5505 129.7837 100.0735 130.5917 99.7455 131.4387 100.6725 131.5077 101.6215 131.4497 102.4625 131.0587 103.0885 130.0927 103.5175 129.0207"></polyline>
                <path d="M116.2241,119.7352 L114.5941,135.5952" id="Stroke-21" stroke="#007743" stroke-width="1.21"></path>
                <polygon id="Fill-23" fill="#1A3C68" points="122.0557 113.2489 121.2397 117.6999 117.8807 120.1629 115.6767 120.6179 113.7347 119.3289 112.7927 116.0399 113.1307 111.1609 115.5537 113.7609 117.9757 110.8929 119.5557 114.7549"></polygon>
                <polyline id="Fill-25" fill="#007743" points="114.7891 131.1043 114.3441 129.3203 113.5101 127.6873 112.0541 126.6553 110.3721 126.2883 108.7001 126.2073 109.1161 127.8653 109.7641 129.4883 110.9351 130.7313 112.9811 131.2643 115.1021 131.3953"></polyline>
                <polyline id="Fill-27" fill="#007743" points="120.2817 124.993 119.2167 124.567 118.0857 124.391 117.0317 124.75 116.2307 125.469 115.5787 126.283 116.5687 126.68 117.6257 126.944 118.6837 126.805 119.7017 125.966 120.5417 124.941"></polyline>
                <path d="M9.7793,40.8997 C9.7773,40.9057 9.7753,40.9127 9.7753,40.9187 C9.8743,39.5797 9.9833,39.8077 9.6863,37.9357 C9.4993,36.7477 7.5723,34.1037 6.2123,33.8107 C5.8433,33.7317 5.4963,33.5807 5.1193,33.5847 C3.5913,33.6027 2.0953,34.4297 1.2733,35.7177 C0.5803,36.8027 0.3693,38.1167 0.1763,39.3877 C0.0453,40.2567 -0.0877,41.1437 0.0763,42.0057 C0.1713,42.5117 0.3663,42.9917 0.5583,43.4687 C1.3673,45.4627 2.1783,47.3427 3.2453,49.2067 C3.4923,49.6397 9.0533,48.7307 9.8183,48.6687 C10.3323,46.8387 10.8503,45.0387 11.4143,43.2177 C11.9173,41.5907 12.6873,39.0877 11.3003,38.2547 C10.0393,38.0757 10.0073,39.9407 9.7793,40.8997" id="Fill-29" fill="#007743"></path>
                <polygon id="Fill-31" fill="#32313E" points="86.9814 120.1658 89.7004 108.8028 91.1094 103.2778 91.7754 99.5698 93.3004 99.0368 95.1764 101.2228 93.7254 104.4538 92.1854 110.0288 89.9174 117.1958 88.8494 120.9758"></polygon>
                <polygon id="Fill-33" fill="#A5A7A9" points="80.0405 123.1942 83.0935 119.7702 86.5445 119.5632 90.1275 120.6942 91.6065 123.7842 92.5335 126.9892 89.1085 131.8022 81.7985 138.9282 80.0405 130.4132"></polygon>
                <polygon id="Fill-35" fill="#32313E" points="86.4263 120.325 84.1113 130.321 89.2963 121.343"></polygon>
                <polygon id="Fill-37" fill="#0F6162" points="86.4502 107.6082 90.8922 109.0882 87.0432 116.1872 82.0232 114.7392"></polygon>
                <path d="M39.896,115.3826 L33.231,112.6056 L29.161,112.9756 L27.15,115.1116 C26.538,115.7606 26.197,116.6196 26.197,117.5116 L26.197,120.7496 C26.197,120.7496 24.347,129.4506 29.9,130.1906 C31.919,130.4606 34.343,131.1156 34.899,129.8206 C35.453,128.5256 34.528,125.0076 34.528,125.0076 L37.859,126.1176 L39.896,115.3826 Z" id="Fill-39" fill="#32313E"></path>
                <path d="M60.3584,46.8377 L59.9784,50.6627 L58.1704,54.0587 C58.1704,54.0587 54.9474,59.0577 50.5894,59.8467 C46.2304,60.6357 39.1454,61.2037 36.2004,58.3407 L31.8384,54.1527 L30.4244,50.5857 L29.6784,46.8377 L30.1924,43.0177 L31.8824,39.5517 L34.5464,36.7967 L37.7134,34.6877 L41.2534,33.2267 L45.0754,32.9887 L48.9144,33.1527 L52.4714,34.6217 L55.5074,36.9097 L58.3174,39.5187 L59.9744,43.0137 L60.3584,46.8377 Z" id="Fill-41" fill="#833C3E"></path>
                <polygon id="Fill-43" fill="#32313E" points="38.9463 48.9046 38.9133 49.2416 38.7533 49.5436 38.5503 49.8196 38.2563 49.9946 37.9313 50.0926 37.5953 50.1586 37.2543 50.1276 36.9273 50.0126 36.6623 49.7936 36.4253 49.5506 36.3013 49.2366 36.2343 48.9046 36.2803 48.5676 36.4293 48.2596 36.6653 48.0166 36.9453 47.8306 37.2573 47.7026 37.5953 47.6806 37.9353 47.6946 38.2493 47.8256 38.5173 48.0266 38.7673 48.2586 38.9113 48.5676"></polygon>
                <path d="M44.083,54.8055 L49.438,54.6915 C49.438,54.6915 47.725,58.0195 44.083,54.8055" id="Fill-45" fill="#BB90A1"></path>
                <path d="M37.6084,26.0936 L30.2874,30.5446 C30.1024,30.6566 29.9534,30.8226 29.8624,31.0196 L27.0114,37.1476 C26.9654,37.2456 26.9344,37.3546 26.9234,37.4646 L26.1974,44.1396 C26.1844,44.2656 26.1904,44.3916 26.2204,44.5126 C26.5484,45.8016 24.4664,54.1386 25.6764,56.2056 C28.4464,60.9346 29.6794,56.7346 34.2964,59.1296 C35.9094,59.9676 37.3614,59.1756 37.3614,59.1756 C37.3614,59.1756 33.4024,54.3376 33.0224,53.4956 C32.0114,51.2586 31.4324,48.3496 32.7574,45.2566 C33.6114,43.2636 35.1274,44.1826 37.4254,37.6816 C37.6454,37.0626 38.3844,36.8256 38.9364,37.1806 C40.2874,38.0526 43.0844,40.4446 50.6624,39.7626 C52.2234,39.6216 54.1284,40.7706 55.0244,42.0576 C56.1834,43.7256 57.7124,44.0166 58.2584,44.8026 C58.3934,44.9976 58.4574,45.2326 58.4364,45.4686 L57.7534,53.1526 C57.7454,53.2466 57.7264,53.3376 57.6914,53.4256 C57.2244,54.5786 54.9324,56.9896 55.5614,57.4986 C58.0094,59.4886 58.8114,59.3666 61.5304,56.5816 C62.5494,55.5356 66.2554,56.1346 65.6764,51.2236 C65.2944,47.9756 63.9994,43.3236 64.0504,41.4686 C64.0604,41.1676 62.2714,36.8036 62.1424,36.5316 L58.6004,29.1876 C58.3204,28.6006 57.8094,28.1586 57.1894,27.9676 L47.9464,25.1136 C47.8204,25.0746 47.6874,25.0616 47.5564,25.0726 L38.0404,25.9506 C37.8884,25.9646 37.7394,26.0146 37.6084,26.0936" id="Fill-47" fill="#32313E"></path>
                <polygon id="Fill-49" fill="#32313E" points="55.1289 47.8919 55.0959 48.2299 54.9359 48.5309 54.7329 48.8069 54.4379 48.9829 54.1129 49.0809 53.7769 49.1469 53.4369 49.1159 53.1099 48.9999 52.8449 48.7819 52.6079 48.5389 52.4839 48.2249 52.4169 47.8919 52.4629 47.5549 52.6119 47.2469 52.8469 47.0039 53.1279 46.8189 53.4399 46.6889 53.7769 46.6689 54.1179 46.6819 54.4319 46.8129 54.6999 47.0139 54.9489 47.2459 55.0939 47.5549"></polygon>
                <polygon id="Fill-51" fill="#833C3E" points="37.9521 56.8504 38.5421 60.7974 37.9521 67.6324 46.1741 66.8854 55.6591 67.6324 54.5471 61.4304 54.1431 56.3814"></polygon>
                <path d="M73.4292,105.286 C73.5192,105.863 82.5032,116.769 82.5032,116.769 L88.0232,107.701 C88.0232,107.701 84.8192,102.747 84.5472,102.261 C81.9542,97.632 79.0172,93.631 78.5792,92.538 C78.0252,91.15 75.0022,81.861 71.1312,76.368 C67.2452,70.855 57.6722,64.764 55.1492,64.787 C54.8282,64.791 54.1982,64.999 53.9002,65.114 C50.0982,66.557 41.8142,64.71 39.7982,64.167 C39.4822,64.083 38.6162,63.706 38.2902,63.725 C31.2002,64.105 18.3402,66.216 14.6052,60.185 L11.6812,51.017 C11.6742,50.936 11.6642,50.855 11.6562,50.775 L11.5232,48.499 C11.4912,47.988 11.3312,47.509 11.0722,47.097 C8.4812,47.329 5.3302,48.014 2.7312,48.045 C2.4202,48.526 2.2482,49.095 2.2582,49.692 L3.2752,62.008 C3.2832,62.494 4.0992,65.522 4.3372,65.947 C4.3372,65.947 9.3412,74.478 18.1572,77.601 L31.6312,81.934 L37.6162,78.468 C37.7452,78.412 35.8902,75.584 36.0262,75.548 L47.0122,72.552 C47.6762,72.37 48.3832,72.427 49.0082,72.712 C49.0082,72.712 62.1902,86.083 62.4002,86.968 L67.7682,96.058 C67.7862,96.131 73.4292,105.286 73.4292,105.286" id="Fill-53" fill="#4F85BA"></path>
                <path d="M32.6289,107.074 L31.1119,107.868 C30.0089,108.445 29.1909,109.45 28.8519,110.647 L28.3829,112.307 C28.1299,113.199 28.1569,114.144 28.4599,115.02 L29.3399,117.564 C29.5509,118.175 29.8909,118.73 30.3329,119.197 L32.1119,121.076 C32.6869,121.683 34.2599,123.395 35.0679,123.611 L52.2179,127.366 L56.8449,128.754 L44.9339,125.04 C44.6959,124.965 44.4529,124.911 44.2059,124.876 L33.5829,123.407 C33.4809,123.391 33.3779,123.374 33.2759,123.353 L30.8069,122.836 C29.9229,122.65 28.0859,121.423 27.2479,121.764 L22.7859,132.363 C22.7859,132.363 26.7899,133.812 27.9639,134.397 C30.5519,135.688 34.9879,137.881 35.3719,137.952 C35.9179,138.053 50.0429,141.882 50.7729,142.017 C51.3839,142.129 60.3169,142.052 63.1429,142.024 C63.7079,142.019 64.2619,141.909 64.7869,141.699 L70.5909,139.361 C72.6209,138.545 73.7749,136.395 73.3369,134.253 L71.9499,127.491 C71.7029,126.279 70.9669,125.221 69.9199,124.563 L63.4649,120.517 L57.2669,116.244 C57.1689,116.177 57.0739,116.105 56.9819,116.03 L47.6379,108.438 C46.7889,107.748 45.7179,107.389 44.6229,107.428 L37.8739,107.665 C37.1959,107.688 33.2289,106.762 32.6289,107.074" id="Fill-55" fill="#AF2243"></path>
                <path d="M31.936,70.8826 C31.936,70.8826 29.973,89.6006 29.679,95.5286 C29.363,101.9066 29.363,109.9656 29.363,109.9656 L54.148,110.5846 L67.768,108.6396 C67.768,108.6396 62.477,77.2686 61.088,74.4916 C59.7,71.7156 48.595,66.9956 48.595,66.9956 L31.936,70.8826 Z" id="Fill-57" fill="#4F85BA"></path>
                <path d="M88.123,108.6951 L90.165,107.5341 L93.473,108.0101 L95.574,109.2761 C95.574,109.2761 97.138,112.7621 96.535,113.5771 C95.935,114.3891 94.613,117.0621 93.17,117.6441 C91.729,118.2241 87.523,118.5721 86.441,117.5261 C85.36,116.4811 84.879,114.6211 85.36,113.2271 C85.84,111.8321 87.401,108.9271 88.123,108.6951" id="Fill-59" fill="#007743"></path>
                <polygon id="Fill-61" fill="#8E4647" points="91.6729 85.4158 93.8229 89.5788 97.6579 92.0388 101.6679 94.2238 106.0339 95.6848 110.5389 96.7018 115.1469 97.0048 119.7499 97.0358 124.3639 97.1408 128.9609 96.6858 133.4589 95.6478 137.8549 94.2798 142.2559 92.7488 145.5269 89.4458 147.5579 85.4158 145.6589 81.2698 141.9059 78.6848 137.7419 76.8528 133.4539 75.2018 128.8799 74.6878 124.3809 73.4618 119.7499 73.7908 115.1469 73.8188 110.5719 74.3518 106.1329 75.5558 101.7469 76.8228 97.2949 78.1688 93.6709 81.1198"></polygon>
                <path d="M115.2686,94.1014 C115.4146,92.9284 113.8566,86.1264 113.8566,86.1264 L113.7556,85.1074 L114.8396,85.7434 L115.0996,85.8434 L115.3366,85.9754 L115.7706,88.5384 L116.1346,92.3894 L116.2046,94.1424 C115.8916,94.1314 115.5806,94.1184 115.2686,94.1014" id="Fill-63" fill="#007743"></path>
                <path d="M120.0928,93.8446 C119.9378,92.8556 121.5738,87.1136 121.5738,87.1136 L121.6818,86.2516 L120.5428,86.7896 L120.2708,86.8736 L120.0228,86.9836 L119.5658,89.1476 L119.1838,92.4006 L119.1108,93.8786 C119.4378,93.8696 119.7648,93.8586 120.0928,93.8446" id="Fill-65" fill="#007743"></path>
                <path d="M108.5415,93.6961 C109.0555,92.6321 109.7465,85.6871 109.7465,85.6871 L109.9755,84.6881 L110.8005,85.6361 L111.0155,85.8151 L111.1975,86.0141 L110.7915,88.5831 L109.9085,92.3491 L109.4165,94.0331 C109.1235,93.9241 108.8325,93.8101 108.5415,93.6961" id="Fill-67" fill="#007743"></path>
                <path d="M124.8379,94.3836 C124.9209,93.7256 124.0479,89.9126 124.0479,89.9126 L123.9909,89.3416 L124.5979,89.6976 L124.7439,89.7546 L124.8769,89.8276 L125.1209,91.2646 L125.3239,93.4246 L125.3629,94.4056 C125.1889,94.4016 125.0129,94.3926 124.8379,94.3836" id="Fill-69" fill="#007743"></path>
                <path d="M155.0029,15.9061 L155.2629,18.5261 L156.4999,20.8501 L158.0749,22.9911 L160.3619,24.3551 L162.8749,25.1201 L164.6039,25.4551 C165.1679,25.5651 165.7509,25.5121 166.2869,25.3031 C166.2869,25.3031 169.5259,25.7421 171.5449,23.7831 L174.5299,20.9151 L175.4989,18.4721 L176.0099,15.9061 L175.6579,13.2901 L174.5019,10.9161 L172.6769,9.0301 L170.5089,7.5861 L168.0839,6.5871 L165.4669,6.4231 L162.8389,6.5351 L160.4029,7.5411 L158.3229,9.1061 L156.3989,10.8941 L155.2659,13.2871 L155.0029,15.9061 Z" id="Fill-71" fill="#DB775D"></path>
                <polygon id="Fill-73" fill="#32313E" points="168.6328 17.2186 168.6558 17.4496 168.7648 17.6546 168.9038 17.8436 169.1058 17.9646 169.3288 18.0326 169.5578 18.0766 169.7918 18.0556 170.0148 17.9766 170.1958 17.8276 170.3578 17.6606 170.4438 17.4456 170.4878 17.2186 170.4588 16.9876 170.3568 16.7776 170.1948 16.6106 170.0028 16.4836 169.7878 16.3946 169.5578 16.3806 169.3248 16.3886 169.1108 16.4786 168.9258 16.6166 168.7558 16.7746 168.6558 16.9866"></polygon>
                <path d="M166.1465,20.7322 L162.4795,20.6022 C162.4795,20.6022 163.6525,24.3792 166.1465,20.7322" id="Fill-75" fill="#AF2243"></path>
                <g id="Group-79" transform="translate(152.000000, 0.076000)">
                    <mask id="mask-2" fill="white">
                        <use xlink:href="#path-1"></use>
                    </mask>
                    <g id="Clip-78"></g>
                    <path d="M18.5801,1.6255 L23.5941,4.6725 C23.7221,4.7505 23.8231,4.8625 23.8851,4.9985 L25.8371,9.1935 C25.8691,9.2625 25.8891,9.3355 25.8961,9.4105 L26.3941,13.9825 C26.4031,14.0685 26.4001,14.1555 26.3791,14.2385 C26.1531,15.1205 25.7591,18.5175 24.5231,23.6545 C24.5171,23.6715 25.5641,36.1605 25.5491,36.1705 C24.0841,37.0645 11.5291,28.0655 11.5291,28.0655 C11.5291,28.0655 21.4611,20.9655 21.7221,20.3895 C22.4131,18.8565 22.8091,16.8655 21.9011,14.7475 C21.3181,13.3825 20.2801,14.0115 18.7071,9.5605 C18.5561,9.1365 18.0501,8.9735 17.6721,9.2175 C16.7461,9.8135 14.8311,11.4525 9.6421,10.9845 C8.5731,10.8895 7.2671,11.6755 6.6561,12.5565 C5.8611,13.6985 4.8141,13.8975 4.4391,14.4355 C4.3481,14.5685 4.3051,14.7305 4.3181,14.8925 L4.7861,20.1535 C4.7911,20.2185 4.8051,20.2805 4.8301,20.3405 C5.1471,21.1305 15.6921,29.8175 8.2441,31.5705 C6.1411,32.0655 -2.8049,38.8665 1.4461,22.7885 C1.7041,21.8205 1.3021,19.8245 1.1531,19.0435 C0.7331,16.8425 1.3981,14.1305 1.3631,12.8595 C1.3551,12.6535 1.6931,8.9605 1.7811,8.7725 L4.2081,3.7435 C4.3971,3.3425 4.7481,3.0405 5.1721,2.9095 L11.5021,0.9545 C11.5881,0.9275 11.6791,0.9175 11.7681,0.9265 L18.2851,1.5275 C18.3901,1.5375 18.4901,1.5715 18.5801,1.6255" id="Fill-77" fill="#994C24" mask="url(#mask-2)"></path>
                </g>
                <polygon id="Fill-80" fill="#32313E" points="158.9453 16.6278 158.9673 16.8588 159.0773 17.0648 159.2163 17.2538 159.4183 17.3748 159.6403 17.4418 159.8703 17.4868 160.1033 17.4658 160.3273 17.3868 160.5073 17.2368 160.6703 17.0698 160.7553 16.8548 160.8013 16.6278 160.7693 16.3968 160.6673 16.1878 160.5063 16.0208 160.3143 15.8928 160.1003 15.8038 159.8703 15.7898 159.6353 15.7998 159.4233 15.8888 159.2373 16.0268 159.0673 16.1858 158.9673 16.3968"></polygon>
                <polygon id="Fill-82" fill="#DB775D" points="169.2617 23.8123 169.1277 26.4753 169.1947 30.4013 164.6807 31.0663 158.6807 31.5983 159.4797 27.1403 160.0767 23.5463"></polygon>
                <path d="M164.6934,53.6048 L165.6854,54.1238 C166.4674,54.5318 166.9764,55.3208 167.0254,56.2008 L167.1514,58.4458 C167.1764,58.8978 167.0784,59.3488 166.8684,59.7508 L166.5644,60.3308 C166.4024,60.6378 166.1774,60.9098 165.9044,61.1258 L162.3264,63.9638 C162.0544,64.1798 161.7424,64.3358 161.4094,64.4228 L154.0014,66.3758 L150.9344,67.2948 L158.8684,64.8228 C159.0004,64.7808 159.1344,64.7508 159.2704,64.7318 L166.3684,63.7498 C166.4254,63.7418 166.4844,63.7318 166.5394,63.7198 L168.3414,63.3438 C168.8314,63.2408 169.3394,63.2868 169.8014,63.4758 L170.5644,63.7878 C171.3324,64.1018 171.8934,64.7758 172.0644,65.5878 L172.1614,66.0468 C172.2404,66.4248 172.2324,66.8148 172.1354,67.1878 L171.7554,68.6588 C171.4834,69.7088 170.5664,70.4658 169.4814,70.5298 C167.2754,70.6608 163.8164,70.8688 163.5714,70.9148 C163.2094,70.9818 152.1544,75.3888 151.6724,75.4788 C151.3144,75.5438 148.9444,75.3258 147.7494,75.2098 C147.3004,75.1658 146.8744,75.0028 146.5124,74.7368 L143.1644,72.2778 C142.5124,71.7978 142.1314,71.0318 142.1444,70.2228 L142.2234,65.2638 C142.2344,64.6468 142.4714,64.0548 142.8904,63.6038 L145.6494,60.6288 C145.8854,60.3738 146.1724,60.1698 146.4924,60.0318 L150.3724,57.6128 C150.5534,57.5348 151.7534,57.7388 151.9094,57.6188 L157.2034,53.6508 C157.6614,53.3088 158.2194,53.1318 158.7924,53.1518 L163.6234,53.3218 C163.9954,53.3348 164.3624,53.4318 164.6934,53.6048" id="Fill-84" fill="#1A3C68"></path>
                <path d="M177.0664,66.743 L180.9654,65.119 C181.3044,64.977 181.6744,64.921 182.0414,64.954 L183.5124,65.088 C183.9444,65.127 184.3464,65.323 184.6424,65.638 L185.7184,66.781 C185.9974,67.077 186.1814,67.448 186.2534,67.848 L186.6544,70.152 C186.6544,70.152 187.9144,76.337 184.2334,76.827 C182.8954,77.006 180.7474,77.172 180.3794,76.314 C180.0104,75.455 180.6244,73.123 180.6244,73.123 L178.4174,73.86 L177.0664,66.743 Z" id="Fill-86" fill="#32313E"></path>
                <g id="Group-90" transform="translate(181.000000, 51.076000)" fill="#007743">
                    <path d="M2.3848,5.8232 C2.3858,5.8202 2.3868,5.8162 2.3878,5.8112 C2.3228,6.6982 2.2488,6.5482 2.4468,7.7882 C2.5708,8.5742 3.8478,10.3282 4.7488,10.5222 C4.9928,10.5742 5.2248,10.6742 5.4748,10.6722 C6.4878,10.6612 7.4778,10.1122 8.0228,9.2592 C8.4838,8.5392 8.6218,7.6692 8.7498,6.8252 C8.8368,6.2492 8.9248,5.6612 8.8178,5.0912 C8.7528,4.7562 8.6238,4.4372 8.4958,4.1212 C7.9598,2.7992 7.4228,1.5522 6.7148,0.3172 C6.5518,0.0312 2.8648,0.6332 2.3618,0.6752 C2.0178,1.8872 1.6758,3.0802 1.3008,4.2862 C0.9678,5.3652 0.4568,7.0242 1.3778,7.5762 C2.2138,7.6952 2.2338,6.4592 2.3848,5.8232" id="Fill-88"></path>
                </g>
                <polygon id="Fill-91" fill="#32313E" points="137.6392 65.2523 135.8372 57.7203 134.9032 54.0583 134.4612 51.6013 133.4512 51.2483 132.2062 52.6953 133.1682 54.8373 134.1902 58.5333 135.6932 63.2843 136.4012 65.7883"></polygon>
                <polygon id="Fill-93" fill="#A5A7A9" points="142.2393 67.2591 140.2153 64.9901 137.9273 64.8521 135.5523 65.6031 134.5723 67.6511 133.9583 69.7751 136.2283 72.9641 141.0733 77.6881 142.2393 72.0441"></polygon>
                <polygon id="Fill-95" fill="#32313E" points="138.0068 65.3572 139.5398 71.9822 136.1048 66.0322"></polygon>
                <polygon id="Fill-97" fill="#0F6162" points="137.9907 56.929 135.0477 57.91 137.5987 62.616 140.9247 61.655"></polygon>
                <path d="M168.8467,62.0814 L173.2637,60.2414 L175.9607,60.4864 L177.2947,61.9024 C177.7007,62.3324 177.9257,62.9004 177.9257,63.4924 L177.9257,65.6394 C177.9257,65.6394 179.1527,71.4064 175.4717,71.8964 C174.1337,72.0744 172.5277,72.5104 172.1597,71.6514 C171.7907,70.7924 172.4047,68.4614 172.4047,68.4614 L170.1977,69.1974 L168.8467,62.0814 Z" id="Fill-99" fill="#32313E"></path>
                <path d="M146.6221,55.39 C146.5601,55.773 140.6061,63.001 140.6061,63.001 L136.9491,56.99 C136.9491,56.99 139.0711,53.707 139.2531,53.384 C140.9711,50.316 142.9181,47.664 143.2081,46.94 C143.5761,46.021 145.5791,39.863 148.1441,36.223 C150.7201,32.569 157.0661,28.531 158.7371,28.546 C158.9481,28.55 159.3671,28.688 159.5651,28.763 C162.0851,29.721 161.7451,29.651 163.0821,30.011 C163.2921,30.067 164.6951,40.903 164.9111,40.891 C169.6111,40.638 178.1341,39.241 180.6091,43.236 L182.5491,49.313 C182.5531,49.367 182.5581,49.42 182.5641,49.474 L182.6521,50.982 C182.6721,51.322 182.7791,51.639 182.9521,51.912 C184.6691,51.758 186.7571,51.304 188.4801,51.284 C188.6851,50.965 188.7991,50.586 188.7931,50.193 L188.1201,42.03 C188.1141,41.707 187.5731,39.7 187.4151,39.418 C187.4151,39.418 184.0991,33.764 178.2551,31.693 L169.3251,28.822 L165.3571,30.542 C165.2711,30.579 166.5011,33.031 166.4121,33.055 L164.1311,33.693 C163.6901,33.573 163.2221,33.611 162.8071,33.801 C162.8071,33.801 154.0701,42.661 153.9301,43.248 L150.3721,49.273 C150.3621,49.322 146.6221,55.39 146.6221,55.39" id="Fill-101" fill="#FED800"></path>
                <path d="M173.6631,56.575 L174.6681,57.101 C175.4001,57.483 175.9421,58.149 176.1671,58.944 L176.4771,60.042 C176.6451,60.633 176.6271,61.262 176.4271,61.842 L175.8431,63.528 C175.7031,63.931 175.4781,64.301 175.1851,64.611 L174.0071,65.856 C173.6251,66.258 172.5811,67.393 172.0461,67.537 L160.6811,70.023 L157.6121,70.944 L165.5081,68.483 C165.6661,68.432 165.8261,68.397 165.9901,68.374 L173.0311,67.401 C173.0991,67.39 173.1671,67.378 173.2341,67.365 L174.8721,67.022 C175.4581,66.899 176.6751,66.084 177.2291,66.311 L180.1871,73.336 C180.1871,73.336 177.5321,74.296 176.7561,74.684 C175.0391,75.539 172.1011,76.994 171.8451,77.04 C171.4831,77.107 162.1211,79.645 161.6391,79.734 C161.2321,79.809 155.3111,79.758 153.4371,79.741 C153.0631,79.737 152.6971,79.664 152.3501,79.523 L148.5031,77.975 C147.1571,77.434 146.3911,76.009 146.6831,74.588 L147.6011,70.107 C147.7671,69.304 148.2531,68.602 148.9481,68.167 L153.2261,65.485 L157.3331,62.653 C157.3971,62.608 157.4611,62.561 157.5221,62.511 L163.7151,57.479 C164.2781,57.021 164.9881,56.783 165.7141,56.809 L170.1861,56.966 C170.6361,56.981 173.2651,56.367 173.6631,56.575" id="Fill-103" fill="#1A3C68"></path>
                <path d="M174.1221,32.5867 C174.1221,32.5867 175.4241,44.9937 175.6171,48.9217 C175.8281,53.1507 175.8281,58.4917 175.8281,58.4917 L159.4011,58.9017 L150.3731,57.6127 C150.3731,57.6127 153.8811,36.8187 154.8001,34.9787 C155.7211,33.1387 163.0821,30.0107 163.0821,30.0107 L174.1221,32.5867 Z" id="Fill-105" fill="#FED800"></path>
                <path d="M136.8823,57.6502 L135.5283,56.8792 L133.3353,57.1952 L131.9443,58.0342 C131.9443,58.0342 130.9083,60.3452 131.3063,60.8842 C131.7053,61.4232 132.5813,63.1952 133.5363,63.5802 C134.4913,63.9642 137.2793,64.1952 137.9973,63.5042 C138.7143,62.8092 139.0323,61.5772 138.7143,60.6532 C138.3953,59.7292 137.3603,57.8032 136.8823,57.6502" id="Fill-107" fill="#007743"></path>
                <polyline id="Fill-109" fill="#007743" points="110.1416 66.6815 111.0326 78.9365 109.9786 79.0145 109.0876 66.7575"></polyline>
                <polygon id="Fill-111" fill="#AF2243" points="113.1694 61.013 113.1474 64.5 110.9294 66.821 109.3174 67.463 107.6694 66.745 106.5134 64.375 106.1144 60.626 108.3014 62.274 109.7574 59.772 111.4744 62.491"></polygon>
                <polyline id="Fill-113" fill="#007743" points="110.0518 75.5404 109.4738 74.2464 108.6218 73.1194 107.3778 72.5324 106.0518 72.4784 104.7718 72.6424 105.3098 73.8444 106.0198 74.9894 107.0758 75.7744 108.6998 75.9054 110.3278 75.7194"></polyline>
                <polyline id="Fill-115" fill="#007743" points="113.3999 70.1658 112.5339 69.9848 111.6519 70.0028 110.9009 70.4178 110.3889 71.0708 110.0039 71.7758 110.8079 71.9438 111.6469 72.0028 112.4299 71.7568 113.0899 70.9818 113.5909 70.0918"></polyline>
                <polyline id="Fill-117" fill="#007743" points="104.0566 74.8314 105.8596 83.5534 105.3416 83.6604 103.5396 74.9374"></polyline>
                <polygon id="Fill-119" fill="#FED800" points="105.812 70.4456 106.126 72.9546 104.753 74.8326 103.656 75.4456 102.403 75.0866 101.348 73.4926 100.706 70.8366 102.434 71.8146 103.241 69.8786 104.734 71.6696"></polygon>
                <polyline id="Fill-121" fill="#007743" points="104.9478 81.1824 104.4098 80.3064 103.6908 79.5774 102.7418 79.2734 101.7828 79.3614 100.8798 79.5984 101.3798 80.4114 101.9978 81.1674 102.8328 81.6324 104.0118 81.5724 105.1638 81.2844"></polyline>
                <polyline id="Fill-123" fill="#007743" points="106.8452 77.0028 106.2052 76.9548 105.5742 77.0518 105.0732 77.4198 104.7672 77.9368 104.5562 78.4818 105.1512 78.5248 105.7592 78.4878 106.2992 78.2368 106.7002 77.6178 106.9752 76.9308"></polyline>
                <polyline id="Fill-125" fill="#007743" points="142.4717 76.0482 141.4577 84.8992 140.9337 84.8392 141.9477 75.9892"></polyline>
                <polygon id="Fill-127" fill="#FED800" points="145.5088 72.432 145.0238 74.913 143.1318 76.269 141.8978 76.508 140.8218 75.776 140.3158 73.932 140.5358 71.208 141.8708 72.676 143.2448 71.09 144.1028 73.257"></polygon>
                <polyline id="Fill-129" fill="#007743" points="141.334 82.3612 141.097 81.3622 140.642 80.4432 139.834 79.8592 138.897 79.6432 137.964 79.5862 138.186 80.5152 138.537 81.4252 139.183 82.1282 140.322 82.4402 141.507 82.5262"></polyline>
                <polyline id="Fill-131" fill="#007743" points="144.4414 78.9832 143.8494 78.7372 143.2174 78.6322 142.6274 78.8262 142.1764 79.2212 141.8064 79.6722 142.3564 79.9002 142.9454 80.0552 143.5384 79.9852 144.1114 79.5232 144.5884 78.9552"></polyline>
                <polyline id="Fill-133" fill="#007743" points="111.479 74.9915 113.281 83.7155 112.764 83.8225 110.962 75.0975"></polyline>
                <polygon id="Fill-135" fill="#EB7DAE" points="113.2349 70.6072 113.5479 73.1162 112.1749 74.9932 111.0779 75.6072 109.8259 75.2482 108.7699 73.6532 108.1279 70.9982 109.8559 71.9752 110.6639 70.0392 112.1569 71.8302"></polygon>
                <polyline id="Fill-137" fill="#007743" points="112.3706 81.3436 111.8326 80.4676 111.1126 79.7396 110.1636 79.4346 109.2056 79.5226 108.3016 79.7606 108.8016 80.5726 109.4206 81.3276 110.2536 81.7936 111.4336 81.7336 112.5856 81.4456"></polyline>
                <polyline id="Fill-139" fill="#007743" points="114.2681 77.1624 113.6281 77.1144 112.9971 77.2114 112.4951 77.5804 112.1901 78.0984 111.9791 78.6424 112.5741 78.6864 113.1811 78.6494 113.7221 78.3984 114.1231 77.7794 114.3981 77.0914"></polyline>
                <polyline id="Fill-141" fill="#007743" points="120.6631 74.7855 119.3081 83.5905 118.7861 83.5095 120.1411 74.7055"></polyline>
                <polygon id="Fill-143" fill="#FED800" points="123.8384 71.2899 123.2574 73.7499 121.3154 75.0309 120.0724 75.2219 119.0254 74.4489 118.5914 72.5879 118.9164 69.8729 120.1944 71.3929 121.6284 69.8609 122.4014 72.0589"></polygon>
                <polyline id="Fill-145" fill="#007743" points="119.2817 81.0487 119.0827 80.0417 118.6627 79.1067 117.8807 78.4907 116.9517 78.2377 116.0227 78.1457 116.2067 79.0827 116.5237 80.0057 117.1417 80.7327 118.2687 81.0877 119.4487 81.2197"></polyline>
                <polyline id="Fill-147" fill="#007743" points="122.5195 77.7938 121.9365 77.5258 121.3105 77.3958 120.7115 77.5658 120.2455 77.9448 119.8585 78.3808 120.3995 78.6298 120.9825 78.8088 121.5765 78.7608 122.1675 78.3198 122.6655 77.7718"></polyline>
                <polyline id="Fill-149" fill="#007743" points="135.2632 73.5516 137.0652 82.2756 136.5482 82.3826 134.7462 73.6576"></polyline>
                <polygon id="Fill-151" fill="#EB7DAE" points="137.019 69.1673 137.332 71.6763 135.959 73.5533 134.861 74.1673 133.609 73.8083 132.554 72.2133 131.911 69.5583 133.64 70.5343 134.448 68.5993 135.939 70.3903"></polygon>
                <polyline id="Fill-153" fill="#007743" points="136.1548 79.9027 135.6168 79.0277 134.8978 78.2987 133.9478 77.9937 132.9888 78.0817 132.0858 78.3197 132.5858 79.1337 133.2048 79.8887 134.0378 80.3537 135.2188 80.2947 136.3688 80.0057"></polyline>
                <polyline id="Fill-155" fill="#007743" points="138.0518 75.723 137.4118 75.675 136.7808 75.772 136.2788 76.141 135.9728 76.659 135.7628 77.202 136.3578 77.246 136.9648 77.209 137.5058 76.957 137.9058 76.34 138.1818 75.651"></polyline>
                <polyline id="Fill-157" fill="#007743" points="116.7168 70.2567 115.6718 80.4257 114.6198 80.3177 115.6658 70.1487"></polyline>
                <polygon id="Fill-159" fill="#1A3C68" points="119.9302 66.0433 119.4062 68.8973 117.2542 70.4763 115.8402 70.7683 114.5952 69.9423 113.9912 67.8333 114.2072 64.7053 115.7612 66.3723 117.3142 64.5333 118.3272 67.0093"></polygon>
                <polyline id="Fill-161" fill="#007743" points="115.2715 77.492 114.9845 76.348 114.4495 75.301 113.5175 74.64 112.4385 74.405 111.3665 74.352 111.6335 75.414 112.0485 76.455 112.7995 77.253 114.1105 77.595 115.4715 77.678"></polyline>
                <polyline id="Fill-163" fill="#007743" points="118.7935 73.5745 118.1095 73.3015 117.3835 73.1875 116.7095 73.4185 116.1955 73.8785 115.7775 74.4005 116.4125 74.6555 117.0895 74.8255 117.7685 74.7375 118.4205 74.1975 118.9595 73.5405"></polyline>
                <polyline id="Fill-165" fill="#007743" points="105.5664 82.2279 107.4134 92.2809 106.3734 92.4729 104.5264 82.4179"></polyline>
                <polygon id="Fill-167" fill="#1A3C68" points="107.4688 77.2825 107.7658 80.1675 106.1428 82.2885 104.8678 82.9645 103.4408 82.5215 102.2698 80.6655 101.6008 77.6015 103.5588 78.7665 104.5348 76.5655 106.2018 78.6585"></polygon>
                <polyline id="Fill-169" fill="#007743" points="106.2075 89.578 105.6115 88.559 104.8045 87.705 103.7235 87.332 102.6225 87.41 101.5795 87.659 102.1325 88.605 102.8225 89.487 103.7675 90.041 105.1225 90.001 106.4515 89.7"></polyline>
                <polyline id="Fill-171" fill="#007743" points="108.4888 84.8289 107.7568 84.7589 107.0288 84.8539 106.4448 85.2649 106.0808 85.8499 105.8258 86.4699 106.5068 86.5339 107.2058 86.5079 107.8318 86.2329 108.3068 85.5329 108.6398 84.7519"></polyline>
                <polyline id="Fill-173" fill="#007743" points="140.4326 80.3284 141.3696 89.5054 140.4186 89.6024 139.4846 80.4244"></polyline>
                <polygon id="Fill-175" fill="#1A3C68" points="142.5029 76.0169 142.5609 78.6349 140.9469 80.4249 139.7519 80.9399 138.4999 80.4389 137.5809 78.6839 137.1999 75.8799 138.8779 77.0699 139.9149 75.1599 141.2639 77.1629"></polygon>
                <polyline id="Fill-177" fill="#007743" points="140.4785 86.9871 140.0165 86.0281 139.3505 85.2011 138.4065 84.7871 137.4095 84.7771 136.4535 84.9271 136.8835 85.8161 137.4415 86.6601 138.2495 87.2281 139.4705 87.2901 140.6895 87.1161"></polyline>
                <polyline id="Fill-179" fill="#007743" points="142.874 82.8807 142.222 82.7647 141.559 82.7977 141.004 83.1247 140.635 83.6237 140.361 84.1627 140.968 84.2717 141.598 84.2977 142.183 84.0967 142.66 83.5007 143.016 82.8207"></polyline>
                <polyline id="Fill-181" fill="#007743" points="127.3203 70.9661 126.2753 81.1351 125.2233 81.0261 126.2703 70.8591"></polyline>
                <polygon id="Fill-183" fill="#1A3C68" points="130.5337 66.7542 130.0097 69.6072 127.8577 71.1872 126.4447 71.4782 125.1987 70.6522 124.5957 68.5442 124.8107 65.4142 126.3647 67.0822 127.9187 65.2422 128.9317 67.7192"></polygon>
                <polyline id="Fill-185" fill="#007743" points="125.875 78.2015 125.588 77.0575 125.054 76.0105 124.121 75.3495 123.042 75.1155 121.971 75.0625 122.237 76.1245 122.653 77.1655 123.403 77.9625 124.715 78.3055 126.075 78.3885"></polyline>
                <polyline id="Fill-187" fill="#007743" points="129.397 74.2835 128.714 74.0105 127.987 73.8975 127.313 74.1285 126.8 74.5885 126.381 75.1105 127.017 75.3655 127.694 75.5345 128.372 75.4475 129.024 74.9085 129.564 74.2505"></polyline>
                <polyline id="Fill-189" fill="#007743" points="130.7891 77.14 131.2441 83.399 130.7061 83.438 130.2501 77.18"></polyline>
                <polygon id="Fill-191" fill="#AF2243" points="132.3359 74.2454 132.3239 76.0264 131.1909 77.2114 130.3679 77.5384 129.5269 77.1734 128.9369 75.9624 128.7319 74.0484 129.8499 74.8894 130.5929 73.6114 131.4699 75.0004"></polygon>
                <polyline id="Fill-193" fill="#007743" points="130.7437 81.6654 130.4477 81.0044 130.0137 80.4284 129.3777 80.1274 128.7007 80.1014 128.0467 80.1844 128.3217 80.7984 128.6837 81.3824 129.2237 81.7834 130.0527 81.8514 130.8847 81.7564"></polyline>
                <polyline id="Fill-195" fill="#007743" points="132.4531 78.9202 132.0111 78.8272 131.5601 78.8372 131.1771 79.0482 130.9151 79.3812 130.7181 79.7422 131.1301 79.8282 131.5571 79.8572 131.9581 79.7322 132.2941 79.3362 132.5511 78.8812"></polyline>
                <polyline id="Fill-197" fill="#007743" points="136.7271 86.2274 137.1821 92.4874 136.6441 92.5264 136.1881 86.2674"></polyline>
                <polygon id="Fill-199" fill="#AF2243" points="138.2734 83.3328 138.2604 85.1148 137.1284 86.2998 136.3054 86.6258 135.4634 86.2608 134.8744 85.0508 134.6704 83.1368 135.7874 83.9788 136.5304 82.6998 137.4074 84.0888"></polygon>
                <polyline id="Fill-201" fill="#007743" points="136.6812 90.7528 136.3862 90.0928 135.9502 89.5168 135.3152 89.2178 134.6382 89.1898 133.9842 89.2728 134.2592 89.8868 134.6212 90.4718 135.1612 90.8738 135.9912 90.9398 136.8232 90.8458"></polyline>
                <polyline id="Fill-203" fill="#007743" points="138.3906 88.0086 137.9486 87.9166 137.4976 87.9246 137.1146 88.1376 136.8526 88.4696 136.6566 88.8306 137.0666 88.9166 137.4956 88.9456 137.8956 88.8206 138.2326 88.4256 138.4896 87.9706"></polyline>
                <polyline id="Fill-205" fill="#007743" points="98.5879 73.6278 99.2209 80.8148 98.6029 80.8698 97.9689 73.6818"></polyline>
                <polygon id="Fill-207" fill="#AF2243" points="100.3149 70.2723 100.3329 72.3203 99.0509 73.7033 98.1109 74.0943 97.1369 73.6883 96.4379 72.3063 96.1699 70.1093 97.4679 71.0573 98.2999 69.5743 99.3329 71.1553"></polygon>
                <polyline id="Fill-209" fill="#007743" points="98.6143 78.8304 98.2633 78.0754 97.7523 77.4214 97.0173 77.0874 96.2393 77.0684 95.4893 77.1754 95.8153 77.8764 96.2423 78.5424 96.8693 78.9944 97.8233 79.0564 98.7783 78.9324"></polyline>
                <polyline id="Fill-211" fill="#007743" points="100.5317 75.6434 100.0217 75.5464 99.5047 75.5644 99.0667 75.8134 98.7727 76.2024 98.5527 76.6194 99.0257 76.7114 99.5187 76.7394 99.9767 76.5864 100.3577 76.1264 100.6437 75.5984"></polyline>
                <polyline id="Fill-213" fill="#007743" points="125.4399 79.2811 127.2419 88.0061 126.7259 88.1121 124.9229 79.3891"></polyline>
                <polygon id="Fill-215" fill="#EB7DAE" points="127.1958 74.8973 127.5088 77.4063 126.1358 79.2843 125.0388 79.8963 123.7868 79.5383 122.7318 77.9443 122.0898 75.2883 123.8168 76.2653 124.6258 74.3283 126.1178 76.1203"></polygon>
                <polyline id="Fill-217" fill="#007743" points="126.3311 85.6336 125.7941 84.7576 125.0741 84.0286 124.1251 83.7236 123.1671 83.8126 122.2631 84.0496 122.7631 84.8646 123.3811 85.6176 124.2161 86.0836 125.3951 86.0226 126.5471 85.7356"></polyline>
                <polyline id="Fill-219" fill="#007743" points="128.229 81.452 127.589 81.405 126.957 81.503 126.457 81.871 126.151 82.388 125.94 82.932 126.535 82.976 127.142 82.939 127.683 82.688 128.084 82.07 128.358 81.381"></polyline>
                <polyline id="Fill-221" fill="#007743" points="131.7866 84.0067 130.7416 94.1757 129.6896 94.0667 130.7376 83.8977"></polyline>
                <polygon id="Fill-223" fill="#1A3C68" points="135.0005 79.7933 134.4765 82.6473 132.3235 84.2253 130.9105 84.5183 129.6645 83.6923 129.0615 81.5833 129.2775 78.4543 130.8315 80.1223 132.3845 78.2823 133.3965 80.7583"></polygon>
                <polyline id="Fill-225" fill="#007743" points="130.3413 91.242 130.0553 90.097 129.5203 89.05 128.5873 88.389 127.5083 88.154 126.4373 88.102 126.7033 89.164 127.1193 90.204 127.8693 91.002 129.1803 91.344 130.5413 91.428"></polyline>
                <polyline id="Fill-227" fill="#007743" points="133.8638 87.324 133.1788 87.051 132.4538 86.938 131.7778 87.168 131.2658 87.629 130.8468 88.151 131.4828 88.404 132.1598 88.576 132.8388 88.486 133.4898 87.948 134.0298 87.291"></polyline>
                <polyline id="Fill-229" fill="#007743" points="117.4248 81.3465 118.7778 87.8945 118.3878 87.9735 117.0368 81.4265"></polyline>
                <polygon id="Fill-231" fill="#FED800" points="118.7427 78.0555 118.9787 79.9385 117.9477 81.3485 117.1237 81.8075 116.1837 81.5395 115.3907 80.3425 114.9097 78.3495 116.2067 79.0825 116.8137 77.6295 117.9337 78.9745"></polygon>
                <polyline id="Fill-233" fill="#007743" points="118.0942 86.1131 117.6902 85.4581 117.1502 84.9101 116.4382 84.6801 115.7192 84.7471 115.0392 84.9251 115.4152 85.5371 115.8802 86.1021 116.5062 86.4521 117.3902 86.4071 118.2552 86.1901"></polyline>
                <polyline id="Fill-235" fill="#007743" points="119.5176 82.9759 119.0376 82.9409 118.5636 83.0129 118.1876 83.2899 117.9576 83.6779 117.8006 84.0869 118.2456 84.1199 118.7026 84.0919 119.1076 83.9029 119.4096 83.4379 119.6146 82.9229"></polyline>
                <polyline id="Fill-237" fill="#007743" points="98.186 81.5819 99.988 90.3059 99.471 90.4129 97.669 81.6879"></polyline>
                <polygon id="Fill-239" fill="#EB7DAE" points="99.9419 77.1981 100.2549 79.7051 98.8819 81.5851 97.7839 82.1981 96.5319 81.8381 95.4759 80.2451 94.8349 77.5871 96.5629 78.5661 97.3709 76.6301 98.8629 78.4201"></polygon>
                <polyline id="Fill-241" fill="#007743" points="99.0776 87.9334 98.5386 87.0574 97.8206 86.3294 96.8706 86.0234 95.9126 86.1124 95.0086 86.3514 95.5096 87.1634 96.1276 87.9184 96.9606 88.3844 98.1406 88.3244 99.2926 88.0364"></polyline>
                <polyline id="Fill-243" fill="#007743" points="100.9746 83.7537 100.3346 83.7057 99.7036 83.8027 99.2026 84.1717 98.8956 84.6877 98.6856 85.2327 99.2806 85.2767 99.8886 85.2397 100.4286 84.9887 100.8296 84.3707 101.1046 83.6827"></polyline>
            </g>
        </g>
    </g>
</svg>