<?xml version="1.0" encoding="UTF-8"?>
<svg width="800px" height="600px" viewBox="0 0 800 600" version="1.1" xmlns="http://www.w3.org/2000/svg" xmlns:xlink="http://www.w3.org/1999/xlink">
    <!-- Generator: Sketch 48.2 (47327) - http://www.bohemiancoding.com/sketch -->
    <title>work</title>
    <desc>Created with Sketch.</desc>
    <defs>
        <polygon id="path-1" points="0 0.268669638 21.966102 0.268669638 21.966102 21.9907255 0 21.9907255"></polygon>
        <polygon id="path-3" points="0.360803639 0.189352941 22.8425585 0.189352941 22.8425585 36.9582988 0.360803639 36.9582988"></polygon>
        <polygon id="path-5" points="0.0195802469 0.268210536 27.5826667 0.268210536 27.5826667 12.7223633 0.0195802469 12.7223633"></polygon>
        <polygon id="path-7" points="0.2988 0.158185714 11.9645778 0.158185714 11.9645778 12 0.2988 12"></polygon>
        <polygon id="path-9" points="0.274153434 0.29243964 22.9990275 0.29243964 22.9990275 31.8478321 0.274153434 31.8478321"></polygon>
        <polygon id="path-11" points="0.328475912 0.172607656 19.8197543 0.172607656 19.8197543 19.9749043 0.328475912 19.9749043"></polygon>
        <polygon id="path-13" points="0.651959965 0.264421053 20.7488942 0.264421053 20.7488942 15.7167158 0.651959965 15.7167158"></polygon>
        <polygon id="path-15" points="0 0.692685714 22.1269302 0.692685714 22.1269302 18.9996381 0 18.9996381"></polygon>
        <polygon id="path-17" points="0.186687647 0.786086957 19.667394 0.786086957 19.667394 19.6172174 0.186687647 19.6172174"></polygon>
        <polygon id="path-19" points="0.172765385 0.179096407 22.6735769 0.179096407 22.6735769 13.44945 0.172765385 13.44945"></polygon>
        <polygon id="path-21" points="0.430713653 0.016852459 87.3577313 0.016852459 87.3577313 79.9998033 0.430713653 79.9998033"></polygon>
    </defs>
    <g id="Page-1" stroke="none" stroke-width="1" fill="none" fill-rule="evenodd">
        <g id="work">
            <ellipse id="Oval" fill="#F3F3F3" cx="399.5" cy="300.5" rx="350.5" ry="169.5"></ellipse>
            <g id="Bushes" transform="translate(165.000000, 234.500000) scale(-1, 1) translate(-165.000000, -234.500000) translate(126.000000, 204.000000)" fill-rule="nonzero">
                <path d="M31.4294114,58.6319157 L24.7012327,54.0163019 C24.7012327,54.0163019 17.8508181,51.6501725 15.7539514,48.2648677 C13.6570848,44.8808662 12.4795885,41.0863272 12.3189913,40.2763303 C12.1557933,39.4663334 11.5283588,35.1224562 12.6700945,32.663793 C13.8098797,30.2083881 15.1986882,29.9711887 15.4256049,29.3788418 C15.6525216,28.7877982 15.1284675,22.3149911 16.317017,18.7798075 C17.5062168,15.2478821 19.7857872,13.1209072 20.4034688,12.7468619 C21.0205003,12.3734684 23.4938276,10.8590413 25.9326949,10.1428816 C28.3683111,9.42867673 29.5471078,9.96172377 29.5471078,9.96172377 C29.5471078,9.96172377 31.6654308,6.34378105 34.0126211,4.34713543 C36.3572106,2.34853486 39.7752658,1.00027775 39.7752658,1.00027775 L45.900067,0 C45.900067,0 48.8187753,0.3401596 51.3213613,2.54207395 C53.8245975,4.73877512 53.8323998,8.88259676 53.8323998,8.88259676 C53.8323998,8.88259676 57.1971393,7.05668258 61.1503018,6.61291115 C65.0995633,6.16848807 66.8979922,7.8836223 66.8979922,7.8836223 C66.8979922,7.8836223 70.2646822,13.060304 70.4369829,13.6695937 C70.6079832,14.2795351 72.6248763,18.3138801 72.0741644,21.575372 C71.5208517,24.8381673 69.0475243,30.7297055 69.0475243,30.7297055 C69.0475243,30.7297055 72.2022521,29.6570949 74.8433288,30.9981839 C77.4857058,32.3399246 77.9551439,37.3054728 77.9551439,37.3054728 C77.9551439,37.3054728 78.1521518,41.7321091 77.7204249,42.3140296 C77.2984508,42.8985568 73.2399572,48.3293807 73.2399572,48.3293807 L65.3277804,54.7878516 L53.8831147,59.6765055 L43.5242683,61 L36.2128681,60.6598404 L31.4294114,58.6319157" id="Fill-121" fill="#195755"></path>
                <path d="M16.7646762,59 L5.43294176,39.4954931 C5.43294176,39.4954931 -1.70503661,23.7835831 0.382473174,19.3525324 C2.4680447,14.9227741 4.7933148,13.1586253 10.3761598,12.580915 C15.9570665,12.0032048 19.4310807,19.8817771 19.4310807,19.8817771 L22.0354608,12.8943261 C22.0354608,12.8943261 25.63417,5.58764818 30.5573593,4.56793139 C35.4773181,3.54756839 37.5124948,3.70718186 41.2423599,6.67521685 C44.972871,9.64131321 40.6815556,19.5127921 40.6815556,19.5127921 C40.6815556,19.5127921 45.4794039,10.8458456 50.8949121,11.2742817 C56.3097742,11.7027179 56.5934068,14.6591211 58.8992942,19.8733763 C61.2032434,25.088924 59.8819938,28.1635834 55.013722,35.0457024 C50.1448041,41.9284676 39.4882314,59 39.4882314,59 L16.7646762,59" id="Fill-122" fill="#272931"></path>
            </g>
            <g id="House-3" transform="translate(479.000000, 83.000000)" fill-rule="nonzero">
                <polyline id="Fill-86" fill="#6A2C3F" points="15.229 19.83 4.518 69.19 3.677 91.785 154.466 91.785 150.741 47.133 144.92 21.692 15.229 19.83"></polyline>
                <polyline id="Fill-87" fill="#CA755B" points="3.677 91.785 0.328 152.019 0.881 180.239 151.67 180.239 154.466 91.785 3.677 91.785"></polyline>
                <polyline id="Fill-88" fill="#E8D2BB" points="64.824 180.239 63.66 158.308 65.988 137.84 94.627 136.713 94.627 180.239 64.824 180.239"></polyline>
                <path d="M18.247,133.826 L18.247,162.323 L44.738,162.323 C44.738,162.323 44.635,142.458 45.1,142.32 C45.567,142.183 45.1,133.826 45.1,133.826 L18.247,133.826" id="Fill-89" fill="#E8D2BB"></path>
                <polyline id="Fill-90" fill="#E8D2BB" points="19.101 108.621 19.101 126.568 44.922 126.568 46.266 98.765 29.348 96.84 19.722 97.388 19.101 108.621"></polyline>
                <path d="M109.761,100.099 L108.844,120.325 L108.844,129.599 L134.923,130.789 C134.923,130.789 135.698,117.486 135.698,117.073 C135.698,116.661 137.08,102.353 137.08,102.353 L109.761,100.099" id="Fill-91" fill="#E8D2BB"></path>
                <polyline id="Fill-92" fill="#E8D2BB" points="108.987 136.713 106.966 153.599 106.966 165.574 135.141 166.317 135.994 148.511 135.373 136.713 108.987 136.713"></polyline>
                <polyline id="Fill-93" fill="#E579A5" points="67.851 180.239 67.851 163.489 69.015 143.932 89.736 142.535 91.599 159.531 90.669 180.239 67.851 180.239"></polyline>
                <polyline id="Fill-94" fill="#E7CBAB" points="103.938 0.853 102.774 22.506 102.774 38.806 126.758 38.806 128.156 0.853 103.938 0.853"></polyline>
            </g>
            <g id="House-2" transform="translate(328.000000, 83.000000)" fill-rule="nonzero">
                <polyline id="Fill-77" fill="#6A2C3F" points="15.44 19.83 4.73 69.19 0.539 85.964 154.677 91.785 150.952 47.133 145.132 21.692 15.44 19.83"></polyline>
                <polyline id="Fill-78" fill="#CA755B" points="0.539 85.964 0.539 152.019 2.609 180.239 151.881 180.239 154.677 91.785 0.539 85.964"></polyline>
                <polyline id="Fill-79" fill="#E8D2BB" points="65.035 180.239 63.871 158.308 66.199 137.84 94.838 136.713 94.838 180.239 65.035 180.239"></polyline>
                <path d="M18.459,133.826 L18.459,162.323 L44.949,162.323 C44.949,162.323 44.846,142.458 45.311,142.32 C45.779,142.183 45.311,133.826 45.311,133.826 L18.459,133.826" id="Fill-80" fill="#E8D2BB"></path>
                <polyline id="Fill-81" fill="#E8D2BB" points="19.314 108.621 19.314 126.568 45.132 126.568 46.478 98.765 29.559 96.84 19.935 97.388 19.314 108.621"></polyline>
                <path d="M109.972,100.099 L109.055,120.325 L109.055,129.599 L135.135,130.789 C135.135,130.789 135.909,117.486 135.909,117.073 C135.909,116.661 137.291,102.353 137.291,102.353 L109.972,100.099" id="Fill-82" fill="#E8D2BB"></path>
                <polyline id="Fill-83" fill="#E8D2BB" points="109.198 136.713 107.177 153.599 107.177 165.574 135.352 166.317 136.205 148.511 135.584 136.713 109.198 136.713"></polyline>
                <polyline id="Fill-84" fill="#4F7DA5" points="68.062 180.239 68.062 163.489 69.227 143.932 89.947 142.535 91.81 159.531 90.88 180.239 68.062 180.239"></polyline>
                <polyline id="Fill-85" fill="#E7CBAB" points="104.15 0.853 102.985 22.506 102.985 38.806 126.969 38.806 128.367 0.853 104.15 0.853"></polyline>
            </g>
            <g id="House-1" transform="translate(176.000000, 83.000000)" fill-rule="nonzero">
                <polyline id="Fill-95" fill="#6A2C3F" points="15.796 19.83 5.086 69.19 0.896 85.964 152.538 85.964 151.308 47.133 145.488 21.692 15.796 19.83"></polyline>
                <polyline id="Fill-96" fill="#CA755B" points="0.896 85.964 0.896 152.019 2.965 180.239 154.609 180.239 152.538 85.964 0.896 85.964"></polyline>
                <polyline id="Fill-97" fill="#E8D2BB" points="65.391 180.239 64.226 158.308 66.555 137.84 95.194 136.713 95.194 180.239 65.391 180.239"></polyline>
                <path d="M18.815,133.826 L18.815,162.323 L45.306,162.323 C45.306,162.323 45.203,142.458 45.667,142.32 C46.134,142.183 45.667,133.826 45.667,133.826 L18.815,133.826" id="Fill-98" fill="#E8D2BB"></path>
                <polyline id="Fill-99" fill="#E8D2BB" points="19.671 108.621 19.671 126.568 45.489 126.568 46.834 98.765 29.916 96.84 20.291 97.388 19.671 108.621"></polyline>
                <path d="M110.329,100.099 L109.413,120.325 L109.413,129.599 L135.49,130.789 C135.49,130.789 136.265,117.486 136.265,117.073 C136.265,116.661 137.648,102.353 137.648,102.353 L110.329,100.099" id="Fill-100" fill="#E8D2BB"></path>
                <polyline id="Fill-101" fill="#E8D2BB" points="109.553 136.713 107.533 153.599 107.533 165.574 135.708 166.317 136.561 148.511 135.94 136.713 109.553 136.713"></polyline>
                <polyline id="Fill-102" fill="#D6BD40" points="68.418 180.239 68.418 163.489 69.582 143.932 90.305 142.535 92.167 159.531 91.236 180.239 68.418 180.239"></polyline>
                <polyline id="Fill-103" fill="#E7CBAB" points="104.506 0.853 103.342 22.506 103.342 38.806 127.325 38.806 128.722 0.853 104.506 0.853"></polyline>
            </g>
            <g id="Page-1" transform="translate(273.000000, 334.000000)">
                <path d="M42.849296,39 L41.1447005,30.1973984 L40.2924028,23.5886517 C40.2924028,23.5886517 39.6344965,20.1830033 40.2924028,18.2934121 C40.9494193,16.4025056 42.0325848,15.4392963 43.2758897,15.6585064 C44.5191946,15.8777165 45.0516582,18.3977561 45.0516582,18.3977561 C45.0516582,18.3977561 45.7051162,13.5159467 46.9693281,12.2554885 C48.2335401,10.9941535 49.9648255,10.6258805 51.2107994,11.4137217 C52.4576629,12.2015628 52.3678069,15.6585064 52.3678069,15.6585064 C52.3678069,15.6585064 53.6062187,13.4900799 54.9616212,12.7272287 C56.4531422,11.8863387 57.2698534,11.8359203 58.6199179,12.2554885 C59.9690928,12.6741798 60.5749537,14.723356 60.5749537,14.723356 L61.745751,18.2754368 C61.745751,18.2754368 62.9708178,17.6107917 64.5868917,17.7151358 C66.2029657,17.8203566 67.0023284,19.6674211 67.0023284,19.6674211 C67.0023284,19.6674211 67.9257993,22.5465268 67.9969723,24.4369949 C68.0681454,26.3270245 66.8608719,30.1973984 66.8608719,30.1973984 L65.297733,34.9779327 L63.4507913,39 L42.849296,39 Z" id="Fill-1" fill="#126061"></path>
                <g id="Group-5" transform="translate(0.000000, 15.000000)">
                    <mask id="mask-2" fill="white">
                        <use xlink:href="#path-1"></use>
                    </mask>
                    <g id="Clip-4"></g>
                    <path d="M15.6556939,21.9907255 C15.6556939,21.9907255 15.4092041,20.090098 14.0133265,17.5212745 C12.617,14.952451 7.19691837,15.109902 5.14418367,13.8477059 C3.09144898,12.5855098 0.545734694,9.58703922 0.052755102,6.27323529 C-0.44022449,2.95986275 2.68108163,1.69766667 2.68108163,1.69766667 C2.68108163,1.69766667 7.11565306,-0.312529412 9.74263265,0.435470588 C12.3709592,1.18303922 13.3932857,2.39519608 14.729449,4.29539216 C16.0660612,6.19515686 17.7901429,12.7433922 17.7901429,12.7433922 L20.911,20.1599804 L21.966102,21.9907255 L15.6556939,21.9907255 Z" id="Fill-3" fill="#126061" mask="url(#mask-2)"></path>
                </g>
                <g id="Group-8" transform="translate(4.000000, 0.000000)">
                    <mask id="mask-4" fill="white">
                        <use xlink:href="#path-3"></use>
                    </mask>
                    <g id="Clip-7"></g>
                    <path d="M17.1077472,36.9582988 L15.7676717,28.8287459 L12.9217472,19.7589576 C12.9217472,19.7589576 10.9966906,14.9724635 8.9032566,14.0483341 C6.80982264,13.1250753 5.21935094,14.8440518 3.21010566,13.1446635 C1.20042642,11.4452753 0.446633962,9.59788706 0.362879245,6.99439294 C0.279992453,4.39176941 2.7071434,2.96356941 2.7071434,2.96356941 C2.7071434,2.96356941 4.75501132,0.780569412 7.62393585,0.276063529 C10.4932943,-0.227136471 13.4242755,1.61938118 13.4242755,1.61938118 C13.4242755,1.61938118 17.3594453,4.91542824 19.4520113,9.06204 C21.5450113,13.2082165 21.9633509,18.9201459 21.9633509,19.4233459 C21.9633509,19.9274165 22.6329547,28.1570871 22.6329547,28.1570871 L22.8425585,34.8092518 L21.0099358,36.9582988 L17.1077472,36.9582988 Z" id="Fill-6" fill="#126061" mask="url(#mask-4)"></path>
                </g>
                <g id="Group-11" transform="translate(57.000000, 25.000000)">
                    <mask id="mask-6" fill="white">
                        <use xlink:href="#path-5"></use>
                    </mask>
                    <g id="Clip-10"></g>
                    <path d="M0.811777778,12.7223633 L0.0802222222,10.1071967 C0.0802222222,10.1071967 -0.0562222222,8.98053 0.0802222222,8.69019667 C0.420222222,7.96479667 1.01488889,7.14493 1.01488889,7.14493 C1.01488889,7.14493 1.614,6.11489667 2.51844444,5.82716333 C3.42288889,5.53943 4.14422222,5.82716333 4.14422222,5.82716333 C4.14422222,5.82716333 4.96733333,6.27306333 4.88555556,6.19376333 C4.80466667,6.11403 4.49933333,4.60819667 5.04288889,3.76623 C5.58688889,2.92426333 6.66422222,2.30026333 6.66422222,2.30026333 C6.66422222,2.30026333 7.00955556,2.03289667 7.88377778,2.30026333 C8.75711111,2.56763 9.25888889,3.23149667 9.25888889,3.23149667 L10.0375556,2.00343 C10.0375556,2.00343 11.2197778,0.744596667 12.1851111,0.50713 C13.1504444,0.26923 13.574,0.0811633333 14.3046667,0.59683 C15.0366667,1.11119667 15.5246667,2.78949667 15.5246667,2.78949667 C15.5246667,2.78949667 16.0531111,2.17936333 17.3126667,1.74949667 C18.5731111,1.31963 19.9957778,1.74949667 19.9957778,1.74949667 C19.9957778,1.74949667 20.6157778,2.11999667 21.3766667,2.78949667 C22.1388889,3.45899667 22.0277778,4.40019667 22.0277778,4.40019667 C22.0277778,4.40019667 23.8464444,3.33029667 25.0348889,3.52833 C26.2242222,3.72636333 26.4166667,4.55923 26.4166667,4.55923 L27.23,6.06506333 C27.23,6.06506333 27.698,8.09523 27.5557778,9.07629667 C27.4135556,10.0573633 26.8126667,10.89933 26.8126667,10.89933 L26.0104444,12.6274633 L0.811777778,12.7223633 Z" id="Fill-9" fill="#68A58C" mask="url(#mask-6)"></path>
                </g>
                <path d="M24.8561271,38.9433196 C24.8561271,38.9433196 24,33.7410229 24,33.2752768 C24,32.8082125 25.4983316,28.0264055 25.4983316,28.0264055 L27.4253816,24.6435945 L31.4209325,24.0636087 L35.4164834,21.0472433 C35.4164834,21.0472433 36.727087,20.9026863 38.725299,21.1193022 C40.7230745,21.3345999 41.8380916,23.0112861 41.8380916,23.0112861 L44.082533,25.4819376 C44.082533,25.4819376 45.9916833,25.4270147 49.5441088,25.6431912 C53.0974074,25.8589283 53.1882154,28.5888159 55.1480086,30.3841355 C57.1073653,32.1785764 55.0737906,39 55.0737906,39 L24.8561271,38.9433196 Z" id="Fill-12" fill="#833047"></path>
                <polygon id="Fill-14" fill="#DA7A5B" points="14 37 14.9155756 48.2757431 18.5783201 55.3921576 49 62 79.3196056 54.1580167 84 45.1717464 84 37"></polygon>
                <g id="Group-18" transform="translate(21.000000, 54.000000)">
                    <mask id="mask-8" fill="white">
                        <use xlink:href="#path-7"></use>
                    </mask>
                    <g id="Clip-17"></g>
                    <polygon id="Fill-16" fill="#DA7A5B" mask="url(#mask-8)" points="3.9828 0.158185714 0.2988 10.8163286 3.2668 12.0000429 11.9645778 1.83647143"></polygon>
                </g>
                <polygon id="Fill-19" fill="#DA7A5B" points="63 54.9448434 70.8000651 53 75 64.3627753 72.1004379 66"></polygon>
            </g>
            <g transform="translate(315.000000, 287.000000)">
                <path d="M41.0057638,90.6108439 L39.6850866,91.3077698 C38.6456484,91.8551638 37.9703221,92.9143489 37.9042,94.0963638 L37.7358093,97.1110359 C37.7014258,97.7189547 37.8327883,98.3242033 38.1113824,98.8635866 L38.5160492,99.6415091 C38.7329294,100.055392 39.031801,100.420322 39.3941497,100.710485 L44.1558171,104.522661 C44.5146393,104.811044 44.9298856,105.020211 45.3742256,105.138591 L55.2264074,107.760741 L59.3074588,108.99616 L48.7517387,105.673524 C48.5780582,105.617449 48.3999695,105.578286 48.219236,105.553364 L38.7770108,104.234278 C38.7003092,104.223597 38.6253709,104.209356 38.5504326,104.194225 L36.1515256,103.686884 C35.5008848,103.549813 34.8255585,103.611228 34.2110645,103.866678 L33.1971935,104.285012 C32.1762694,104.706016 31.4268864,105.611219 31.2003083,106.702446 L31.0715908,107.320156 C30.9657955,107.826606 30.9772567,108.349969 31.1059742,108.851079 L31.6111465,110.826147 C31.9717319,112.237801 33.193667,113.254262 34.6342455,113.340599 C37.570945,113.513273 42.1712747,113.796316 42.4974767,113.855951 C42.9797267,113.947628 57.6835019,119.863043 58.3253263,119.983203 C58.8014049,120.0731 61.9532215,119.780266 63.5419133,119.623614 C64.1396564,119.563979 64.7065426,119.345912 65.1896742,118.987213 L69.6401273,115.685048 C70.5111748,115.040636 71.0163471,114.011713 70.9995961,112.924936 L70.8929193,106.268091 C70.8805765,105.439435 70.5631908,104.644601 70.0060025,104.037572 L66.3366709,100.042041 C66.0219301,99.7002538 65.6410672,99.4261118 65.2152414,99.240977 L60.0533153,95.992216 C59.8143943,95.8880777 58.2195311,96.1604396 58.0105855,96.003787 L50.9672674,90.6722588 C50.3598264,90.2120918 49.6139699,89.9753328 48.8557707,90.002035 L42.4304731,90.2298933 C41.9332355,90.2476947 41.4465773,90.3785352 41.0057638,90.6108439" id="Fill-1" fill="#AF2243" fill-rule="nonzero"></path>
                <path d="M24,109.393958 L18.8255047,107.231843 C18.3742866,107.043143 17.8843675,106.968192 17.3970871,107.012281 L15.445327,107.191281 C14.8736081,107.243306 14.3397107,107.501666 13.946544,107.923156 L12.5190061,109.443338 C12.1478286,109.835728 11.9024293,110.330405 11.8091951,110.862116 L11.2761773,113.928051 C11.2761773,113.928051 9.60411953,122.156787 14.4883576,122.810183 C16.2642043,123.046499 19.1157619,123.266943 19.6039219,122.124161 C20.0920818,120.982261 19.2784819,117.881054 19.2784819,117.881054 L22.2083211,118.859826 L24,109.393958 Z" id="Fill-3" fill="#32313E" fill-rule="nonzero"></path>
                <path d="M97,101 L98,118" id="Stroke-5" stroke="#007743" stroke-width="1.21"></path>
                <polygon id="Fill-7" fill="#AF2243" fill-rule="nonzero" points="101 91.6148395 100.967285 96.1483952 97.824791 99.1679867 95.5401672 100 93.2046529 99.067945 91.5661578 95.9866611 91 91.1121301 94.1006907 93.2538558 96.1617594 90 98.5972374 93.5364735"></polygon>
                <polyline id="Fill-9" fill="#007743" fill-rule="nonzero" points="97.6020314 111.573353 96.7700831 110.062126 95.5420129 108.746257 93.7506925 108.061377 91.8421053 108 90 108.188623 90.7728532 109.592814 91.7959372 110.929641 93.3176362 111.845808 95.6565097 112 98 111.782934"></polyline>
                <polyline id="Fill-11" fill="#007743" fill-rule="nonzero" points="100.785561 105.267874 99.8198713 105 98.8377412 105.026692 97.9992852 105.644423 97.4288778 106.612965 97 107.662536 97.8970693 107.911344 98.8305933 108 99.7055039 107.632031 100.441029 106.481411 101 105.158246"></polyline>
                <path d="M88,112 L91,124" id="Stroke-13" stroke="#007743" stroke-width="2.42"></path>
                <polygon id="Fill-15" fill="#EB7DAE" fill-rule="nonzero" points="90.5934469 105.816214 91 109.420083 89.2264017 112.120221 87.8080199 113 86.1909155 112.484109 84.8271824 110.19392 84 106.378167 86.23066 107.781207 87.2739532 105 89.2023894 107.573008"></polygon>
                <polyline id="Fill-17" fill="#007743" fill-rule="nonzero" points="89.6982939 120.427873 88.9440287 119.315403 87.9374439 118.387123 86.6076025 118 85.2669859 118.111654 84 118.414833 84.7003891 119.449063 85.5668961 120.409128 86.7351092 121 88.3864113 120.922575 90 120.558272"></polyline>
                <polyline id="Fill-19" fill="#007743" fill-rule="nonzero" points="91.8385472 114.089264 91.0448038 114.028951 90.2621951 114.151186 89.6402439 114.613591 89.2608696 115.26337 89 115.944511 89.7372747 116 90.4920467 115.953357 91.1609226 115.638922 91.6588017 114.862083 92 114"></polyline>
                <path d="M103,107 L102,121" id="Stroke-21" stroke="#007743" stroke-width="1.21"></path>
                <polygon id="Fill-23" fill="#1A3C68" fill-rule="nonzero" points="109 100.938098 108.295261 104.599589 105.394257 106.625707 103.49077 107 101.813559 105.93964 101 103.234036 101.291914 99.2204627 103.384541 101.35928 105.476304 99 106.840872 102.176967"></polygon>
                <polyline id="Fill-25" fill="#007743" fill-rule="nonzero" points="102.706654 115.775636 102.289597 114.400154 101.507966 113.141095 100.143393 112.345412 98.5670103 112.062452 97 112 97.3898782 113.278335 97.9971884 114.529684 99.0946579 115.488049 101.012184 115.898998 103 116"></polyline>
                <polyline id="Fill-27" fill="#007743" fill-rule="nonzero" points="107.790449 110.471602 106.932098 110.137877 106.020552 110 105.171066 110.281238 104.525489 110.844497 104 111.482178 104.797904 111.793184 105.649809 112 106.502519 111.891108 107.32299 111.233843 108 110.430866"></polyline>
                <path d="M8.09137286,36.5070149 C8.08971802,36.5123521 8.08806319,36.5185789 8.08806319,36.5239161 C8.16997746,35.3328292 8.2601659,35.5356431 8.01442309,33.8704344 C7.85969613,32.8136672 6.2652638,30.4617378 5.13997685,30.2011041 C4.83466002,30.1308309 4.54754636,29.9965112 4.2356102,30.0000693 C2.97131721,30.0160809 1.73350155,30.751726 1.05336488,31.8974466 C0.479964981,32.8625916 0.305380019,34.0314401 0.145688561,35.1620386 C0.0372969502,35.9350442 -0.0727494948,36.7240613 0.0629468735,37.4908402 C0.141551477,37.9409447 0.302897769,38.3679213 0.461761809,38.7922293 C1.13114206,40.5659613 1.80217715,42.2382863 2.68503096,43.8963788 C2.88940293,44.2815473 7.4906682,43.4729604 8.12364211,43.4178092 C8.54893439,41.7899609 8.97753633,40.1887986 9.44419945,38.5689561 C9.86039014,37.1216833 10.4975011,34.8951782 9.34987393,34.1541959 C8.30650124,33.9949692 8.2800239,35.6539512 8.09137286,36.5070149" id="Fill-29" fill="#007743" fill-rule="nonzero"></path>
                <polygon id="Fill-31" fill="#32313E" fill-rule="nonzero" points="77 106.29851 79.3225137 96.4577237 80.5260525 91.6728657 81.0949359 88.4615981 82.3975595 88 84 89.8931583 82.7605857 92.6913259 81.4451495 97.5194858 79.5078707 103.726378 78.5956071 107"></polygon>
                <polygon id="Fill-33" fill="#A5A7A9" fill-rule="nonzero" points="72 110.375058 74.6881454 107.192409 77.726727 107 80.8815337 108.051278 82.1837829 110.92347 83 113.902556 79.9843112 118.376297 73.5479068 125 72 117.085205"></polygon>
                <polygon id="Fill-35" fill="#32313E" fill-rule="nonzero" points="77.7859209 107 76 116 80 107.916567"></polygon>
                <polygon id="Fill-37" fill="#0F6162" fill-rule="nonzero" points="76.9932349 96 81 97.2076 77.5281317 103 73 101.81851"></polygon>
                <path d="M36,102.469605 L29.8087754,100 L26.0280876,100.329044 L24.1600377,102.228603 C23.5915412,102.805763 23.2747808,103.569678 23.2747808,104.362939 L23.2747808,107.242515 C23.2747808,107.242515 21.5562864,114.980374 26.7145565,115.638461 C28.5900377,115.878574 30.8417299,116.46107 31.3582072,115.309417 C31.8728266,114.157765 31.0135794,111.029184 31.0135794,111.029184 L34.1077983,112.016314 L36,102.469605 Z" id="Fill-39" fill="#32313E" fill-rule="nonzero"></path>
                <path d="M54,41.0872714 L53.6655802,44.4256939 L52.0744459,47.3896893 C52.0744459,47.3896893 49.2380378,51.7527675 45.4027705,52.441399 C41.5666232,53.1300304 35.3314537,53.6257753 32.7397001,51.1269769 L28.9009126,47.4717316 L27.6565189,44.358489 L27,41.0872714 L27.4523468,37.7532128 L28.9396349,34.728122 L31.2840939,32.3235851 L34.071219,30.4828705 L37.1866037,29.2077241 L40.550163,29 L43.9286832,29.1431376 L47.0590287,30.4252664 L49.730867,32.4222103 L52.2038136,34.69932 L53.66206,37.7497217 L54,41.0872714 Z" id="Fill-41" fill="#833C3E" fill-rule="nonzero"></path>
                <polygon id="Fill-43" fill="#32313E" fill-rule="nonzero" points="36 42.9878935 35.9634956 43.259887 35.7865044 43.503632 35.5619469 43.7263923 35.2367257 43.8676352 34.8772124 43.9467312 34.505531 44 34.1283186 43.9749798 33.7665929 43.882163 33.4734513 43.7054076 33.2112832 43.5092817 33.074115 43.2558515 33 42.9878935 33.050885 42.7158999 33.215708 42.4673123 33.4767699 42.2711864 33.7865044 42.1210654 34.1316372 42.0177563 34.505531 42 34.8816372 42.0112994 35.2289823 42.1170299 35.5254425 42.2792575 35.8019912 42.4665052 35.9612832 42.7158999"></polygon>
                <path d="M39,48.0753233 L43,48 C43,48 41.7204482,50.1989111 39,48.0753233" id="Fill-45" fill="#BB90A1" fill-rule="nonzero"></path>
                <path d="M33.9610975,21.892503 L27.4443485,25.7690601 C27.2796718,25.8666055 27.1470402,26.0111816 27.066037,26.1827569 L24.5282347,31.5198816 C24.487288,31.6052338 24.4596935,31.7001663 24.4499019,31.7959698 L23.8036569,37.609499 C23.792085,37.7192375 23.7974259,37.8289761 23.8241302,37.9343599 C24.1160977,39.0570024 22.2628165,46.3180351 23.3398916,48.1182695 C25.8055922,52.2369481 26.9031406,48.5789972 31.0129384,50.6649002 C32.4487417,51.3947485 33.7412318,50.7049634 33.7412318,50.7049634 C33.7412318,50.7049634 30.2171491,46.4913523 29.8788941,45.7580202 C28.9789579,43.8097259 28.4635641,41.2761594 29.6430058,38.5823398 C30.4031893,36.8465549 31.7526486,37.6469494 33.798201,31.9849639 C33.9940328,31.4458516 34.6518497,31.2394387 35.1432096,31.5486226 C36.345795,32.3080829 38.8355296,34.3913731 45.5810457,33.7973915 C46.9705615,33.6745889 48.666287,34.6752998 49.4638566,35.7962004 C50.4955343,37.2489295 51.8565655,37.5023733 52.3425844,38.1869327 C52.462754,38.3567661 52.5197232,38.5614372 52.5010302,38.7669792 L51.8930614,45.4592876 C51.8859402,45.541156 51.8690275,45.6204116 51.8378724,45.6970544 C51.4221749,46.701249 49.3819633,48.8010871 49.9418643,49.2443959 C52.1209384,50.9775679 52.8348344,50.8713131 55.2551377,48.4457432 C56.1621951,47.5347393 59.4610712,48.0564327 58.9456774,43.7792429 C58.6056422,40.9504275 57.4529049,36.8988114 57.4983022,35.2832164 C57.5072037,35.0210632 55.9147349,31.220278 55.7999062,30.9833821 L52.6470139,24.5871936 C52.3977734,24.0759514 51.9429095,23.6909956 51.3910198,23.5246459 L43.1634128,21.0389811 C43.0512546,21.0050145 42.9328654,20.9936922 42.8162564,21.0032726 L34.34564,21.7679585 C34.210338,21.7801517 34.0777064,21.8236987 33.9610975,21.892503" id="Fill-47" fill="#32313E" fill-rule="nonzero"></path>
                <polygon id="Fill-49" fill="#32313E" fill-rule="nonzero" points="50 42.9870864 49.9634956 43.259887 49.7865044 43.5028249 49.5619469 43.7255851 49.2356195 43.8676352 48.8761062 43.9467312 48.5044248 44 48.1283186 43.9749798 47.7665929 43.8813559 47.4734513 43.7054076 47.2112832 43.5092817 47.074115 43.2558515 47 42.9870864 47.050885 42.7150928 47.215708 42.4665052 47.4756637 42.2703793 47.7865044 42.1210654 48.1316372 42.0161421 48.5044248 42 48.8816372 42.0104923 49.2289823 42.1162228 49.5254425 42.2784504 49.800885 42.4656981 49.9612832 42.7150928"></polygon>
                <polygon id="Fill-51" fill="#833C3E" fill-rule="nonzero" points="34 50.4168518 34.5331225 53.9249844 34 60 41.4293782 59.336059 50 60 48.9951996 54.4876011 48.6301463 50"></polygon>
                <path d="M65.0677006,93.7814617 C65.147453,94.2949248 73.1085177,104 73.1085177,104 L78,95.9305316 C78,95.9305316 75.1608135,91.5220462 74.919784,91.0895625 C72.6220279,86.9702894 70.0194403,83.4098634 69.6313118,82.4372201 C69.1403913,81.2020611 66.4615958,72.9359283 63.0313552,68.0477954 C59.5878226,63.1418647 51.1048226,57.7215811 48.8690961,57.7420485 C48.5846458,57.745608 48.0263788,57.9307039 47.7623097,58.0330405 C44.3932126,59.3171432 37.0524446,57.6735274 35.2659902,57.1903204 C34.9859705,57.1155701 34.218575,56.7800838 33.9296939,56.7969916 C27.6469748,57.1351475 16.2512389,59.0136927 12.9415131,53.6468022 L10.3504453,45.4883454 C10.3442423,45.4162648 10.3353809,45.3441842 10.3282918,45.2729935 L10.2104354,43.2476174 C10.182079,42.7928867 10.0402969,42.3666322 9.81078716,42 C7.51480335,42.2064531 4.7225822,42.8160237 2.41950928,42.8436101 C2.14392033,43.2716443 1.99150458,43.7779883 2.00036596,44.3092491 L2.90156841,55.2690607 C2.90865751,55.7015444 3.6317462,58.3961132 3.84264707,58.7743139 C3.84264707,58.7743139 8.27688211,66.3659146 16.0890756,69.1450224 L28.0289003,73.0008899 L33.3324369,69.9165518 C33.4467487,69.8667183 31.8029625,67.3501263 31.9234773,67.3180905 L41.6585904,64.6519979 C42.2469861,64.490039 42.8734858,64.5407624 43.4273221,64.7943794 C43.4273221,64.7943794 55.1083945,76.6930187 55.2944835,77.4805661 L60.0512728,85.5696119 C60.0672233,85.6345734 65.0677006,93.7814617 65.0677006,93.7814617" id="Fill-53" fill="#4F85BA" fill-rule="nonzero"></path>
                <path d="M28.7461657,95.0568451 L27.3982095,95.7587741 C26.41812,96.2688661 25.6912721,97.1573279 25.3900479,98.2155257 L24.9733099,99.6830347 C24.7485025,100.4716 24.7724938,101.307019 25.0417296,102.08144 L25.8236686,104.330441 C26.0111563,104.870591 26.3132691,105.361234 26.7060157,105.774081 L28.2867765,107.435195 C28.7977026,107.971809 30.1954186,109.485288 30.9133808,109.676241 L46.1523062,112.995817 L50.263706,114.222867 L39.6799836,110.939536 C39.4685046,110.873233 39.2525828,110.825495 39.0331068,110.794554 L29.5938587,109.495896 C29.5032249,109.481752 29.4117025,109.466723 29.3210686,109.448158 L27.1271965,108.991109 C26.3417032,108.826677 24.7094055,107.741958 23.9647863,108.043416 L20,117.413373 C20,117.413373 23.5578226,118.694349 24.6010003,119.211514 C26.9006119,120.352811 30.8422955,122.291514 31.1835052,122.354281 C31.6686628,122.44357 44.2196728,125.828565 44.8683268,125.947911 C45.4112412,126.046923 53.3488109,125.978852 55.8599015,125.954099 C56.3619419,125.949679 56.854208,125.852434 57.3207058,125.666785 L62.4779491,123.599896 C64.2817402,122.878518 65.3071466,120.977829 64.9179542,119.084212 L63.6855117,113.106322 C63.4660356,112.034864 62.8120503,111.099548 61.8817206,110.517849 L56.1460201,106.941016 L50.6386813,103.163507 C50.5516018,103.104276 50.4671879,103.040625 50.3854397,102.974322 L42.082669,96.2626778 C41.3282755,95.6526891 40.3766202,95.3353182 39.4036392,95.3697958 L33.4067,95.5793137 C32.8042516,95.5996466 29.279306,94.7810241 28.7461657,95.0568451" id="Fill-55" fill="#AF2243" fill-rule="nonzero"></path>
                <path d="M28.344877,62.4777811 C28.344877,62.4777811 26.5559172,79.2251715 26.2879833,84.5290784 C26,90.2356099 26,97.4461676 26,97.4461676 L48.5875537,98 L61,96.2597674 C61,96.2597674 56.1781018,68.1914703 54.912251,65.7068297 C53.6473115,63.2230838 43.5268845,59 43.5268845,59 L28.344877,62.4777811 Z" id="Fill-57" fill="#4F85BA" fill-rule="nonzero"></path>
                <path d="M78.5648075,97.0887351 L80.3404934,96 L83.2170698,96.446372 L85.0440611,97.6335716 C85.0440611,97.6335716 86.4040869,100.90259 85.8797291,101.666862 C85.3579801,102.42832 84.208393,104.934943 82.9535866,105.480717 C81.7005193,106.024616 78.0430585,106.350955 77.102171,105.370062 C76.1621531,104.390106 75.7438843,102.645879 76.1621531,101.338647 C76.5795524,100.030477 77.9369695,97.3062946 78.5648075,97.0887351" id="Fill-59" fill="#007743" fill-rule="nonzero"></path>
                <polygon id="Fill-61" fill="#8E4647" fill-rule="nonzero" points="82 75.6015457 83.9235931 79.2935512 87.3547464 81.4752312 90.9424711 83.4130242 94.8487072 84.7087293 98.8793057 85.6106677 103.002058 85.8793868 107.120336 85.9068795 111.248457 86 115.361367 85.5964779 119.385703 84.6759154 123.31878 83.4626885 127.25633 82.1049031 130.182876 79.1755986 132 75.6015457 130.300975 71.9246167 126.943187 69.6320791 123.217679 68.0073483 119.381229 66.5431395 115.288897 66.0872925 111.263666 65 107.120336 65.2917775 103.002058 65.3166097 98.9088306 65.789307 94.9372819 66.8570886 91.013152 67.9807424 87.0299723 69.1744584 83.7875995 71.7915875"></polygon>
                <path d="M103.235606,82.9636967 C103.354839,81.9250692 102.082483,75.902269 102.082483,75.902269 L102,75 L102.885259,75.5631433 L103.097591,75.6516879 L103.291139,75.7685667 L103.64557,78.0379635 L103.942834,81.4478141 L104,83 C103.744385,82.9902601 103.490404,82.9787493 103.235606,82.9636967" id="Fill-63" fill="#007743" fill-rule="nonzero"></path>
                <path d="M107.763905,82.9687951 C107.643329,82.0610987 108.915986,76.7911368 108.915986,76.7911368 L109,76 L108.113963,76.4937721 L107.902373,76.5708667 L107.709452,76.6718238 L107.353948,78.6579258 L107.056787,81.6435033 L107,83 C107.254376,82.9917399 107.508751,82.9816442 107.763905,82.9687951" id="Fill-65" fill="#007743" fill-rule="nonzero"></path>
                <path d="M97,82.7115035 C97.3870482,81.8006421 97.9073795,75.8552167 97.9073795,75.8552167 L98.0798193,75 L98.7010542,75.811557 L98.8629518,75.964794 L99,76.1351525 L98.6942771,78.3344034 L98.0293675,81.5583735 L97.6588855,83 C97.438253,82.9066881 97.2191265,82.8090958 97,82.7115035" id="Fill-67" fill="#007743" fill-rule="nonzero"></path>
                <path d="M111.617347,82.9826224 C111.677843,82.4628752 111.041545,79.4510269 111.041545,79.4510269 L111,79 L111.44242,79.2812006 L111.548834,79.3262243 L111.645773,79.3838863 L111.823615,80.5189573 L111.971574,82.2251185 L112,83 C111.873178,82.9968404 111.744898,82.9897314 111.617347,82.9826224" id="Fill-69" fill="#007743" fill-rule="nonzero"></path>
                <path d="M139,13.4456962 L139.23516,15.7791059 L140.353977,17.8488938 L141.778502,19.7556992 L143.847003,20.9704972 L146.119912,21.6518172 L147.683724,21.950173 C148.19384,22.0481406 148.721141,22.0009381 149.205931,21.8147996 C149.205931,21.8147996 152.135479,22.2057794 153.961584,20.4610658 L156.661399,17.9067837 L157.537821,15.7310128 L158,13.4456962 L157.68163,11.115849 L156.636074,9.00153045 L154.985433,7.32183171 L153.024563,6.03578453 L150.831247,5.14606076 L148.464274,5 L146.087352,5.09974881 L143.884086,5.99570689 L142.002809,7.3895184 L140.262627,8.98193693 L139.237873,11.1131772 L139,13.4456962 Z" id="Fill-71" fill="#DB775D" fill-rule="nonzero"></path>
                <polygon id="Fill-73" fill="#32313E" fill-rule="nonzero" points="151 14.4941038 151.012399 14.6303066 151.071159 14.7511792 151.146092 14.8626179 151.254987 14.9339623 151.375202 14.9740566 151.498652 15 151.624798 14.9876179 151.745013 14.9410377 151.842588 14.853184 151.929919 14.754717 151.97628 14.6279481 152 14.4941038 151.984367 14.3579009 151.92938 14.2340802 151.842049 14.1356132 151.738544 14.0607311 151.622642 14.0082547 151.498652 14 151.373046 14.004717 151.257682 14.057783 151.157951 14.1391509 151.066307 14.2323113 151.012399 14.3573113"></polygon>
                <path d="M149,18.0756756 L146,18 C146,18 146.95964,20.1986679 149,18.0756756" id="Fill-75" fill="#AF2243" fill-rule="nonzero"></path>
                <g id="Group-79" transform="translate(136.000000, 0.000000)">
                    <g id="Fill-77-Clipped">
                        <mask id="mask-10" fill="white">
                            <use xlink:href="#path-9"></use>
                        </mask>
                        <g id="path-1"></g>
                        <path d="M16.1872083,0.919365766 L20.5554659,3.64245045 C20.6669811,3.71215856 20.7549735,3.81225225 20.8089886,3.93379459 L22.5095947,7.68283964 C22.5374735,7.7445045 22.5548977,7.80974414 22.5609962,7.87677117 L22.9948598,11.9627387 C23.0027008,12.0395964 23.0000871,12.1173477 22.9817917,12.1915243 C22.7848977,12.9797622 22.4416402,16.0156396 21.364822,20.6065441 C21.3595947,20.6217369 22.2717538,31.7830775 22.2586856,31.7920144 C20.9823598,32.5909766 10.0442917,24.548627 10.0442917,24.548627 C10.0442917,24.548627 18.6971705,18.2034018 18.9245568,17.6886342 C19.5265644,16.3186018 19.8715644,14.5392577 19.0805038,12.6464144 C18.5725871,11.4265225 17.6682689,11.9886559 16.2978523,8.01082523 C16.1662992,7.6318991 15.7254659,7.48622703 15.3961477,7.70428829 C14.5894053,8.23692973 12.9210341,9.70169369 8.40031439,9.28344505 C7.46898864,9.19854414 6.33118561,9.90098739 5.798875,10.6883315 C5.10626136,11.7089297 4.19410227,11.8867748 3.86739773,12.367582 C3.78811742,12.4864432 3.7506553,12.6312216 3.76198106,12.776 L4.16970833,17.4777225 C4.17406439,17.5358126 4.18626136,17.5912216 4.20804167,17.6448432 C4.48421591,18.3508613 13.6711477,26.1143784 7.18235985,27.6810234 C5.35020076,28.1234018 -2.44366288,34.2014126 1.25985985,19.8326054 C1.48463258,18.9675099 1.1344053,17.1836973 1.0045947,16.4857225 C0.638685606,14.5187027 1.21804167,12.0950054 1.18754924,10.9591207 C1.18057955,10.7750198 1.47504924,7.47460901 1.55171591,7.30659459 L3.66614773,2.81220901 C3.83080682,2.45383784 4.13660227,2.18394234 4.50599621,2.06686847 L10.0207689,0.319697297 C10.0956932,0.295567568 10.1749735,0.286630631 10.2525114,0.294673874 L15.9302008,0.831783784 C16.021678,0.840720721 16.1087992,0.871106306 16.1872083,0.919365766" id="Fill-77" fill="#994C24" fill-rule="nonzero" mask="url(#mask-10)"></path>
                    </g>
                </g>
                <polygon id="Fill-80" fill="#32313E" fill-rule="nonzero" points="143 14.4938126 143.011853 14.6299352 143.071121 14.7513259 143.146013 14.8626989 143.254849 14.9340012 143.374461 14.9734826 143.498384 15 143.623922 14.9876252 143.744612 14.9410725 143.841595 14.8526812 143.929418 14.7542722 143.975216 14.6275781 144 14.4938126 143.982759 14.35769 143.927802 14.2345315 143.841056 14.1361226 143.737608 14.0606953 143.622306 14.0082499 143.498384 14 143.371767 14.0058928 143.257543 14.0583382 143.157328 14.1396582 143.065733 14.233353 143.011853 14.35769"></polygon>
                <polygon id="Fill-82" fill="#DB775D" fill-rule="nonzero" points="152 21.2312469 151.873358 23.5463239 151.936679 26.959389 147.670542 27.5375062 142 28 142.755127 24.1244411 143.319346 21"></polygon>
                <path d="M147.246515,47.4069106 L148.137209,47.8715399 C148.839349,48.2367977 149.296368,48.9431417 149.340364,49.7309525 L149.453496,51.7407654 C149.475943,52.1454137 149.387951,52.5491667 149.199397,52.909053 L148.926443,53.428292 C148.780987,53.7031305 148.578964,53.9466357 148.333844,54.1400074 L145.12124,56.6806974 C144.877018,56.8740691 144.59688,57.0137265 144.297887,57.0916123 L137.646415,58.8400152 L134.892627,59.6627404 L142.016382,57.4497082 C142.134902,57.4121081 142.255217,57.3852509 142.377329,57.3682414 L148.750459,56.4891161 C148.801638,56.4819542 148.854612,56.4730018 148.903996,56.4622589 L150.52197,56.1256488 C150.961929,56.0334392 151.418051,56.0746202 151.83287,56.2438205 L152.51795,56.5231352 C153.20752,56.8042404 153.711228,57.4076319 153.864765,58.1345664 L153.951859,58.5454814 C154.022792,58.883882 154.015609,59.2330254 153.928515,59.5669498 L153.587321,60.8838472 C153.343099,61.8238487 152.519746,62.5015451 151.545549,62.5588404 C149.564833,62.6761168 146.459077,62.8623266 146.239097,62.9035076 C145.914066,62.9634887 135.988037,66.9088095 135.55526,66.9893811 C135.23382,67.0475716 133.105852,66.8524094 132.032889,66.7485616 C131.629743,66.7091711 131.247247,66.563247 130.922216,66.3251133 L127.916124,64.1237192 C127.330708,63.6940042 126.988617,63.0082507 127.000289,62.2840019 L127.071222,57.8445088 C127.081098,57.292146 127.293895,56.7621642 127.670105,56.3584111 L130.147348,53.6950734 C130.359247,53.4667873 130.616937,53.2841584 130.904258,53.1606154 L134.38802,50.9950308 C134.550536,50.9252021 135.627988,51.107831 135.768057,51.0004023 L140.521417,47.4480916 C140.932645,47.1419197 141.43366,46.9834623 141.948144,47.0013671 L146.285787,47.1535578 C146.619797,47.1651959 146.949318,47.2520342 147.246515,47.4069106" id="Fill-84" fill="#1A3C68" fill-rule="nonzero"></path>
                <path d="M158,58.4952402 L161.184128,57.144848 C161.460973,57.0267718 161.763135,56.9802066 162.062846,57.0076468 L163.264142,57.1190708 C163.616936,57.1515002 163.94523,57.3144786 164.186959,57.5764081 L165.065677,58.5268381 C165.293523,58.7729687 165.443787,59.0814634 165.502586,59.4140724 L165.830064,61.3298997 C165.830064,61.3298997 166.859046,66.4728652 163.852948,66.8803111 C162.760267,67.0291536 161.006098,67.1671863 160.70557,66.4537401 C160.404225,65.7394625 160.90565,63.8003525 160.90565,63.8003525 L159.103298,64.4131844 L158,58.4952402 Z" id="Fill-86" fill="#32313E" fill-rule="nonzero"></path>
                <g id="Group-90" transform="translate(163.000000, 45.000000)" fill="#007743" fill-rule="nonzero">
                    <path d="M1.48733333,5.29381818 C1.48816667,5.29109091 1.489,5.28745455 1.48983333,5.28290909 C1.43566667,6.08927273 1.374,5.95290909 1.539,7.08018182 C1.64233333,7.79472727 2.7065,9.38927273 3.45733333,9.56563636 C3.66066667,9.61290909 3.854,9.70381818 4.06233333,9.702 C4.9065,9.692 5.7315,9.19290909 6.18566667,8.41745455 C6.56983333,7.76290909 6.68483333,6.972 6.7915,6.20472727 C6.864,5.68109091 6.93733333,5.14654545 6.84816667,4.62836364 C6.794,4.32381818 6.6865,4.03381818 6.57983333,3.74654545 C6.13316667,2.54472727 5.68566667,1.41109091 5.09566667,0.288363636 C4.95983333,0.0283636364 1.88733333,0.575636364 1.46816667,0.613818182 C1.1815,1.71563636 0.8965,2.80018182 0.584,3.89654545 C0.3065,4.87745455 -0.119333333,6.38563636 0.648166667,6.88745455 C1.34483333,6.99563636 1.3615,5.872 1.48733333,5.29381818" id="Fill-88"></path>
                </g>
                <polygon id="Fill-91" fill="#32313E" fill-rule="nonzero" points="123 57.5207703 121.673293 50.7865199 120.985643 47.5123796 120.660225 45.3156121 119.916621 45 119 46.2937414 119.708264 48.2088721 120.460703 51.5134113 121.567274 55.7612105 122.088533 58"></polygon>
                <polygon id="Fill-93" fill="#A5A7A9" fill-rule="nonzero" points="127 59.2502337 125.289096 57.1290122 123.35503 57 121.347422 57.7020879 120.519019 59.616703 120 61.6023683 121.91885 64.5836709 126.01437 69 127 63.7235899"></polygon>
                <polygon id="Fill-95" fill="#32313E" fill-rule="nonzero" points="123.661135 58 125 64 122 58.6113208"></polygon>
                <polygon id="Fill-97" fill="#0F6162" fill-rule="nonzero" points="122.503828 50 120 50.8624934 122.170325 55 125 54.1550906"></polygon>
                <path d="M151,54.5430371 L154.80968,53 L157.135853,53.2054587 L158.286433,54.3929264 C158.63661,54.7535275 158.830673,55.2298563 158.830673,55.7263117 L158.830673,57.5268012 C158.830673,57.5268012 159.888966,62.3630483 156.714089,62.7739658 C155.560058,62.9232379 154.174877,63.2888706 153.857476,62.5685071 C153.539212,61.8481436 154.068789,59.8933504 154.068789,59.8933504 L152.165243,60.5105652 L151,54.5430371 Z" id="Fill-99" fill="#32313E" fill-rule="nonzero"></path>
                <path d="M130.582595,48.3731034 C130.527584,48.7065814 125.244759,55 125.244759,55 L122,49.7662231 C122,49.7662231 123.882794,46.9077155 124.044278,46.6264794 C125.568613,43.9551723 127.296135,41.6460762 127.553444,41.0156895 C127.879961,40.2155164 129.657169,34.8537466 131.933025,31.6843991 C134.218641,28.5028618 139.849278,24.9869758 141.331912,25.0000363 C141.519127,25.0035191 141.890894,25.1236757 142.066574,25.1889781 C144.302503,26.0231086 144.00083,25.9621596 145.187115,26.2756116 C145.373442,26.3243708 146.618287,35.7592745 146.809938,35.7488261 C150.980122,35.528539 158.542353,34.3121713 160.738355,37.7906172 L162.459665,43.0818603 C162.463214,43.1288781 162.467651,43.1750252 162.472974,43.222043 L162.551054,44.5350584 C162.5688,44.8310963 162.663738,45.1071082 162.817236,45.3448092 C164.340685,45.2107215 166.193311,44.8154237 167.722083,44.7980097 C167.903974,44.5202565 168.005124,44.1902612 167.9998,43.8480762 L167.402665,36.7405532 C167.397341,36.4593172 166.917326,34.7118225 166.777137,34.4662852 C166.777137,34.4662852 163.834939,29.5433482 158.649713,27.7401287 L150.726362,25.2403494 L147.205662,26.7379532 C147.129356,26.7701691 148.220702,28.9051252 148.141735,28.926022 L146.117864,29.4815285 C145.726577,29.3770445 145.311333,29.4101311 144.943114,29.575564 C144.943114,29.575564 137.191007,37.2899648 137.066789,37.8010656 L133.90987,43.0470323 C133.900998,43.0896966 130.582595,48.3731034 130.582595,48.3731034" id="Fill-101" fill="#FED800" fill-rule="nonzero"></path>
                <path d="M155.169058,50.0389029 L156.067295,50.514167 C156.721533,50.8593207 157.205955,51.4610809 157.407053,52.1793983 L157.684121,53.1714894 C157.834274,53.7054838 157.818186,54.2738129 157.639433,54.7978683 L157.117472,56.3212432 C156.992345,56.6853714 156.791247,57.0196826 156.529373,57.2997812 L155.476514,58.4246933 C155.135095,58.7879179 154.202001,59.8134402 153.723835,59.9435505 L143.566163,62.1897604 L140.82319,63.0219243 L147.880381,60.7983029 C148.021596,60.7522222 148.164599,60.7205982 148.311177,60.6998167 L154.604197,59.8206685 C154.664973,59.8107295 154.725749,59.799887 154.785632,59.7881409 L156.249624,59.4782254 C156.773372,59.3670895 157.861087,58.6307013 158.356235,58.8358057 L161,65.1832012 C161,65.1832012 158.627046,66.0506033 157.933482,66.4011783 C156.398883,67.1737083 153.772993,68.4883645 153.544188,68.5299276 C153.220644,68.590465 144.853189,70.8836593 144.422393,70.9640747 C144.058629,71.0318404 138.76663,70.9857597 137.091709,70.9703995 C136.757439,70.9667853 136.43032,70.9008266 136.120183,70.7734269 L132.681858,69.374741 C131.478846,68.8859238 130.79422,67.5983739 131.0552,66.3144381 L131.875679,62.2656581 C132.024045,61.5401124 132.458416,60.9058247 133.079584,60.5127831 L136.903124,58.0894785 L140.573828,55.5306424 C140.631029,55.4899829 140.688231,55.4475163 140.74275,55.4023391 L146.277855,50.8557065 C146.781046,50.4418835 147.415622,50.22684 148.064497,50.2503322 L152.061427,50.3921886 C152.463623,50.4057417 154.813339,49.8509658 155.169058,50.0389029" id="Fill-103" fill="#1A3C68" fill-rule="nonzero"></path>
                <path d="M155.458535,29.3182306 C155.458535,29.3182306 156.634964,40.4837147 156.80935,44.0186563 C157,47.8244782 157,52.631027 157,52.631027 L142.157297,53 L134,51.8399848 C134,51.8399848 137.169672,33.1267523 138.000039,31.4708733 C138.832214,29.8149943 145.483284,27 145.483284,27 L155.458535,29.3182306 Z" id="Fill-105" fill="#FED800" fill-rule="nonzero"></path>
                <path d="M122.204383,50.7635623 L120.960922,50 L118.946954,50.3129516 L117.669513,51.1438579 C117.669513,51.1438579 116.71809,53.4325641 117.083598,53.9663645 C117.450025,54.5001649 118.25451,56.2550707 119.131545,56.6363567 C120.00858,57.0166523 122.568973,57.2454239 123.228357,56.5610898 C123.886822,55.8727944 124.178861,54.6526792 123.886822,53.7375929 C123.593865,52.8225066 122.64336,50.9150863 122.204383,50.7635623" id="Fill-107" fill="#007743" fill-rule="nonzero"></path>
                <polyline id="Fill-109" fill="#007743" fill-rule="nonzero" points="98.5419023 59 99 69.9304306 98.4580977 70 98 59.0677856"></polyline>
                <polygon id="Fill-111" fill="#AF2243" fill-rule="nonzero" points="102 54.129502 101.978172 57.3032115 99.7774628 59.4156807 98.1780298 60 96.5428774 59.3465089 95.3958894 57.1894422 95 53.7772721 97.1699504 55.2772071 98.6145996 53 100.318214 55.4747107"></polygon>
                <polyline id="Fill-113" fill="#007743" fill-rule="nonzero" points="97.8012959 66.6804786 97.3851692 65.5477094 96.7717783 64.5611322 95.8761699 64.0472717 94.9215263 64 94 64.1435658 94.387329 65.1957981 94.8984881 66.1981325 95.6587473 66.8853224 96.8279338 67 98 66.8371754"></polyline>
                <polyline id="Fill-115" fill="#007743" fill-rule="nonzero" points="100.840256 62.0896928 100.115974 62 99.3783106 62.0089197 98.7502091 62.2145689 98.3219961 62.5381566 98 62.8875124 98.6724282 62.9707631 99.3741288 63 100.028994 62.8780971 100.580987 62.4940535 101 62.0530228"></polyline>
                <polyline id="Fill-117" fill="#007743" fill-rule="nonzero" points="93.4456897 66 95 73.9030468 94.5534483 74 93 66.0960471"></polyline>
                <polygon id="Fill-119" fill="#FED800" fill-rule="nonzero" points="94.7682657 62.4074008 95 64.2101671 93.9867159 65.5595473 93.1771218 66 92.2523985 65.7420514 91.4738007 64.5967307 91 62.688342 92.2752768 63.3910544 92.8708487 62 93.9726937 63.286869"></polygon>
                <polyline id="Fill-121" fill="#007743" fill-rule="nonzero" points="94.7983193 71.6184824 94.2959851 70.8757948 93.6246499 70.2577363 92.7385621 70 91.8431373 70.0746079 91 70.2755405 91.4668534 70.9648156 92.0438842 71.6057652 92.8235294 72 93.9243697 71.949131 95 71.7049597"></polyline>
                <polyline id="Fill-123" fill="#007743" fill-rule="nonzero" points="95.8925176 68.0451694 95.3633733 68.0150565 94.8416701 68.0759097 94.4274494 68.3067754 94.1744523 68.6311167 94 68.9730238 94.4919388 69 94.9946259 68.976788 95.4410914 68.8193225 95.7726333 68.4309912 96 68"></polyline>
                <polyline id="Fill-125" fill="#007743" fill-rule="nonzero" points="127 67.0529742 126.340702 75 126 74.9461279 126.659298 67"></polyline>
                <polygon id="Fill-127" fill="#FED800" fill-rule="nonzero" points="129 63.9907715 128.62642 65.8224437 127.169074 66.8235511 126.218563 67 125.389755 66.4595792 125 65.0981912 125.169459 63.087117 126.197766 64.1709118 127.256114 63 127.917004 64.5998523"></polygon>
                <polyline id="Fill-129" fill="#007743" fill-rule="nonzero" points="125.853514 72.8316327 125.652837 71.8122449 125.26757 70.8744898 124.583404 70.2785714 123.790008 70.0581633 123 70 123.187976 70.9479592 123.485182 71.8765306 124.032176 72.5938776 124.996613 72.9122449 126 73"></polyline>
                <polyline id="Fill-131" fill="#007743" fill-rule="nonzero" points="129.841481 70.246662 129.203091 70.0737878 128.521567 70 127.885334 70.1363317 127.398994 70.4139143 127 70.7308503 127.593098 70.8910752 128.228253 71 128.867721 70.9508082 129.485622 70.626142 130 70.2269852"></polyline>
                <polyline id="Fill-133" fill="#007743" fill-rule="nonzero" points="99.4458818 66 101 73.9030687 100.554118 74 99 66.0960254"></polyline>
                <polygon id="Fill-135" fill="#EB7DAE" fill-rule="nonzero" points="100.769004 62.408046 101 64.2104885 99.9867159 65.558908 99.1771218 66 98.2531365 65.7420977 97.4738007 64.5962644 97 62.6889368 98.2752768 63.3908046 98.8715867 62 99.9734317 63.2866379"></polygon>
                <polyline id="Fill-137" fill="#007743" fill-rule="nonzero" points="100.799253 71.6184824 100.296919 70.8757948 99.6246499 70.2585841 98.7385621 70 97.844071 70.0746079 97 70.2763883 97.4668534 70.9648156 98.0448179 71.6049173 98.8225957 72 99.9243697 71.949131 101 71.7049597"></polyline>
                <polyline id="Fill-139" fill="#007743" fill-rule="nonzero" points="101.892518 68.0445141 101.363373 68.0144201 100.84167 68.0752351 100.426623 68.3065831 100.174452 68.631348 100 68.9724138 100.491939 69 100.993799 68.9768025 101.441091 68.8194357 101.772633 68.431348 102 68"></polyline>
                <polyline id="Fill-141" fill="#007743" fill-rule="nonzero" points="107 66.0720315 106.278103 74 106 73.9270681 106.721897 66"></polyline>
                <polygon id="Fill-143" fill="#FED800" fill-rule="nonzero" points="110 63.066219 109.55708 64.9016974 108.076615 65.8574893 107.129026 66 106.330856 65.4232419 106 64.034695 106.247761 62.0089536 107.222032 63.1430703 108.315228 62 108.904517 63.6399925"></polygon>
                <polyline id="Fill-145" fill="#007743" fill-rule="nonzero" points="106.853765 72.8331165 106.67951 71.8503578 106.311734 70.937866 105.62697 70.3366949 104.813485 70.0897853 104 70 104.161121 70.9144437 104.438704 71.8152245 104.97986 72.5247235 105.966725 72.8711776 107 73"></polyline>
                <polyline id="Fill-147" fill="#007743" fill-rule="nonzero" points="110.843962 68.2816702 110.220876 68.0920028 109.551835 68 108.911649 68.1203114 108.413609 68.388535 108 68.6970984 108.578197 68.8733192 109.201283 69 109.836124 68.9660297 110.467759 68.6539278 111 68.2661005"></polyline>
                <polyline id="Fill-149" fill="#007743" fill-rule="nonzero" points="120.445882 65 122 72.9030687 121.554118 73 120 65.0960254"></polyline>
                <polygon id="Fill-151" fill="#EB7DAE" fill-rule="nonzero" points="121.769046 61.408046 122 63.2104885 120.986903 64.558908 120.17672 65 119.252905 64.7420977 118.474451 63.5962644 118 61.6889368 119.275779 62.3900862 119.871979 61 120.972145 62.2866379"></polygon>
                <polyline id="Fill-153" fill="#007743" fill-rule="nonzero" points="121.80014 70.6177966 121.297689 69.8762712 120.626197 69.2584746 119.738968 69 118.843334 69.0745763 118 69.2762712 118.466962 69.9661017 119.045062 70.6059322 119.823021 71 120.925986 70.95 122 70.7050847"></polyline>
                <polyline id="Fill-155" fill="#007743" fill-rule="nonzero" points="123.892518 67.0451411 123.363373 67.015047 122.84167 67.0758621 122.426623 67.30721 122.173625 67.6319749 122 67.9724138 122.491939 68 122.993799 67.9768025 123.441091 67.8188088 123.771807 67.4319749 124 67"></polyline>
                <polyline id="Fill-157" fill="#007743" fill-rule="nonzero" points="104 62.0945801 103.003338 71 102 70.9054199 102.997616 62"></polyline>
                <polygon id="Fill-159" fill="#1A3C68" fill-rule="nonzero" points="107 58.4530874 106.558848 61.1995188 104.747095 62.7190056 103.556659 63 102.508503 62.2051323 102 60.1756215 102.181849 57.1655172 103.49015 58.7696872 104.797609 57 105.650446 59.3826784"></polygon>
                <polyline id="Fill-161" fill="#007743" fill-rule="nonzero" points="103.805116 68.8322309 103.525457 67.8003608 103.004141 66.8559832 102.095981 66.2597715 101.04458 66.0478052 100 66 100.260171 66.9579074 100.664555 67.8968731 101.396346 68.6166566 102.673812 68.9251353 104 69"></polyline>
                <polyline id="Fill-163" fill="#007743" fill-rule="nonzero" points="106.843495 64.2362637 106.198617 64.0695971 105.514142 64 104.878693 64.1410256 104.394092 64.4218559 104 64.7405372 104.59868 64.8962149 105.236958 65 105.877121 64.9462759 106.491829 64.6166056 107 64.2155067"></polyline>
                <polyline id="Fill-165" fill="#007743" fill-rule="nonzero" points="95.0807066 73 97 81.8313324 95.9192934 82 94 73.1669107"></polyline>
                <polygon id="Fill-167" fill="#1A3C68" fill-rule="nonzero" points="95.7591241 67.6722925 96 70.3774027 94.6836983 72.366151 93.649635 73 92.4922952 72.5846226 91.5425791 70.8443507 91 67.9714018 92.5879968 69.06376 93.379562 67 94.7315491 68.9624941"></polygon>
                <polyline id="Fill-169" fill="#007743" fill-rule="nonzero" points="94.7996716 79.4872647 94.3103448 78.358804 93.6477833 77.4130676 92.7602627 77 91.8563218 77.0863787 91 77.3621262 91.454023 78.4097453 92.0205255 79.3864895 92.7963875 80 93.908867 79.9557032 95 79.6223699"></polyline>
                <polyline id="Fill-171" fill="#007743" fill-rule="nonzero" points="96.8390192 75.0432099 96.0586354 75.0039282 95.282516 75.0572391 94.6599147 75.2878788 94.271855 75.6161616 94 75.9640853 94.7260128 76 95.4712154 75.9854097 96.1385928 75.8310887 96.6449893 75.4382716 97 75"></polyline>
                <polyline id="Fill-173" fill="#007743" fill-rule="nonzero" points="125.502918 71 126 78.9163252 125.495491 79 125 71.0828122"></polyline>
                <polygon id="Fill-175" fill="#1A3C68" fill-rule="nonzero" points="125.956724 67.7413495 126 70.0060554 124.795747 71.5544983 123.904122 72 122.969968 71.566609 122.284275 70.0484429 122 67.6228374 123.252005 68.6522491 124.025741 67 125.03227 68.732699"></polygon>
                <polyline id="Fill-177" fill="#007743" fill-rule="nonzero" points="125.800755 76.758854 125.364495 75.9956228 124.7356 75.3374453 123.844193 75.0079586 122.902738 75 122 75.1193792 122.406043 75.8269001 122.932956 76.4986072 123.69594 76.9506566 124.848914 77 126 76.8615201"></polyline>
                <polyline id="Fill-179" fill="#007743" fill-rule="nonzero" points="126.893032 73.0756686 126.401883 73 125.902448 73.0215264 125.484369 73.2348337 125.206403 73.5603392 125 73.9119374 125.45725 73.9830398 125.931827 74 126.372505 73.8688845 126.731827 73.4801044 127 73.0365297"></polyline>
                <polyline id="Fill-181" fill="#007743" fill-rule="nonzero" points="114 62.0937135 113.003338 71 112 70.9045348 112.998569 62"></polyline>
                <polygon id="Fill-183" fill="#1A3C68" fill-rule="nonzero" points="116 59.4547787 115.558774 62.1998076 113.746716 63.7200128 112.556922 64 111.507747 63.2052598 111 61.1770366 111.181037 58.1654907 112.489559 59.7703656 113.79808 58 114.651061 60.3832585"></polygon>
                <polyline id="Fill-185" fill="#007743" fill-rule="nonzero" points="112.805068 69.8313289 112.525341 68.7994588 112.004873 67.8550812 111.095517 67.2588695 110.04386 67.0478052 109 67 109.259259 67.9579074 109.664717 68.8968731 110.395712 69.6157547 111.674464 69.9251353 113 70"></polyline>
                <polyline id="Fill-187" fill="#007743" fill-rule="nonzero" points="115.842601 66.2357972 115.198869 66.0690287 114.513666 66 113.878417 66.1411118 113.39491 66.4221136 113 66.7409896 113.599434 66.8967624 114.237512 67 114.876532 66.946854 115.491046 66.6175932 116 66.2156384"></polyline>
                <polyline id="Fill-189" fill="#007743" fill-rule="nonzero" points="117.542254 68 118 73.9628453 117.458753 74 117 68.0381073"></polyline>
                <polygon id="Fill-191" fill="#AF2243" fill-rule="nonzero" points="118 65.6457856 117.990011 67.459893 117.046892 68.6669213 116.36182 69 115.661765 68.6282149 115.170644 67.3947033 115 65.4451235 115.930633 66.3017571 116.549112 65 117.279134 66.4148205"></polygon>
                <polyline id="Fill-193" fill="#007743" fill-rule="nonzero" points="117.850951 71.8937143 117.538055 71.516 117.079281 71.1868571 116.406977 71.0148571 115.691332 71 115 71.0474286 115.290698 71.3982857 115.673362 71.732 116.244186 71.9611429 117.120507 72 118 71.9457143"></polyline>
                <polyline id="Fill-195" fill="#007743" fill-rule="nonzero" points="117.946536 70.0902913 117.705401 70 117.459356 70.0097087 117.250409 70.2145631 117.107474 70.5378641 117 70.8883495 117.224768 70.9718447 117.45772 71 117.676487 70.8786408 117.859793 70.4941748 118 70.0524272"></polyline>
                <polyline id="Fill-197" fill="#007743" fill-rule="nonzero" points="122.542254 76 123 81.9628512 122.458753 82 122 76.0381013"></polyline>
                <polygon id="Fill-199" fill="#AF2243" fill-rule="nonzero" points="123 73.6449312 122.989176 75.4605196 122.046628 76.6678553 121.361366 77 120.660283 76.6281202 120.169858 75.3953133 120 73.4452369 120.930058 74.3031075 121.548709 73 122.278934 74.4151808"></polygon>
                <polyline id="Fill-201" fill="#007743" fill-rule="nonzero" points="122.849947 79.8931429 122.538218 79.516 122.077492 79.1868571 121.406481 79.016 120.691088 79 120 79.0474286 120.290595 79.3982857 120.673124 79.7325714 121.243748 79.9622857 122.120817 80 123 79.9462857"></polyline>
                <polyline id="Fill-203" fill="#007743" fill-rule="nonzero" points="122.94599 78.0894072 122.704855 78 122.458811 78.0077745 122.249864 78.2147716 122.106929 78.537415 122 78.888241 122.223677 78.9718173 122.45772 79 122.675941 78.8785228 122.859793 78.494655 123 78.0524781"></polyline>
                <polyline id="Fill-205" fill="#007743" fill-rule="nonzero" points="88.4944089 65 89 71.9468379 88.5063898 72 88 65.0521955"></polyline>
                <polygon id="Fill-207" fill="#AF2243" fill-rule="nonzero" points="89.9827048 62.6176991 90 64.4300885 88.768196 65.6539823 87.8650012 66 86.9291376 65.640708 86.2575066 64.4176991 86 62.4734513 87.2471775 63.3123894 88.046601 62 89.0391545 63.399115"></polygon>
                <polyline id="Fill-209" fill="#007743" fill-rule="nonzero" points="87.8504105 68.8863179 87.5302524 68.5065392 87.0641532 68.1775654 86.3937367 68.0095573 85.6840985 68 85 68.0538229 85.2973548 68.4064386 85.6868349 68.7414487 86.2587413 68.9688129 87.1289146 69 88 68.9376258"></polyline>
                <polyline id="Fill-211" fill="#007743" fill-rule="nonzero" points="89.8928742 67.0813076 89.4050693 67 88.9105691 67.015088 88.4916308 67.2238055 88.2104256 67.5498743 88 67.8994132 88.4524151 67.9765298 88.9239598 68 89.3620277 67.8717519 89.7264467 67.4861693 90 67.0435876"></polyline>
                <polyline id="Fill-213" fill="#007743" fill-rule="nonzero" points="111.445882 70 113 77.9039746 112.554981 78 111 70.0978372"></polyline>
                <polygon id="Fill-215" fill="#EB7DAE" fill-rule="nonzero" points="112.768961 66.4087644 113 68.2112069 111.986529 69.5603448 111.176785 70 110.25263 69.7428161 109.473888 68.5977011 109 66.6896552 110.274774 67.391523 110.871932 66 111.973242 67.2873563"></polygon>
                <polyline id="Fill-217" fill="#007743" fill-rule="nonzero" points="112.798319 75.6186441 112.296919 74.8762712 111.62465 74.2584746 110.738562 74 109.844071 74.0754237 109 74.2762712 109.466853 74.9669492 110.043884 75.6050847 110.823529 76 111.92437 75.9483051 113 75.7050847"></polyline>
                <polyline id="Fill-219" fill="#007743" fill-rule="nonzero" points="114.8933 72.0445141 114.363937 72.015047 113.841191 72.076489 113.427626 72.30721 113.174524 72.631348 113 72.9724138 113.492142 73 113.99421 72.9768025 114.441687 72.8194357 114.773366 72.4319749 115 72"></polyline>
                <polyline id="Fill-221" fill="#007743" fill-rule="nonzero" points="118 74.0954466 117.003338 83 116 82.9045534 116.999523 74"></polyline>
                <polygon id="Fill-223" fill="#1A3C68" fill-rule="nonzero" points="120 71.4538165 119.558848 74.1998076 117.746254 75.7180885 116.556659 76 115.507661 75.2052598 115 73.1760744 115.181849 70.1654907 116.49015 71.7703656 117.797609 70 118.649604 72.3822963"></polygon>
                <polyline id="Fill-225" fill="#007743" fill-rule="nonzero" points="116.805068 80.8322309 116.526316 79.7994588 116.004873 78.8550812 115.095517 78.2588695 114.04386 78.0469032 113 78 113.259259 78.9579074 113.664717 79.8959711 114.395712 80.6157547 115.673489 80.9242333 117 81"></polyline>
                <polyline id="Fill-227" fill="#007743" fill-rule="nonzero" points="119.843544 77.2356532 119.197926 77.0689866 118.514609 77 117.877474 77.1404151 117.39491 77.4218559 117 77.7405372 117.599434 77.8949939 118.237512 78 118.877474 77.9450549 119.491046 77.6166056 120 77.2155067"></polyline>
                <polyline id="Fill-229" fill="#007743" fill-rule="nonzero" points="105.22286 72 106 77.9284744 105.775991 78 105 72.072431"></polyline>
                <polygon id="Fill-231" fill="#FED800" fill-rule="nonzero" points="106.768002 69.4078506 107 71.2106271 105.986483 72.5605553 105.176456 73 104.252396 72.7434179 103.472843 71.597415 103 69.689325 104.275006 70.3910962 104.871713 69 105.972721 70.2876975"></polygon>
                <polyline id="Fill-233" fill="#007743" fill-rule="nonzero" points="105.849813 75.8086907 105.472948 75.4390519 104.969216 75.1297968 104.305037 75 103.634328 75.0378104 103 75.1382619 103.350746 75.4836343 103.784515 75.8024831 104.36847 76 105.193097 75.974605 106 75.8521445"></polyline>
                <polyline id="Fill-235" fill="#007743" fill-rule="nonzero" points="105.946527 73.0442774 105.681918 73.0150376 105.420617 73.075188 105.213341 73.3065998 105.086549 73.6307435 105 73.9724311 105.245314 74 105.497244 73.9766082 105.720507 73.8187135 105.88699 73.4302423 106 73"></polyline>
                <polyline id="Fill-237" fill="#007743" fill-rule="nonzero" points="87.4458818 72 89 79.9030687 88.5541182 80 87 72.0960254"></polyline>
                <polygon id="Fill-239" fill="#EB7DAE" fill-rule="nonzero" points="88.7690037 67.408046 89 69.2090517 87.9867159 70.5596264 87.1763838 71 86.2523985 70.7413793 85.4730627 69.5969828 85 67.6875 86.2752768 68.3908046 86.8715867 67 87.9726937 68.2859195"></polygon>
                <polyline id="Fill-241" fill="#007743" fill-rule="nonzero" points="88.799253 77.6179585 88.2959851 76.8759 87.6255836 76.2592122 86.7385621 76 85.844071 76.0753918 85 76.2778484 85.4677871 76.9656925 86.0448179 77.605252 86.8225957 78 87.9243697 77.9491741 89 77.7052097"></polyline>
                <polyline id="Fill-243" fill="#007743" fill-rule="nonzero" points="89.8925176 74.044542 89.3633733 74.0144291 88.8416701 74.0752823 88.4274494 74.3067754 88.1736255 74.6304893 88 74.9723965 88.4919388 75 88.9946259 74.976788 89.4410914 74.8193225 89.7726333 74.4316186 90 74"></polyline>
            </g>
            <g id="Page-1" transform="translate(154.000000, 320.000000)">
                <path d="M84.2190004,105.17209 C81.6662715,108.801593 78.7678027,113.457688 69.6803103,115.00357 C60.5946718,116.54853 54.3963791,114.266601 50.7211539,111.522568 C46.6297432,108.466775 41.3370482,100.424681 40.6863526,92.5006503 C40.035657,84.5766193 43.0286714,80.4019989 45.1309187,76.9883289 C46.8410802,74.2110903 53.7948101,68.618796 56.8944199,67.8523114 C61.2509289,66.7740676 68.8664773,67.2518523 73.1720059,68.5201031 C76.4403146,69.4821289 82.0444536,75.4175427 84.2190004,78.1145356 C86.1924063,80.5624903 88.0629244,87.0052043 88.1556161,90.1892056 C88.267773,94.0686695 86.4269163,102.030517 84.2190004,105.17209 M88.2547962,75.3262286 C85.4925841,72.212327 82.3475554,67.0858267 74.7060532,64.0521708 C67.0626972,61.0194373 59.8308923,61.4787746 52.6843637,64.5696171 C45.5369082,67.6604596 43.4874952,70.7845072 41.2082067,73.9703532 C38.4079911,77.8867117 35.0191832,85.9260382 36.2658863,94.5778145 C37.5125894,103.226824 42.2203999,110.124263 47.0904208,113.877363 C54.8357376,119.847827 65.3525357,120.525765 70.7573876,119.72792 C75.934218,118.964202 83.8760412,114.14116 88.2547962,107.893987 C90.9094859,104.110449 93.1294517,94.5289292 92.9941218,89.8589992 C92.8828918,86.0274982 90.7648869,78.1532749 88.2547962,75.3262286" id="Fill-1" fill="#E3C521"></path>
                <polygon id="Fill-3" fill="#32303E" points="53 120.63643 84.333645 111 100 117.227219 63.5577 129"></polygon>
                <polygon id="Fill-5" fill="#65A68E" points="13.1972239 44 8.44613812 44.3042613 3 45.1796097 3.39529933 48 9.38567657 47.7889287 14 47.5786539"></polygon>
                <polyline id="Fill-7" fill="#F1856C" points="72 64 70.8490231 52.7176364 70.3742936 50 68.9103827 50.6349618 63.9935411 52.2885836 60 52.6486977 60.1724528 53.5086173 61.2139512 61.235195 64.596157 61.7368148"></polyline>
                <path d="M56.3369369,61 L64.0018018,62.2205299 C64.0018018,62.2205299 70.4837838,63.7989731 73.2855856,65.2695892 C76.0891892,66.7402054 78.1423423,69.5391785 78.1423423,69.5391785 L81,75.9435623 L81,82 L53,73.3466517 L56.3369369,61 Z" id="Fill-9" fill="#32303E"></path>
                <polygon id="Fill-11" fill="#32303E" points="14 44.5112242 29.8675183 38.8770556 47.6056909 38 55.0864726 39.5448969 59.4831529 72.3805795 86 83.0377186 56.4577963 101 22.7538915 92.7054294"></polygon>
                <path d="M54.3760601,8.78653095 C53.5926432,7.33906614 54.6156618,7.18183354 53.7326352,5 C51.8912018,5.61413203 50.7551128,4.72808009 48.7395867,5.70384711 C46.7231633,6.67961412 47.9525803,7.60266197 46.9717389,9.01313087 C45.9908974,10.4189753 44.2248443,11.1838656 44.2248443,11.1838656 L44.6178988,14.5856392 L43.6397494,14.8936301 L42.5476323,15.0675108 C42.5476323,15.0675108 42.2595718,12.2872685 41.681656,12.0024001 C41.110022,11.7129071 40.5742833,12.1254114 40.0205969,13.1871939 C39.4713975,14.2471266 40.7887582,15.6668445 40.5949231,17.2854154 C40.5006977,18.0725033 40.1031563,18.8688402 39.719973,19.4774228 L40.9628509,21.011828 C40.9628509,21.011828 41.3307786,24.2794914 40.335579,26.1283618 C39.3385845,27.9772321 37,28.8799322 37,28.8799322 L40.592231,29.9796355 C40.592231,29.9796355 43.8210212,31.1912514 46.4001048,30.9739005 C48.9729068,30.7473006 53.1493352,29.2600652 53.1493352,29.2600652 C53.1493352,29.2600652 52.033886,27.3150054 50.9471531,25.4208151 C49.8604202,23.5275496 51.0297125,23.1039465 51.0297125,23.1039465 C51.0297125,23.1039465 53.3952186,22.6572209 54.4352875,21.6749796 C55.4780485,20.6918134 55.0948652,16.1783129 55.2034488,15.0943329 C55.3111349,14.0038786 57.9297035,14.2360279 57.9988021,12.8394324 C58.0670034,11.4409872 55.2034488,10.3116872 54.3760601,8.78653095" id="Fill-13" fill="#F1856C"></path>
                <g id="Group-17" transform="translate(35.000000, 0.000000)">
                    <mask id="mask-12" fill="white">
                        <use xlink:href="#path-11"></use>
                    </mask>
                    <g id="Clip-16"></g>
                    <path d="M5.22254545,13.6294737 C5.78345455,12.5583732 6.32618182,12.1413158 6.90618182,12.4333493 C7.49072727,12.7207177 7.78254545,15.5253589 7.78254545,15.5253589 L8.88890909,15.3499522 L9.87981818,15.0401914 L9.48254545,11.6076316 C9.48254545,11.6076316 11.2707273,10.8360287 12.2643636,9.41784689 C13.258,7.99593301 12.6370909,6.90803828 14.0552727,6.08045455 C15.4716364,5.2519378 17.2489091,5.98995215 19.1134545,5.36949761 C19.4552727,5.25566986 19.6561818,4.48966507 19.6561818,4.48966507 C19.6561818,4.48966507 20.1089091,3.08547847 19.508,2.62736842 C18.9061818,2.16925837 18.0998182,1.55440191 18.0998182,1.55440191 C18.0998182,1.55440191 17.1652727,1.06083732 15.4716364,0.734282297 C13.778,0.407727273 13.7061818,0.703492823 11.0389091,0.222990431 C8.37345455,-0.257511962 5.20254545,2.81210526 3.94072727,3.14425837 C2.67981818,3.47827751 2.35890909,5.12411483 1.18618182,6.24186603 C0.0134545455,7.36055024 0.986181818,9.54287081 0.445272727,11.8726077 C-0.0956363636,14.2023445 1.35618182,17.0862919 2.46345455,17.9847847 C3.57163636,18.8823445 4.918,19.9749043 4.918,19.9749043 C5.30618182,19.3609809 5.70890909,18.5576555 5.80436364,17.7636603 C6.00072727,16.1308852 4.66618182,14.6987081 5.22254545,13.6294737" id="Fill-15" fill="#833047" mask="url(#mask-12)"></path>
                </g>
                <path d="M51.9993585,12.0372833 C51.978011,12.5889717 51.5137035,13.0214243 50.9631166,12.9991788 C50.4098612,12.9796027 49.9802433,12.5151167 50.0007013,11.9634283 C50.0220488,11.4108501 50.4854668,10.981067 51.0369432,11.000643 C51.5884196,11.0219987 52.018927,11.4864848 51.9993585,12.0372833" id="Fill-18" fill="#32303E"></path>
                <path d="M52,17.0346568 L56,17 C56,17 55.9156785,18.0081053 53.8740448,17.9999508 C52.5312253,17.9943445 52,17.0346568 52,17.0346568" id="Fill-20" fill="#E13E2B"></path>
                <path d="M60.1076169,52.418815 L63.9156486,52.0536549 L68.6031674,50.376862 L70,49.7330029 L69.2803356,45.3428039 L67.8262255,39.4367766 L66.1799585,35.2811262 L62.9077489,32.436189 L58.3671192,30.2489077 L54.0879336,28.3771175 C54.0879336,28.3771175 49.7865762,29.8589131 47.1361048,30.0796648 C44.482862,30.2994967 41.1570701,29.0936406 41.1570701,29.0936406 L37.4571267,28 L31.5141214,30.6664963 L25.4611802,35.72079 L21.2605204,46.4162089 L21,51.0970643 L23.9294683,51.8356626 L28.0802413,52.418815 L31.6157428,52.1502338 L31.3025641,58.2751731 L33.0061086,62.4685352 L35.5734351,61.89826 L45.5,64 L54.82977,62.3958711 L59.1071078,59.870104 L59.6651018,50.070569 L60.1076169,52.418815 Z" id="Fill-22" fill="#F1DBC7"></path>
                <path d="M60.5695094,110 L60,113.263652 L60.5704077,115.311216 L61.0923082,117.324405 L64.6530893,120.073379 C64.6530893,120.073379 69.7562168,124.271627 72.5327996,124.897788 C75.3102807,125.523948 77.6952135,123.068545 77.6952135,123.068545 C77.6952135,123.068545 78.4542599,121.178915 77.5766406,119.594933 C76.6990212,118.011881 72.5938826,115.177436 72.5938826,115.177436 L71.7396185,111.540318 L60.5695094,110 Z" id="Fill-24" fill="#B93E23"></path>
                <path d="M77.6865996,106 L77.0541806,109.417152 L77,112.669312 L78.8748372,114.607043 C78.8748372,114.607043 84.8337743,119.875763 86.9823172,120.662221 C89.1317943,121.449596 91.3634764,120.613641 91.3634764,120.613641 C91.3634764,120.613641 94.8684038,119.487117 93.7960007,117.270735 C92.7235975,115.054352 88.7497273,112.669312 88.7497273,112.669312 L87.3064669,111.178892 L87.8856394,106.820373 L77.6865996,106 Z" id="Fill-26" fill="#B93E23"></path>
                <path d="M88.385732,75.1187035 L86.5500093,72.3004688 L85.4536876,71.3570094 L82.2450524,69.5691071 L76.7807879,67.4131623 L68.5314463,65.1918291 L59.8402898,63.0442913 L58.8516833,60 L53.9031737,61.825267 L43.0476718,62.638884 L31,60.4913462 L32.0415513,69.6905425 C32.0415513,69.6905425 33.6253299,76.4367443 34.0863145,77.7071451 C34.547299,78.9766118 38.8622971,83.260478 38.8622971,83.260478 L44.1604247,84.8746343 L50.6580249,85.994642 L56.3413713,86.4093905 L58.1834838,86.8147978 L59.8466796,112.654376 L72.3416434,113 L72.4384046,100.588371 C72.4384046,100.588371 73.4826943,87.0436568 73.3731535,83.5238993 C73.2645254,80.0032077 69.615901,78.4787268 69.615901,78.4787268 L68.6756751,79.1877225 L74.0970361,85.0362367 L74.6465663,96.1840037 L77.0272549,109.405513 L87.6435925,110.233142 L89.1945088,100.263298 L89.8900935,92.4139025 C89.8900935,92.4139025 90.1858539,86.0861856 89.807025,82.6318164 C89.2976598,77.9911171 88.385732,75.1187035 88.385732,75.1187035" id="Fill-28" fill="#4E87BC"></path>
                <path d="M19,64 L26.5126919,66.7705031 L35.7372983,71.049816 C35.7372983,71.049816 47.7280077,72.7693742 50.7078716,75.1668712 C53.686822,77.5662331 54.6039843,81.081816 54.6039843,81.081816 C54.6039843,81.081816 55.9587171,85.7182822 55.9979979,90.111362 C56.0372788,94.5053742 55.4855198,102 55.4855198,102 L21.9433236,93.5346258 L19,64 Z" id="Fill-30" fill="#32303E"></path>
                <path d="M48.2190726,116.171518 C45.6672695,119.801973 42.7678724,124.457183 33.681303,126.004001 C24.5947335,127.548973 18.3964381,125.267026 14.7202845,122.522047 C10.6297988,119.467152 5.3361746,111.424071 4.68733255,103.500898 C4.03570975,95.5758804 7.02965235,91.401226 9.13004676,87.9875283 C10.8411359,85.2102671 17.7948689,79.6188498 20.89448,78.8523589 C25.2509909,77.7741064 32.8656158,78.2509726 37.1730001,79.5192337 C40.4394564,80.4812673 46.0445248,86.4167293 48.2190726,89.1137442 C50.1924793,91.5617187 52.0629983,98.0044851 52.15569,101.188512 C52.267847,105.068008 50.4279163,113.030843 48.2190726,116.171518 M52.2548701,86.3263369 C49.4926568,83.21241 46.3476267,78.0849456 38.7051943,75.0521875 C31.0627619,72.0194293 23.8309538,72.4787704 16.684422,75.569638 C9.53696341,78.6605056 7.48569562,81.7836562 5.20826003,84.9704504 C2.40711621,88.8859184 -0.980766206,96.9262325 0.265937446,105.577157 C1.5126411,114.227159 6.21952671,121.123732 11.0904767,124.876862 C18.8357969,130.847374 29.3525996,131.525318 34.7574539,130.728389 C39.9342865,129.963742 47.8761132,125.140661 52.2548701,118.89436 C54.909561,115.109868 57.1286008,105.529193 56.9941978,100.859226 C56.8829678,97.0267711 54.764035,89.1534061 52.2548701,86.3263369" id="Fill-32" fill="#E3C521"></path>
                <path d="M41.1983957,76.8060274 L38.0032963,74.6207123 L35.9818512,69.9920548 L32.1568089,63.5152877 L30.4830124,59.2694795 L30.7907223,53.0665753 L27.3169593,53.3385753 L23.238669,52.7470685 L20.3603564,52 L20,58.6546849 L21.322517,65.4136986 L27.3469134,74.570411 L31.6303436,79.3089863 L32.499919,80.5190137 C32.499919,80.5190137 33.6027729,84.2394521 34.1101765,84.7676164 C34.6184878,85.2948493 36.268684,86 36.268684,86 L38.1893745,85.8025205 C38.1893745,85.8025205 38.9926879,85.8155616 40.0592339,85.3349041 C41.2583039,84.7936986 41.2828117,83.8826849 41.2828117,83.8826849 L40.251666,82.5040548 L39.3158286,81.2986849 L39.0035803,79.8129315 L39.326721,78.7072329 L41.5950601,79.3471781 C41.5950601,79.3471781 42.6107749,79.5064658 42.9611466,78.9103014 C43.3097029,78.3169315 41.1983957,76.8060274 41.1983957,76.8060274" id="Fill-34" fill="#F1856C"></path>
            </g>
            <g id="Page-1" transform="translate(522.000000, 238.000000)">
                <path d="M39.2960726,61.0655013 L42.9167567,61.0655013 L46.5527467,61.0655013 L48,55.2197674 L47.4830024,42.6041328 L44.7228472,35.5411008 L42.3768003,31.1162519 L40.108133,28.4375203 L35.2748853,25.7030346 L30.9934986,24 C30.9934986,24 27.0479902,27.0994217 24.7240518,27.2928715 C22.3975624,27.4837871 19.4843487,26.4303723 19.4843487,26.4303723 L17.193573,24.7011502 L12.5720562,26.1777893 L4.91913054,31.6898434 L1.77632908,39.7040743 L0,51.0111768 L2.90556077,63 L10.1588336,61.4050945 L9.62312884,54.3268568 L9.62312884,48.8857626 L11.0788854,45.0894145 L11.661358,47.1295081 L11.8560825,50.6682046 L12.2276745,57.0816167 L13.9810448,57.6459159 L26.9408493,58.7069335 L36.5350671,56.8594451 L36.6320041,44.4499318 L39.2960726,61.0655013 Z" id="Fill-1" fill="#65A68E"></path>
                <path d="M15.6910527,81.8345663 L10,81 C10.2587613,85.0090061 10.5573974,87.4252171 10.6549631,87.634502 C10.8119167,87.9767342 11.7180056,103.974161 11.7180056,103.974161 L21.3345951,105 L22.2474711,95.7923234 C22.9032826,91.5397234 22.4163023,85.6926128 22.4163023,85.6926128 L23,82.1579286 L18.5968152,82.1579286 L15.6910527,81.8345663 Z" id="Fill-3" fill="#F1856C"></path>
                <polygon id="Fill-5" fill="#B93E23" points="18.3830603 55.8524471 12.0676965 55.2241494 10.8027421 60.6088301 9.59680178 65.1300261 8.38145345 72.3647886 8 80.980108 8.38145345 86.3554491 9.4488389 99.3442295 11.389462 111 21.4252799 111 22.8484605 96.3929286 23.8311735 85.3781915 24.9302042 72.5498817 25.6503473 72.5456365 27.7979473 105.479471 28.328219 110.62472 34.5383838 110.62472 37.8320547 110.62472 40.2661725 96.9524532 41 84.2319728 41 75.7431621 40.6356521 68.5058524 39.7769542 64.4431439 38.2853514 59.8913821 36.516639 55 27.3455059 56.0324459"></polygon>
                <path d="M33.1510433,6.07852911 L31.3036071,2.98062635 L29.3606425,1.63904825 L27.0405485,1 L24.5003238,1 C24.5003238,1 21.239898,1.08125647 18.3383267,3.37421236 C15.4334327,5.66716825 15.0006475,10.3927396 15.0006475,10.3927396 C15.0006475,10.3927396 14.9599441,13.5575096 15.523977,15.0268974 C16.0880099,16.4962852 18.0741699,18.3584125 18.0741699,18.3584125 L20.3062117,20.2230791 L19.1449186,23.3362174 L16.2059667,25.7341296 L18.6589698,27.3033951 L23.982809,28 L31.9299411,25.2812941 L28.9212119,22.4686354 L28.1262495,20.299257 C28.1262495,20.299257 29.972855,18.875576 31.5411821,17.1717295 C33.1078478,15.467883 33.3744967,13.4593247 33.3744967,13.4593247 L34,10.1337346 L33.1510433,6.07852911 Z" id="Fill-7" fill="#F1856C"></path>
                <polygon id="Fill-9" fill="#0B6162" points="25 27.8471111 21.2069848 31 19.0448598 29.4364444 16.8791933 26.864 16 24.9964444 19.3423512 23"></polygon>
                <polygon id="Fill-11" fill="#0B6162" points="24 28.0168209 28.0008173 31 29.4246016 29.8780488 31.720474 26.5138772 32 24.7384357 29.4246016 23"></polygon>
                <path d="M20.9994095,12.0365879 C20.9779668,12.5889698 20.5133744,13.0206857 19.9612242,12.9992339 C19.409074,12.9795699 18.979326,12.5147825 19.0007688,11.9624007 C19.021318,11.4109127 19.485017,10.9809844 20.0362737,11.0006485 C20.5875305,11.0221002 21.0181719,11.4850999 20.9994095,12.0365879" id="Fill-13" fill="#32303E"></path>
                <path d="M28.9993531,12.0361256 C28.9788043,12.5882611 28.5133313,13.0206779 27.9629831,12.9992358 C27.4099547,12.9777936 26.9793251,12.514107 27.0007672,11.9619715 C27.0213159,11.4107294 27.4858956,10.9809929 28.0371372,11.0006482 C28.5883788,11.0220904 29.0190083,11.485777 28.9993531,12.0361256" id="Fill-15" fill="#32303E"></path>
                <g id="Group-19" transform="translate(14.000000, 0.000000)">
                    <mask id="mask-14" fill="white">
                        <use xlink:href="#path-13"></use>
                    </mask>
                    <g id="Clip-18"></g>
                    <path d="M11.439288,5.63334737 C12.450648,5.29145263 12.836208,5.44134737 13.693848,4.8704 C14.550648,4.30029474 14.774928,3.03966316 16.197888,3.57945263 C17.621688,4.12008421 16.112208,7.42113684 16.965648,8.41903158 C17.819088,9.41608421 17.993808,9.54492632 18.488568,10.3255579 C18.982488,11.1070316 19.465488,10.7280842 19.499088,12.0729263 C19.531848,13.4186105 19.981248,13.3461895 19.981248,13.3461895 C19.981248,13.3461895 20.632248,11.8556632 20.713728,11.2653474 C20.831328,10.4148211 20.616288,9.02955789 20.616288,9.02955789 C20.616288,9.02955789 20.732208,6.74745263 20.224008,5.15587368 C19.714968,3.56345263 19.114368,2.81229474 17.599848,2.01987368 C16.086168,1.22661053 14.097888,1.11461053 12.594288,0.536084211 C11.092368,-0.0416 9.916368,0.387031579 7.623168,1.02366316 C5.331648,1.66113684 4.453848,2.73987368 4.453848,2.73987368 L2.043888,4.60513684 C2.043888,4.60513684 1.114848,5.63755789 0.776328,7.02029474 C0.436968,8.40303158 0.914928,9.95250526 0.776328,11.1306105 C0.637728,12.3087158 0.940968,14.0224 1.387848,14.8173474 C1.835568,15.6131368 2.296728,15.7167158 2.296728,15.7167158 C2.296728,15.7167158 1.619688,14.7280842 1.951488,13.4017684 C2.285808,12.0754526 2.936808,12.9655579 3.185448,11.3849263 C3.434088,9.80513684 3.071208,6.99334737 3.749928,5.72597895 C4.427808,4.45945263 5.847408,4.15882105 5.847408,4.15882105 C5.847408,4.15882105 7.407288,6.46197895 8.831928,6.56555789 C10.255728,6.66913684 10.427928,5.97524211 11.439288,5.63334737" id="Fill-17" fill="#F1DBC7" mask="url(#mask-14)"></path>
                </g>
                <path d="M12.3833253,111 L12.4023486,115.214121 C12.4023486,115.214121 10.339189,120.274294 10.0244404,122.216986 C9.70969182,124.158828 12.5389702,125.852632 12.5389702,125.852632 C12.5389702,125.852632 15.0630117,126.55003 16.6505897,124.910592 C18.2364383,123.271153 21,115.886885 21,115.886885 L21,111 L12.3833253,111 Z" id="Fill-20" fill="#32303E"></path>
                <path d="M29,110 L29,113.716699 L29,118.762118 L34.9497931,121.058025 L41.6402313,123 C41.6402313,123 44.529732,122.252437 43.9138963,119.978493 C43.2980607,117.702859 36.8227545,114.161014 36.8227545,114.161014 L36.9278571,112.441196 L37.1142501,110.506823 L29,110 Z" id="Fill-22" fill="#32303E"></path>
                <path d="M16.5939951,11.6796093 C16.5939951,11.6796093 16.7769215,13.5377903 17.1393391,13.9208137 C17.7568231,14.574714 19.5105121,15.3804434 20.4062504,15.412362 C21.1465442,15.438242 21.4565744,14.7412084 22.9036684,14.6497659 C24.3499035,14.5591861 25.0266454,14.8326509 25.0266454,14.8326509 C25.0266454,14.8326509 26.5338561,14.3771637 27.4871346,14.5591861 C28.4404131,14.7412084 28.4352603,15.3338595 29.7088747,15.1518371 C30.9824892,14.9698147 32.0268016,13.3281627 32.0268016,13.3281627 L33.1612889,10.7151495 L33.3880146,10 L35,10.9868891 L34.1137086,15.412362 C34.1137086,15.412362 33.4326727,17.9787913 32.1169766,19.8930455 C30.8004216,21.8081625 28.6954796,22.5836986 28.6954796,22.5836986 L25.0000223,22.9934646 C25.0000223,22.9934646 23.7384312,23.0849071 21.6875941,22.5836986 C19.6350395,22.08249 18.2738264,21.1094036 17.5026155,20.0759306 C16.7305458,19.0424576 16.643806,17.4456641 15.7618087,15.7444882 C14.881529,14.0433122 15.0060563,12.6457944 15.0060563,12.6457944 L16.5939951,11.6796093 Z" id="Fill-24" fill="#F1DBC7"></path>
                <path d="M23,16.0706209 L26,16 C26,16 25.9365079,18.0162766 24.4055556,17.9999008 C23.3992063,17.9886424 23,16.0706209 23,16.0706209" id="Fill-26" fill="#E13E2B"></path>
                <path d="M38,69.3237941 C38,69.3237941 43.1881968,66.9746082 44.3274373,67.0002077 C45.4666778,67.0266606 46.356107,67.1973243 47.1298516,68.249466 C47.902758,69.3007545 47.6931847,75.4301414 47.6931847,75.4301414 L47.68564,104.616195 L48,121.763631 L45.3283595,122 L45.0341185,102.936011 L44.7356861,76.0829301 C44.7356861,76.0829301 44.6702993,72.6261368 44.6443122,71.2480273 C44.6174868,69.8707712 43.0431721,70.2931639 43.0431721,70.2931639 L39.0780451,71.8931361 L38,69.3237941 Z" id="Fill-28" fill="#32303E"></path>
                <path d="M39,61 L39.305616,63.6893729 L39.6561008,65.5841584 L39.7322931,68.4494638 C39.7322931,68.4494638 40.7939065,70.5573507 41.3052419,70.8340522 C41.8157306,71.1107536 42.2915095,70.5375273 42.2915095,70.5375273 L42.0993355,67.8960609 L43.0483535,67.6738738 C43.0483535,67.6738738 44.2877491,67.3203567 45.4399467,68.2148871 C46.5921444,69.1094175 47.0619972,72.2745517 47.3083525,72.7114922 C47.5547077,73.1484327 48.5121916,73.0526196 48.8296597,72.6677155 C49.1462813,72.2836374 48.9244769,68.3899937 48.9244769,68.3899937 L47.588571,65.3338881 L45.4357138,63.1648791 L45.6414332,61" id="Fill-30" fill="#F1856C"></path>
                <polygon id="Fill-32" fill="#4E87BC" points="45.6567278 120 48.0932722 120 49 124 45 124"></polygon>
                <path d="M3,62.3927951 L3.82281553,65.0707836 L3.56634304,67.8701467 L3.79126214,71.2126827 L4.68851133,73.0901154 C4.68851133,73.0901154 5.49029126,73.8407441 6.80501618,73.9767526 C8.1197411,74.1136218 9.5631068,73.6014382 9.5631068,73.6014382 L9.94822006,72.2714824 L9.43446602,68.2790328 L10.97411,69.4394084 L12,68.2110286 L9.24271845,63.468811 L8.91909385,61 L3,62.3927951 Z" id="Fill-34" fill="#F1856C"></path>
            </g>
            <g id="Page-1" transform="translate(70.000000, 256.000000)">
                <g id="Group-3" transform="translate(0.000000, 109.000000)">
                    <mask id="mask-16" fill="white">
                        <use xlink:href="#path-15"></use>
                    </mask>
                    <g id="Clip-2"></g>
                    <path d="M6.712228,0.692685714 L-9.2e-05,10.9038286 L7.017668,16.621019 L14.269108,18.9996381 L21.325508,18.3834952 C21.325508,18.3834952 23.128708,14.9906381 21.325508,13.9112571 C19.522308,12.8318762 14.504628,12.2917333 14.504628,12.2917333 L12.544108,10.7491143 L15.155068,6.20449524 L6.712228,0.692685714 Z" id="Fill-1" fill="#4E87BC" mask="url(#mask-16)"></path>
                </g>
                <path d="M12.0688607,58 L9.53005629,61.3483954 L8.47907349,64.2754753 C8.47907349,64.2754753 5.26359721,65.4624164 3.80489819,66.3165537 C2.34619917,67.1689208 3.31581003,68.9719029 3.31581003,68.9719029 C3.31581003,68.9719029 7.0409316,69.2277016 9.51035571,68.1956558 C11.9806364,67.162725 13.7622535,65.558009 13.7622535,65.558009 L17,62.6504016 L12.0688607,58 Z" id="Fill-4" fill="#F1856C"></path>
                <path d="M9,61 C9,61 7.66582343,61.4595568 6.87275487,61.8060942 C6.0789274,62.1526316 6,63.0135734 6,63.0135734 L6.11459651,64 L8.72527195,63.3144044 L9,61 Z" id="Fill-6" fill="#F1856C"></path>
                <path d="M62.0600747,53 L66.0263855,53.9025817 L71.2114879,53.2749294 L71.9212855,54.6513444 L69.4985445,55.9101851 L70.0599219,56.5015928 L71.6759557,56.8490116 C71.6759557,56.8490116 73.3461192,56.9250371 74.248863,57.5792099 C75.1524799,58.2342668 74.9883447,59.6964315 74.9883447,59.6964315 C74.9883447,59.6964315 74.7578569,60.944664 73.752092,62.1902445 C72.7463271,63.4340569 68.98082,62.8744739 68.98082,62.8744739 L62.4704128,60.4504983 L59,59.7370963 L62.0600747,53 Z" id="Fill-8" fill="#F1856C"></path>
                <polygon id="Fill-10" fill="#B93E23" points="27.370396 30.273451 20.7986139 45.2033241 14.219703 53.725515 12 57.1925711 18.4523762 63 25.7628713 57.4746814 35.0533663 47.0691188 39 41.2309303 36.8364356 33.1639827 33.130396 29"></polygon>
                <path d="M39.3423211,8.71560555 C38.5507048,7.29616073 39.5841535,7.14005811 38.6920001,5 C36.8343285,5.60172117 33.6515599,5.69066337 33.6515599,5.69066337 C33.6515599,5.69066337 32.8590379,7.55391158 31.8690646,8.93705346 C30.8790914,10.3174726 29.0965961,11.0671283 29.0965961,11.0671283 L29.4924042,14.4060908 L28.5060539,14.7074052 L27.403769,14.8789366 C27.403769,14.8789366 27.1121209,12.1498633 26.5297304,11.8712383 C25.9518686,11.5862603 25.4120479,11.9919456 24.8523009,13.0347474 C24.2979883,14.073919 25.6285196,15.4670442 25.4328799,17.0552976 C25.3368715,17.8276426 24.9356289,18.6090633 24.5488781,19.2062466 L25.8033273,20.7119109 C25.8033273,20.7119109 26.1746805,23.9183678 25.1702154,25.7316995 C24.1648446,27.5468463 24,28.3101155 24,28.3101155 L25.9391882,30.108926 C25.9391882,30.108926 29.2940473,31.1853081 31.8980483,30.9720283 C34.4938976,30.7487653 37.2120218,28.8864246 37.2120218,28.8864246 C37.2120218,28.8864246 36.7446602,27.9135059 35.8479782,25.4322002 C35.1143292,23.4028661 35.9639128,22.764842 35.9639128,22.764842 C35.9639128,22.764842 38.3523478,22.3255764 39.4020999,21.362641 C40.4536634,20.3969829 40.0669127,15.9689323 40.1765071,14.9052562 C40.2861016,13.8352272 42.9281437,14.0639357 42.9987914,12.6916847 C43.0676276,11.3212488 40.1765071,10.2112865 39.3423211,8.71560555" id="Fill-12" fill="#F1856C"></path>
                <g id="Group-16" transform="translate(21.000000, 0.000000)">
                    <mask id="mask-18" fill="white">
                        <use xlink:href="#path-17"></use>
                    </mask>
                    <g id="Clip-15"></g>
                    <path d="M4.18391304,13.7041739 C4.72130435,12.705913 5.23869565,12.3163478 5.79434783,12.5893913 C6.35347826,12.8563478 6.63347826,15.4711304 6.63347826,15.4711304 L7.69086957,15.3067826 L8.63869565,15.018087 L8.25869565,11.8189565 C8.25869565,11.8189565 9.97,11.1006957 10.9195652,9.77808696 C11.87,8.45286957 12.6317391,6.66765217 12.6317391,6.66765217 C12.6317391,6.66765217 15.6873913,6.58330435 17.4708696,6.00591304 C17.7978261,5.89982609 18.0821739,5.77721739 18.2978261,5.6346087 C19.6813043,4.72156522 19.6673913,1.47026087 19.6673913,1.47026087 C19.6673913,1.47026087 17.6952174,0.351130435 16.4013043,0.975478261 C15.1073913,1.60243478 13.0995652,2.57373913 13.0995652,2.57373913 L10.203913,2.66678261 C10.203913,2.66678261 6.79173913,1.85895652 3.60130435,4.33373913 C0.40826087,6.80678261 -0.0213043478,8.50243478 0.257826087,12.1206957 C0.540434783,15.7372174 1.94913043,17.2850435 1.94913043,17.2850435 L3.8926087,19.6172174 C4.26304348,19.045913 4.64913043,18.2963478 4.74043478,17.5572174 C4.92913043,16.0354783 3.65173913,14.7006957 4.18391304,13.7041739" id="Fill-14" fill="#32303E" mask="url(#mask-18)"></path>
                </g>
                <path d="M35.9996507,10.5180275 C35.9889773,10.7939867 35.75683,11.0103031 35.4810995,10.9996208 C35.2053689,10.9893836 34.9901213,10.7570437 35.00035,10.4810846 C35.0110234,10.2046803 35.242726,9.98969917 35.5184565,10.0003815 C35.794187,10.0101736 36.0098794,10.2425134 35.9996507,10.5180275" id="Fill-17" fill="#32303E"></path>
                <path d="M36,18.0348169 L40,18 C40,18 39.9155268,19.0087628 37.8737701,18.9999425 C36.5308375,18.994836 36,18.0348169 36,18.0348169" id="Fill-19" fill="#E13E2B"></path>
                <polygon id="Fill-21" fill="#0B6162" points="22.3296548 59.073551 22 64.0463453 28.5742333 76.3837877 42.4403952 90.2029956 50.7967407 104.476364 62.1172847 120 71 113.961607 58.6940844 89.3918682 56.298473 83.8800895 42.8993969 58 35.1852945 59.8988157"></polygon>
                <polygon id="Fill-23" fill="#0B6162" points="38.6381669 56 40 67.6863106 27.3991824 95.7967457 18.5113814 111.522009 12.9159643 119 4 113.191609 13.6818251 90.3957269 18.2097613 68.6891404 21.0987735 61.4322179 29.1307727 58.515543"></polygon>
                <path d="M25.0321891,25.2925199 C25.0321891,25.2925199 20.5435935,29.0970521 19.9952934,33.4334386 C19.4461047,37.7680524 19,41.2986795 19,41.2986795 L20.8946121,62.17308 L26.2798604,63.5071482 L35.9315407,64 L41.3558898,63.6489761 L46,62.5666523 L43.6717243,46.1048708 C43.6717243,46.1048708 44.094724,41.6771825 42.5253596,36.3373639 C40.9559951,30.9966589 35.508541,25 35.508541,25 C35.508541,25 33.2540236,26.0433211 30.3303492,25.9484738 C27.4066748,25.8553992 25.0321891,25.2925199 25.0321891,25.2925199" id="Fill-25" fill="#E3C521"></path>
                <path d="M22.1833471,32.7788006 C22.8717709,28.804661 25.8886089,28.5730203 25.8886089,28.5730203 C25.8886089,28.5730203 30.3469728,26.8569346 33.4134269,29.3643118 C36.478995,31.8708048 44.2208836,42.9577262 44.2208836,42.9577262 L52.1390865,47.408409 L61.1063163,52.0889642 L64,54.1295236 L60.3727064,62 L35.9420776,53.4620096 L26.9057396,43.8480396 L22.4500338,37.979221 C22.4500338,37.979221 21.6499737,35.855554 22.1833471,32.7788006" id="Fill-27" fill="#B93E23"></path>
                <g id="Group-31" transform="translate(62.000000, 112.000000)">
                    <mask id="mask-20" fill="white">
                        <use xlink:href="#path-19"></use>
                    </mask>
                    <g id="Clip-30"></g>
                    <path d="M0.172765385,6.09595 L6.05545769,13.44945 L11.1862269,10.8332 L22.6738423,4.058075 C22.6738423,4.058075 21.5884192,0.769825 19.0787654,0.23345 C16.5691115,-0.3038 9.62576538,3.3187 9.62576538,3.3187 L7.15326538,1.322825 L0.172765385,6.09595 Z" id="Fill-29" fill="#4E87BC" mask="url(#mask-20)"></path>
                </g>
            </g>
            <g id="Dog" transform="translate(49.000000, 350.000000)" fill-rule="nonzero">
                <path d="M81,6.36087095 L69.4645062,4.00873391 L61.039832,1 L54.5723899,3.26313932 L51.4125628,7.86542889 L47.7266722,15.6529199 L34.5555572,15.663233 L20.261484,15.2904357 C20.261484,15.2904357 13.9349382,15.4352002 11.1108882,13.8454642 L11.1200771,14.9913575 L9.29761527,15.3332157 L9.63798682,17.2781786 L7.95412401,17.7934487 C9.40520177,19.2854018 11.12314,20.2685783 12.6775927,20.9140982 L10.465752,29.938772 L6.55052216,35.2232501 L0.000380126382,35.2408205 C0.000380126382,35.2408205 -0.158128104,39.2781846 5.99842344,39.123871 L15.1428934,34.2882012 C21.1914755,38.4416825 23.9829816,41.3350632 23.9829816,41.3350632 L23.8053298,47.867801 C23.8053298,47.867801 27.8457583,48.1458711 27.8748564,42.001973 L25.1974456,34.1877445 L29.9928939,35.536461 C29.9928939,35.536461 40.4180644,39.26367 46.7583936,35.536461 C47.4467941,35.9848872 48.107245,36.4138333 48.7428095,36.8259729 C47.3342303,38.7342673 46.5987368,39.747619 46.5987368,39.747619 L40.062761,39.3167631 C40.062761,39.3167631 39.6270547,43.3335011 45.7793947,43.6012582 L53.9184477,40.1651061 C57.2861733,42.325497 59.1036578,43.4641329 59.1036578,43.4641329 L59.1036578,49.9995446 C59.1036578,49.9995446 63.1502121,50.1679909 63.011996,44.0256206 L58.9420866,35.9585317 C58.9420866,35.9585317 61.6160515,29.8497743 61.8744889,27.4407246 C62.133309,25.0312929 61.0026936,17.2999506 61.0026936,17.2999506 L61.9323023,16.1120412 C61.9323023,16.1120412 67.902396,15.4394019 70.5955045,14.8836435 C74.3472487,14.1094016 79.5929523,10.4627871 79.5929523,10.4627871 L77.8317497,7.65114684 L81,6.36087095" id="Fill-108" fill="#CB6937"></path>
                <path d="M81.8966971,6 C81.8966971,6 82.4693856,8.04376571 80.9179461,9.72176184 C80.8321828,9.81413536 80.7285669,9.90799888 80.6102486,10 L79,7.25821771 L81.8966971,6" id="Fill-109" fill="#272931"></path>
                <path d="M10.8773938,13.2882812 C10.9148568,13.3094668 10.9523199,13.3306525 10.990918,13.3504257 L11,14.4097062 L9.19874854,14.7257248 L9.53515874,16.5236769 L7.87089328,17 C7.58708265,16.7291773 7.31575969,16.4385813 7.05578916,16.1292714 C3.43512244,11.8045824 4.03755778,8 4.03755778,8 C4.03755778,8 7.90381531,11.6343913 10.8773938,13.2882812" id="Fill-110" fill="#272931"></path>
                <path d="M70,6.00018021 C70,6.55235178 69.3290683,7 68.4997297,7 C67.672013,7 67,6.55235178 67,6.00018021 C67,5.44764822 67.672013,5 68.4997297,5 C69.3290683,5 70,5.44764822 70,6.00018021" id="Fill-111" fill="#272931"></path>
                <polyline id="Fill-112" fill="#CDBC4B" points="49.4796733 12 53.9484491 14.2290481 63 15.9733846 62.713649 19 58.909934 18.8332218 54.9354132 18.1590782 51.3083007 16.8685972 48 15.137931 49.4796733 12"></polyline>
                <path d="M63,5.49329823 C63,5.49329823 53.8764728,8.60225938 50.3954472,8.94511135 C46.915182,9.28796324 45.1670636,7.91255188 45.1670636,7.91255188 C45.1670636,7.91255188 43.1854573,6.50001639 43.0223199,4.17866845 C42.8591825,1.85732051 43.5862658,1.25459988 45.3374263,0.367261172 C47.0878262,-0.52116942 50.6905396,0.481545157 50.6905396,0.481545157 L59.3307388,1.36306048 L63,5.49329823" id="Fill-113" fill="#272931"></path>
            </g>
            <g id="Page-1" transform="translate(558.000000, 360.000000)">
                <g id="Group-4" transform="translate(46.000000, 15.000000)">
                    <mask id="mask-22" fill="white">
                        <use xlink:href="#path-21"></use>
                    </mask>
                    <g id="Clip-3"></g>
                    <path d="M27.1588358,77.5486557 L18.071194,71.8673443 C18.071194,71.8673443 8.94152239,69.1381639 6.00534328,64.8194754 C3.06916418,60.4994754 1.31573134,55.5965246 1.06223881,54.5440656 C0.804149254,53.4922623 -0.249880597,47.8391475 1.11608955,44.560459 C2.48074627,41.283082 4.29591045,40.9001311 4.56253731,40.1125902 C4.82785075,39.3263607 3.78892537,30.8784918 5.16408955,26.1899672 C6.53925373,21.5007869 9.41567164,18.5965246 10.2096418,18.0712787 C11.0009851,17.5512787 14.1722687,15.4352131 17.3350149,14.3657049 C20.4977612,13.3001311 22.0732239,13.9368525 22.0732239,13.9368525 C22.0732239,13.9368525 24.6652836,9.08701639 27.6421791,6.34603279 C30.615791,3.60242623 35.0328657,1.65619672 35.0328657,1.65619672 L43.0277313,0.016852459 C43.0277313,0.016852459 46.8833134,0.307344262 50.2877313,3.05422951 C53.692806,5.79521311 53.9279104,11.2207869 53.9279104,11.2207869 C53.9279104,11.2207869 58.2517313,8.64767213 63.4207463,7.85619672 C68.5871343,7.06340984 71.0432537,9.20963934 71.0432537,9.20963934 C71.0432537,9.20963934 75.7440299,15.8070164 76.0021194,16.5971803 C76.260209,17.3847213 79.1254627,22.5578361 78.5777612,26.8568525 C78.0261194,31.1565246 75.0886269,39.0024262 75.0886269,39.0024262 C75.0886269,39.0024262 79.1766866,37.4293115 82.7203284,39.0443934 C86.2633134,40.6594754 87.1485672,47.1335738 87.1485672,47.1335738 C87.1485672,47.1335738 87.6437313,52.9184918 87.1111343,53.7027541 C86.5824776,54.4902951 81.5421791,61.8161967 81.5421791,61.8161967 L71.4950746,70.6968525 L56.7202687,77.7112787 L43.1781194,79.9998033 L33.5513134,79.9473443 L27.1588358,77.5486557 Z" id="Fill-2" fill="#68A58C" mask="url(#mask-22)"></path>
                </g>
                <polygon id="Fill-1" fill="#833047" points="43.5938964 0 38.9698847 7.01855011 33.3068943 16.3750914 20.9864531 12.7046545 17.180138 28.210191 16.1856776 37.9694735 8.12066274 34.7821952 5.46789545 49.4234073 5.89409276 60.9727959 0 60.0980107 2.26846956 79.0863433 9.95311477 94.4094694 27.8763157 107.754849 47.9095533 110 64.0854107 100.479355 73.8120058 90.7449167 84.5998388 79.2615619 91 62.4719609 89.8831143 42.9076299 83.6106159 46.7827064 82.133001 39.7778861 75.9567407 20.531956 68.7971496 24.7247796 60.8290275 9.46964879 54.5558745 16.0501525"></polygon>
            </g>
        </g>
    </g>
</svg>